<svg width="95" height="98" viewBox="0 0 95 98" fill="none" xmlns="http://www.w3.org/2000/svg">
<g clip-path="url(#clip0_1496_2137)">
<path opacity="0.2" d="M74.8279 16.2396C68.3036 13.5399 60.5405 17.5228 55.0743 12.7906C49.6701 8.12001 46.9809 -0.394809 36.8795 0.015791C29.6687 0.308344 22.8605 4.66584 18.277 10.2089C7.59239 23.1377 18.6589 34.5678 9.9461 44.6018C8.92409 45.7772 5.30062 49.5804 3.36501 52.3776C-4.65102 63.9822 2.79207 80.129 13.6367 80.7295C22.0966 81.1966 27.4286 73.7031 34.6446 73.4516C42.5986 73.1796 43.7032 83.4754 46.2686 90.3376C51.6057 104.621 66.4196 96.009 68.0352 88.0793C69.1398 82.6645 78.2656 87.4069 86.3384 85.5181C93.0846 83.9373 95.8719 76.7878 94.757 70.5364C92.9969 60.6306 83.9227 56.7864 78.5546 50.9199C73.3878 45.2742 79.3082 39.4437 81.4348 30.5439C82.8336 24.7185 80.5883 18.6211 74.8279 16.2396Z" fill="#E6F4FF"/>
<path d="M69.5171 17.1374L50.9662 35.5836C50.992 35.6606 51.023 35.7325 51.054 35.8095L69.7494 17.2196C69.6668 17.1888 69.5946 17.1631 69.5171 17.1374ZM67.9067 16.6447L50.4707 33.9823C50.4913 34.0644 50.512 34.1465 50.5326 34.2287L68.1545 16.7063C68.0719 16.6909 67.9945 16.6652 67.9067 16.6447ZM73.5432 19.3957L53.2425 39.5819C53.2889 39.6383 53.3354 39.6948 53.3819 39.7512L73.7187 19.5292C73.6568 19.4881 73.6 19.4419 73.5432 19.3957ZM70.983 17.7636L51.5959 37.0413C51.6321 37.108 51.663 37.1799 51.6992 37.2466L71.1895 17.8662C71.1224 17.8303 71.0501 17.7995 70.983 17.7636ZM72.3199 18.5232L52.3599 38.3706C52.4011 38.4322 52.4424 38.4989 52.4837 38.5605L72.5109 18.6464C72.449 18.6002 72.3819 18.5643 72.3199 18.5232ZM61.7489 16.5113L50.3365 27.8592C50.3107 27.9824 50.2952 28.1107 50.2745 28.2339L62.1257 16.4497C62.0018 16.4702 61.8728 16.4856 61.7489 16.5113ZM58.688 17.4659L51.2966 24.8157C51.2191 24.9902 51.1417 25.1698 51.0694 25.3494L59.2248 17.2452C59.0442 17.3119 58.8635 17.3889 58.688 17.4659ZM66.1208 16.3368L50.161 32.2065C50.1713 32.2988 50.1816 32.3912 50.192 32.4836L66.3995 16.3727C66.3066 16.3573 66.2137 16.347 66.1208 16.3368ZM64.1026 16.2546L50.0784 30.1997C50.0732 30.3074 50.0732 30.4101 50.0732 30.5179L64.4226 16.2495C64.3194 16.2495 64.211 16.2546 64.1026 16.2546ZM58.0531 43.4569L77.4351 24.1844C77.399 24.1176 77.368 24.0458 77.3319 23.9791L57.8467 43.3543C57.9138 43.3902 57.9809 43.421 58.0531 43.4569ZM64.9336 44.9659L78.9526 31.026C78.9578 30.9182 78.9578 30.8156 78.9578 30.7078L64.6136 44.971C64.7168 44.971 64.8252 44.9659 64.9336 44.9659ZM62.9154 44.8837L78.87 29.0192C78.8597 28.9268 78.8494 28.8344 78.8391 28.742L62.6418 44.8478C62.7296 44.8632 62.8225 44.8735 62.9154 44.8837ZM67.2873 44.7092L78.6945 33.3664C78.7204 33.2432 78.7358 33.1149 78.7565 32.9917L66.9105 44.7708C67.0396 44.7503 67.1634 44.7349 67.2873 44.7092ZM70.3533 43.7495L77.7293 36.4151C77.8067 36.2355 77.8842 36.061 77.9564 35.8813L69.8165 43.9753C69.9972 43.9034 70.1727 43.8264 70.3533 43.7495ZM59.519 44.0882L78.07 25.642C78.0442 25.565 78.0132 25.4931 77.9822 25.4162L59.2919 44.0009C59.3642 44.0317 59.4416 44.0574 59.519 44.0882ZM56.7163 42.6973L76.6763 22.8499C76.635 22.7883 76.5938 22.7216 76.5525 22.66L56.5253 42.5741C56.5872 42.6203 56.6492 42.6614 56.7163 42.6973ZM55.493 41.8248L75.7937 21.6386C75.7472 21.5822 75.7008 21.5257 75.6543 21.4693L55.3175 41.6913C55.3794 41.7324 55.4362 41.7786 55.493 41.8248ZM61.1243 44.5758L78.5603 27.2382C78.5397 27.1561 78.5191 27.074 78.4984 26.9918L60.8817 44.5091C60.9591 44.5296 61.0417 44.5553 61.1243 44.5758ZM74.653 20.3812L54.2284 40.6905C54.2542 40.7161 54.2748 40.7418 54.3006 40.7675C54.3264 40.7931 54.3574 40.8188 54.3832 40.8445L74.8078 20.5352C74.782 20.5095 74.7562 20.4787 74.7304 20.453C74.7046 20.4274 74.6788 20.4017 74.653 20.3812Z" fill="#FFB900"/>
<path opacity="0.5" d="M38.8981 44.6064L25.8804 57.5506C25.9011 57.6019 25.9217 57.6583 25.9424 57.7097L39.0581 44.668C39.0013 44.6474 38.9497 44.6269 38.8981 44.6064ZM37.7677 44.2625L25.5346 56.4265C25.5501 56.483 25.5656 56.5395 25.581 56.601L37.9432 44.3087C37.8812 44.2933 37.8245 44.2779 37.7677 44.2625ZM41.7163 46.1923L27.4702 60.358C27.5012 60.3991 27.5373 60.4402 27.5683 60.4761L41.835 46.2898C41.7989 46.2591 41.7576 46.2283 41.7163 46.1923ZM39.9252 45.0478L26.3243 58.5719C26.3501 58.6181 26.3708 58.6694 26.3966 58.7156L40.0698 45.1196C40.0233 45.0991 39.9717 45.0734 39.9252 45.0478ZM40.8595 45.5816L26.856 59.506C26.8869 59.5522 26.9127 59.5933 26.9437 59.6395L40.9937 45.6688C40.9524 45.638 40.906 45.6072 40.8595 45.5816ZM33.4474 44.1701L25.4417 52.1306C25.4262 52.2179 25.4107 52.3051 25.3952 52.3924L33.7106 44.1239C33.6229 44.1393 33.5351 44.1547 33.4474 44.1701ZM31.3001 44.8425L26.1127 49.9955C26.0559 50.1187 26.0043 50.2419 25.9527 50.3702L31.6718 44.6834C31.5479 44.7347 31.424 44.786 31.3001 44.8425ZM36.5134 44.0469L25.3178 55.1793C25.323 55.2461 25.3333 55.3077 25.3436 55.3744L36.7095 44.0726C36.6424 44.0623 36.5753 44.0572 36.5134 44.0469ZM35.0991 43.9905L25.261 53.773C25.261 53.8449 25.2559 53.9219 25.2559 53.9937L35.3211 43.9854C35.2488 43.9854 35.1714 43.9905 35.0991 43.9905ZM30.8511 63.0731L44.4468 49.5541C44.421 49.5079 44.4004 49.4566 44.3746 49.4104L30.7014 63.0064C30.753 63.0269 30.8046 63.0475 30.8511 63.0731ZM35.6772 64.1304L45.5153 54.353C45.5153 54.2812 45.5205 54.2042 45.5205 54.1323L35.4553 64.1407C35.5275 64.1356 35.6049 64.1356 35.6772 64.1304ZM34.2629 64.074L45.4534 52.9467C45.4482 52.88 45.4379 52.8184 45.4275 52.7517L34.0668 64.0534C34.1339 64.0586 34.201 64.0688 34.2629 64.074ZM37.3341 63.9508L45.3346 55.9954C45.3501 55.9082 45.3656 55.8209 45.3811 55.7337L37.0709 63.997C37.1586 63.9816 37.2464 63.9713 37.3341 63.9508ZM39.4813 63.2784L44.6585 58.1305C44.7152 58.0073 44.7669 57.879 44.8185 57.7559L39.1045 63.4375C39.2284 63.3862 39.3575 63.3349 39.4813 63.2784ZM31.8782 63.5145L44.8907 50.5755C44.8701 50.5242 44.8494 50.4677 44.8288 50.4164L31.7131 63.4581C31.775 63.4786 31.8266 63.494 31.8782 63.5145ZM29.9117 62.5445L43.9152 48.62C43.8842 48.5738 43.8584 48.5327 43.8274 48.4866L29.7775 62.4572C29.8239 62.488 29.8704 62.5137 29.9117 62.5445ZM29.0548 61.9286L43.2958 47.768C43.2648 47.7269 43.2287 47.6859 43.1977 47.65L28.9309 61.8362C28.9774 61.867 29.0187 61.8978 29.0548 61.9286ZM33.0086 63.8584L45.2366 51.6995C45.2211 51.643 45.2056 51.5866 45.1901 51.525L32.8331 63.8122C32.8951 63.8276 32.9519 63.843 33.0086 63.8584ZM42.4957 46.8852L28.167 61.133C28.1825 61.1536 28.2032 61.169 28.2186 61.1895C28.2393 61.21 28.2548 61.2254 28.2754 61.246L42.6041 46.9981C42.5835 46.9776 42.568 46.9622 42.5474 46.9417C42.537 46.916 42.5164 46.9006 42.4957 46.8852Z" fill="#FF192C"/>
<path d="M39.0736 27.7935C39.0789 27.7935 39.0842 27.783 39.0842 27.7777C39.0842 27.7724 39.0736 27.7671 39.0683 27.7671C39.0629 27.7671 39.0576 27.7777 39.0576 27.783C39.0576 27.7882 39.0629 27.7935 39.0736 27.7935Z" fill="#FF192C"/>
<path d="M41.2832 27.2286C41.2989 27.2234 41.3041 27.2131 41.3041 27.1975C41.2989 27.1819 41.2885 27.1768 41.2728 27.1768C41.2572 27.1819 41.252 27.1923 41.252 27.2079C41.2572 27.2234 41.2676 27.2338 41.2832 27.2286Z" fill="#FF192C"/>
<path d="M43.4978 26.6746C43.5239 26.6694 43.5343 26.6435 43.5291 26.6227C43.5239 26.5968 43.4978 26.5864 43.4769 26.5916C43.4509 26.5968 43.4404 26.6227 43.4456 26.6435C43.4456 26.6642 43.4717 26.6798 43.4978 26.6746Z" fill="#FF192C"/>
<path d="M45.7058 26.1141C45.7367 26.1039 45.7522 26.0731 45.7471 26.0474C45.7367 26.0166 45.7058 26.0012 45.68 26.0063C45.649 26.0166 45.6335 26.0474 45.6387 26.0731C45.6438 26.1039 45.6748 26.1193 45.7058 26.1141Z" fill="#FF192C"/>
<path d="M47.9051 25.5144C47.9207 25.5093 47.9311 25.4937 47.9259 25.4781C47.9207 25.4626 47.9051 25.4522 47.8894 25.4574C47.8738 25.4626 47.8633 25.4781 47.8685 25.4937C47.8685 25.5093 47.8894 25.5196 47.9051 25.5144Z" fill="#FF192C"/>
<path d="M34.1289 31.4126C34.1347 31.4126 34.1347 31.4068 34.1347 31.4068C34.1347 31.4009 34.1289 31.4009 34.1289 31.4009C34.123 31.4009 34.123 31.4068 34.123 31.4068C34.123 31.4126 34.1289 31.4126 34.1289 31.4126Z" fill="#FF192C"/>
<path d="M36.3435 30.8626C36.3592 30.8574 36.3696 30.8418 36.3644 30.8263C36.3592 30.8107 36.3435 30.8004 36.3279 30.8055C36.3122 30.8107 36.3018 30.8263 36.307 30.8418C36.307 30.8574 36.3279 30.8678 36.3435 30.8626Z" fill="#FF192C"/>
<path d="M38.5624 30.3281C38.5985 30.3178 38.6244 30.2819 38.614 30.246C38.6037 30.2101 38.5676 30.1844 38.5314 30.1947C38.4953 30.2049 38.4695 30.2409 38.4798 30.2768C38.485 30.3127 38.5211 30.3384 38.5624 30.3281Z" fill="#FF192C"/>
<path d="M40.7769 29.7841C40.8285 29.7687 40.8647 29.7174 40.8492 29.6609C40.8337 29.6096 40.7821 29.5736 40.7253 29.589C40.6737 29.6044 40.6375 29.6558 40.653 29.7122C40.6634 29.7636 40.7201 29.7995 40.7769 29.7841Z" fill="#FF192C"/>
<path d="M42.9862 29.2349C43.0533 29.2195 43.0946 29.1477 43.0791 29.081C43.0636 29.0142 42.9914 28.9732 42.9243 28.9886C42.8572 29.004 42.8159 29.0758 42.8314 29.1426C42.852 29.2093 42.9191 29.2503 42.9862 29.2349Z" fill="#FF192C"/>
<path d="M45.1999 28.6805C45.2774 28.6599 45.3238 28.583 45.3032 28.506C45.2825 28.429 45.2051 28.3828 45.1277 28.4033C45.0502 28.4238 45.0038 28.5008 45.0244 28.5778C45.0451 28.6548 45.1225 28.701 45.1999 28.6805Z" fill="#FF192C"/>
<path d="M47.4148 28.1264C47.5026 28.1059 47.5542 28.0135 47.5335 27.9263C47.5129 27.839 47.42 27.7877 47.3322 27.8082C47.2445 27.8288 47.1929 27.9211 47.2135 28.0084C47.2342 28.0956 47.3219 28.147 47.4148 28.1264Z" fill="#FF192C"/>
<path d="M49.6136 27.5362C49.6961 27.5156 49.7426 27.4335 49.7219 27.3514C49.7013 27.2693 49.6187 27.2231 49.5361 27.2436C49.4535 27.2642 49.4071 27.3463 49.4277 27.4284C49.4535 27.5105 49.5361 27.5618 49.6136 27.5362Z" fill="#FF192C"/>
<path d="M51.7963 26.869C51.8221 26.8639 51.8376 26.8331 51.8325 26.8074C51.8273 26.7818 51.7963 26.7664 51.7705 26.7715C51.7447 26.7766 51.7292 26.8074 51.7344 26.8331C51.7447 26.8587 51.7705 26.8741 51.7963 26.869Z" fill="#FF192C"/>
<path d="M31.3987 34.4713C31.4043 34.4713 31.4043 34.4656 31.4043 34.4656C31.4043 34.46 31.3987 34.46 31.3987 34.46C31.393 34.46 31.393 34.4656 31.393 34.4656C31.3873 34.4656 31.393 34.4713 31.3987 34.4713Z" fill="#FF192C"/>
<path d="M33.613 33.9319C33.6391 33.9267 33.6495 33.9008 33.6443 33.8801C33.6391 33.8541 33.613 33.8438 33.5922 33.849C33.5661 33.8541 33.5557 33.8801 33.5609 33.9008C33.5661 33.9215 33.587 33.9371 33.613 33.9319Z" fill="#FF192C"/>
<path d="M35.8314 33.4077C35.883 33.3923 35.914 33.341 35.8985 33.2948C35.883 33.2435 35.8314 33.2127 35.785 33.2281C35.7334 33.2435 35.7024 33.2948 35.7179 33.341C35.7282 33.3872 35.7798 33.418 35.8314 33.4077Z" fill="#FF192C"/>
<path d="M38.0512 32.8738C38.1235 32.8533 38.17 32.7815 38.1493 32.7045C38.1287 32.6326 38.0564 32.5864 37.979 32.6069C37.9067 32.6275 37.8603 32.6993 37.8809 32.7763C37.9016 32.8482 37.9738 32.8944 38.0512 32.8738Z" fill="#FF192C"/>
<path d="M40.2659 32.3403C40.3589 32.3146 40.4156 32.2171 40.395 32.1247C40.3692 32.0323 40.2711 31.9759 40.1782 31.9964C40.0853 32.0221 40.0285 32.1196 40.0492 32.212C40.075 32.3043 40.173 32.3608 40.2659 32.3403Z" fill="#FF192C"/>
<path d="M42.4802 31.796C42.5938 31.7652 42.6609 31.6523 42.6299 31.5445C42.5989 31.4316 42.4854 31.3649 42.377 31.3957C42.2634 31.4265 42.1963 31.5394 42.2273 31.6472C42.2582 31.755 42.3718 31.8217 42.4802 31.796Z" fill="#FF192C"/>
<path d="M44.6942 31.2469C44.8181 31.2161 44.8955 31.0878 44.8593 30.9646C44.8284 30.8414 44.6993 30.7644 44.5755 30.8004C44.4516 30.8312 44.3741 30.9595 44.4103 31.0827C44.4413 31.2058 44.5703 31.2777 44.6942 31.2469Z" fill="#FF192C"/>
<path d="M46.909 30.6923C47.0432 30.6564 47.1258 30.5178 47.0897 30.3844C47.0535 30.2509 46.9142 30.1688 46.78 30.2047C46.6458 30.2407 46.5632 30.3792 46.5993 30.5127C46.6355 30.6461 46.7748 30.7231 46.909 30.6923Z" fill="#FF192C"/>
<path d="M49.1183 30.123C49.2576 30.0871 49.3402 29.9485 49.3041 29.8099C49.268 29.6713 49.1286 29.5892 48.9892 29.6251C48.8499 29.6611 48.7673 29.7996 48.8034 29.9382C48.8344 30.0768 48.9789 30.1589 49.1183 30.123Z" fill="#FF192C"/>
<path d="M51.3268 29.5529C51.4713 29.517 51.5539 29.3733 51.5178 29.2296C51.4817 29.0859 51.3371 29.0037 51.1926 29.0397C51.0481 29.0756 50.9655 29.2193 51.0016 29.363C51.0378 29.5067 51.1823 29.594 51.3268 29.5529Z" fill="#FF192C"/>
<path d="M53.5109 28.9116C53.6142 28.8859 53.6709 28.7833 53.6451 28.6806C53.6193 28.578 53.5161 28.5215 53.4129 28.5472C53.3096 28.5728 53.2528 28.6755 53.2787 28.7781C53.3096 28.8757 53.4129 28.9372 53.5109 28.9116Z" fill="#FF192C"/>
<path d="M55.6736 28.1583C55.6793 28.1583 55.6793 28.1527 55.6793 28.1527C55.6793 28.147 55.6736 28.147 55.6736 28.147C55.668 28.147 55.668 28.1527 55.668 28.1527C55.668 28.1583 55.668 28.164 55.6736 28.1583Z" fill="#FF192C"/>
<path d="M30.8774 36.9806C30.8982 36.9755 30.9087 36.9547 30.9035 36.934C30.8982 36.9132 30.8774 36.9029 30.8565 36.9081C30.8356 36.9132 30.8252 36.934 30.8304 36.9547C30.8356 36.9755 30.8565 36.9858 30.8774 36.9806Z" fill="#FF192C"/>
<path d="M33.101 36.4614C33.1526 36.446 33.1835 36.3947 33.1681 36.3485C33.1526 36.2972 33.101 36.2664 33.0545 36.2818C33.0029 36.2972 32.9719 36.3485 32.9874 36.3947C32.9977 36.446 33.0493 36.4717 33.101 36.4614Z" fill="#FF192C"/>
<path d="M35.3206 35.9429C35.4032 35.9224 35.4496 35.8403 35.429 35.7581C35.4083 35.676 35.3257 35.6298 35.2432 35.6504C35.1606 35.6709 35.1141 35.753 35.1348 35.8351C35.1554 35.9121 35.238 35.9634 35.3206 35.9429Z" fill="#FF192C"/>
<path d="M37.5405 35.4196C37.6489 35.3939 37.7108 35.281 37.685 35.1732C37.6592 35.0654 37.5457 34.9987 37.4373 35.0295C37.3289 35.0552 37.2618 35.1681 37.2927 35.2759C37.3237 35.3785 37.4321 35.4452 37.5405 35.4196Z" fill="#FF192C"/>
<path d="M39.7594 34.8858C39.8936 34.8499 39.971 34.7164 39.9349 34.5881C39.8988 34.4547 39.7646 34.3777 39.6355 34.4136C39.5013 34.4495 39.4239 34.583 39.46 34.7113C39.491 34.8396 39.6252 34.9217 39.7594 34.8858Z" fill="#FF192C"/>
<path d="M41.9738 34.3468C42.1235 34.3057 42.2164 34.1518 42.1751 34.0029C42.1338 33.8541 41.979 33.7617 41.8293 33.8027C41.6796 33.8438 41.5867 33.9978 41.628 34.1466C41.6693 34.2955 41.8241 34.3879 41.9738 34.3468Z" fill="#FF192C"/>
<path d="M44.1885 33.8081C44.3589 33.7619 44.4569 33.5925 44.4156 33.4232C44.3692 33.2538 44.1988 33.1563 44.0285 33.1973C43.8582 33.2435 43.7601 33.4129 43.8014 33.5823C43.8479 33.7517 44.0233 33.8492 44.1885 33.8081Z" fill="#FF192C"/>
<path d="M46.4032 33.2483C46.5839 33.2021 46.6871 33.0173 46.6407 32.8428C46.5942 32.6632 46.4084 32.5605 46.2329 32.6067C46.0523 32.6529 45.949 32.8377 45.9955 33.0122C46.0419 33.1918 46.2226 33.2996 46.4032 33.2483Z" fill="#FF192C"/>
<path d="M48.612 32.694C48.803 32.6427 48.9166 32.4528 48.865 32.2629C48.8134 32.073 48.6224 31.9601 48.4314 32.0114C48.2404 32.0627 48.1269 32.2526 48.1785 32.4425C48.2301 32.6324 48.4262 32.7454 48.612 32.694Z" fill="#FF192C"/>
<path d="M50.821 32.1297C51.0119 32.0784 51.1307 31.8834 51.079 31.6935C51.0274 31.5036 50.8313 31.3855 50.6403 31.4368C50.4493 31.4882 50.3306 31.6832 50.3822 31.8731C50.4338 32.063 50.63 32.1759 50.821 32.1297Z" fill="#FF192C"/>
<path d="M53.0251 31.5495C53.2161 31.4982 53.3297 31.3083 53.2781 31.1184C53.2264 30.9285 53.0355 30.8156 52.8445 30.8669C52.6535 30.9182 52.5399 31.1081 52.5916 31.298C52.6432 31.4828 52.8393 31.5957 53.0251 31.5495Z" fill="#FF192C"/>
<path d="M55.2237 30.939C55.394 30.8928 55.4921 30.7234 55.4508 30.554C55.4043 30.3847 55.234 30.2871 55.0637 30.3282C54.8933 30.3744 54.7953 30.5438 54.8366 30.7131C54.883 30.8825 55.0533 30.98 55.2237 30.939Z" fill="#FF192C"/>
<path d="M57.3611 30.0926C57.3768 30.0874 57.3872 30.0718 57.382 30.0563C57.3768 30.0407 57.3611 30.0303 57.3455 30.0355C57.3298 30.0407 57.3194 30.0563 57.3246 30.0718C57.3246 30.0874 57.3455 30.0977 57.3611 30.0926Z" fill="#FF192C"/>
<path d="M28.1361 40.0089C28.1414 40.0089 28.1467 39.9983 28.1467 39.993C28.1467 39.9877 28.1361 39.9824 28.1308 39.9824C28.1254 39.9824 28.1201 39.993 28.1201 39.9983C28.1254 40.0089 28.1308 40.0142 28.1361 40.0089Z" fill="#FF192C"/>
<path d="M30.3608 39.4949C30.4021 39.4846 30.4279 39.4435 30.4176 39.4025C30.4073 39.3614 30.366 39.3357 30.3247 39.346C30.2834 39.3563 30.2576 39.3973 30.2679 39.4384C30.2782 39.4846 30.3195 39.5103 30.3608 39.4949Z" fill="#FF192C"/>
<path d="M32.5854 38.9866C32.6577 38.9661 32.7041 38.8942 32.6835 38.8173C32.6628 38.7454 32.5906 38.6992 32.5132 38.7197C32.4409 38.7403 32.3944 38.8121 32.4151 38.8891C32.4306 38.961 32.508 39.002 32.5854 38.9866Z" fill="#FF192C"/>
<path d="M34.7995 38.4528C34.8975 38.4272 34.9543 38.3297 34.9285 38.2322C34.9027 38.1346 34.8046 38.0782 34.7065 38.1038C34.6085 38.1295 34.5517 38.227 34.5775 38.3245C34.6033 38.4221 34.7014 38.4785 34.7995 38.4528Z" fill="#FF192C"/>
<path d="M37.0143 37.8986C37.1227 37.8729 37.1847 37.76 37.1589 37.6522C37.1331 37.5444 37.0195 37.4777 36.9111 37.5085C36.8027 37.5342 36.7408 37.6471 36.7666 37.7549C36.7924 37.8627 36.9059 37.9242 37.0143 37.8986Z" fill="#FF192C"/>
<path d="M39.2389 37.3854C39.3834 37.3495 39.466 37.2058 39.4299 37.0621C39.3938 36.9184 39.2492 36.8363 39.1047 36.8722C38.9602 36.9081 38.8776 37.0518 38.9137 37.1955C38.9499 37.3392 39.0944 37.4214 39.2389 37.3854Z" fill="#FF192C"/>
<path d="M41.4631 36.8925C41.6489 36.8463 41.7625 36.6564 41.7108 36.4717C41.6592 36.2869 41.4734 36.174 41.2876 36.2253C41.1018 36.2715 40.9882 36.4614 41.0398 36.6462C41.0863 36.8309 41.2773 36.9387 41.4631 36.8925Z" fill="#FF192C"/>
<path d="M43.6823 36.359C43.8939 36.3025 44.0178 36.0921 43.961 35.8817C43.9042 35.6712 43.6926 35.5481 43.481 35.6045C43.2693 35.661 43.1455 35.8714 43.2022 36.0818C43.259 36.2923 43.4706 36.4154 43.6823 36.359Z" fill="#FF192C"/>
<path d="M45.8973 35.8197C46.1244 35.7633 46.2586 35.5323 46.2019 35.3065C46.1451 35.0806 45.9128 34.9472 45.6857 35.0037C45.4586 35.0601 45.3244 35.2911 45.3812 35.5169C45.4379 35.7427 45.6702 35.8762 45.8973 35.8197Z" fill="#FF192C"/>
<path d="M48.1114 35.2606C48.3488 35.1991 48.4882 34.9578 48.4262 34.7217C48.3643 34.4856 48.1217 34.3471 47.8842 34.4087C47.6468 34.4702 47.5074 34.7115 47.5694 34.9476C47.6313 35.1837 47.8739 35.3222 48.1114 35.2606Z" fill="#FF192C"/>
<path d="M50.3208 34.701C50.5634 34.6394 50.7079 34.3879 50.646 34.1467C50.5841 33.9054 50.3311 33.7617 50.0885 33.8233C49.8459 33.8849 49.7014 34.1364 49.7633 34.3776C49.8253 34.6189 50.0782 34.7626 50.3208 34.701Z" fill="#FF192C"/>
<path d="M52.5249 34.1263C52.7675 34.0647 52.912 33.8132 52.8501 33.572C52.7882 33.3307 52.5352 33.187 52.2926 33.2486C52.05 33.3102 51.9055 33.5617 51.9675 33.8029C52.0346 34.0442 52.2823 34.193 52.5249 34.1263Z" fill="#FF192C"/>
<path d="M54.7337 33.5464C54.9711 33.4849 55.1156 33.2385 55.0537 33.0024C54.9918 32.7663 54.744 32.6226 54.5066 32.6842C54.264 32.7458 54.1246 32.9921 54.1865 33.2282C54.2485 33.4695 54.4911 33.608 54.7337 33.5464Z" fill="#FF192C"/>
<path d="M56.9271 32.9352C57.1491 32.8788 57.2781 32.6529 57.2213 32.4374C57.1646 32.2218 56.9375 32.0883 56.7207 32.1448C56.4987 32.2013 56.3697 32.4271 56.4264 32.6427C56.4832 32.8634 56.7103 32.9968 56.9271 32.9352Z" fill="#FF192C"/>
<path d="M59.0388 32.0017C59.0545 31.9966 59.0649 31.981 59.0597 31.9654C59.0545 31.9499 59.0388 31.9395 59.0232 31.9447C59.0076 31.9499 58.9971 31.9654 59.0023 31.981C59.0075 31.9914 59.0232 32.0017 59.0388 32.0017Z" fill="#FF192C"/>
<path d="M27.615 42.5081C27.6307 42.5029 27.6411 42.4874 27.6359 42.4718C27.6307 42.4562 27.615 42.4459 27.5994 42.4511C27.5837 42.4562 27.5733 42.4718 27.5785 42.4874C27.5837 42.5029 27.5994 42.5133 27.615 42.5081Z" fill="#FF192C"/>
<path d="M29.834 41.9841C29.8805 41.9739 29.9063 41.9277 29.8908 41.8866C29.8805 41.8404 29.834 41.8148 29.7927 41.8302C29.7463 41.8404 29.7205 41.8866 29.7359 41.9277C29.7463 41.9687 29.7927 41.9944 29.834 41.9841Z" fill="#FF192C"/>
<path d="M32.0384 41.3937C32.0745 41.3834 32.09 41.3526 32.0848 41.3167C32.0745 41.2808 32.0435 41.2654 32.0074 41.2705C31.9713 41.2808 31.9558 41.3116 31.9609 41.3475C31.9713 41.3834 32.0022 41.4039 32.0384 41.3937Z" fill="#FF192C"/>
<path d="M34.237 40.7838C34.2527 40.7786 34.2579 40.7682 34.2579 40.7527C34.2527 40.7371 34.2422 40.7319 34.2266 40.7319C34.2109 40.7371 34.2057 40.7475 34.2109 40.763C34.2057 40.7786 34.2214 40.789 34.237 40.7838Z" fill="#FF192C"/>
<path d="M40.8545 39.0641C40.8702 39.0589 40.8754 39.0485 40.8702 39.0329C40.865 39.0174 40.8545 39.0122 40.8389 39.0122C40.8232 39.0174 40.818 39.0278 40.8232 39.0433C40.8285 39.0589 40.8441 39.0641 40.8545 39.0641Z" fill="#FF192C"/>
<path d="M43.1198 38.6993C43.254 38.6633 43.3314 38.5299 43.2953 38.4016C43.2591 38.2681 43.1249 38.1911 42.9959 38.2271C42.8617 38.263 42.7843 38.3964 42.8204 38.5248C42.8514 38.6582 42.9856 38.7352 43.1198 38.6993Z" fill="#FF192C"/>
<path d="M45.3859 38.3657C45.6492 38.299 45.8092 38.027 45.7369 37.7652C45.6698 37.5035 45.3963 37.3444 45.133 37.4162C44.8698 37.4829 44.7098 37.755 44.782 38.0167C44.8543 38.2785 45.1227 38.4324 45.3859 38.3657Z" fill="#FF192C"/>
<path d="M47.6059 37.8216C47.8846 37.7497 48.0549 37.4623 47.9827 37.1851C47.9104 36.908 47.6214 36.7386 47.3426 36.8105C47.0639 36.8823 46.8936 37.1697 46.9658 37.4469C47.0381 37.7292 47.322 37.8934 47.6059 37.8216Z" fill="#FF192C"/>
<path d="M49.815 37.2674C50.1041 37.1904 50.2796 36.8978 50.2021 36.6053C50.1247 36.3179 49.8305 36.1434 49.5363 36.2204C49.2472 36.2973 49.0717 36.5899 49.1492 36.8824C49.2266 37.1699 49.526 37.3444 49.815 37.2674Z" fill="#FF192C"/>
<path d="M52.0243 36.6976C52.3185 36.6206 52.494 36.3229 52.4165 36.0303C52.3391 35.7378 52.0397 35.5633 51.7455 35.6403C51.4513 35.7172 51.2758 36.0149 51.3533 36.3075C51.4307 36.6 51.7301 36.7745 52.0243 36.6976Z" fill="#FF192C"/>
<path d="M54.2281 36.1229C54.5172 36.0459 54.6927 35.7533 54.6152 35.4608C54.5378 35.1733 54.2436 34.9988 53.9494 35.0758C53.6603 35.1528 53.4848 35.4454 53.5623 35.7379C53.6397 36.0253 53.9391 36.1947 54.2281 36.1229Z" fill="#FF192C"/>
<path d="M56.4316 35.5323C56.7155 35.4604 56.8858 35.1679 56.8136 34.8856C56.7413 34.6033 56.4471 34.4339 56.1632 34.5058C55.8793 34.5776 55.709 34.8702 55.7812 35.1525C55.8587 35.4399 56.1477 35.6092 56.4316 35.5323Z" fill="#FF192C"/>
<path d="M58.6156 34.8654C58.8479 34.8038 58.9821 34.5728 58.9253 34.3419C58.8634 34.1109 58.6311 33.9774 58.3989 34.0339C58.1666 34.0955 58.0324 34.3265 58.0892 34.5574C58.1511 34.7884 58.3834 34.9218 58.6156 34.8654Z" fill="#FF192C"/>
<path d="M60.717 33.8859C60.7227 33.8859 60.7227 33.8802 60.7227 33.8802C60.7227 33.8745 60.717 33.8745 60.717 33.8745C60.7113 33.8745 60.7113 33.8802 60.7113 33.8802C60.7057 33.8802 60.7113 33.8859 60.717 33.8859Z" fill="#FF192C"/>
<path d="M27.0834 44.9718C27.0887 44.9718 27.094 44.9612 27.094 44.9559C27.094 44.9506 27.0834 44.9453 27.078 44.9453C27.0727 44.9453 27.0674 44.9559 27.0674 44.9612C27.0674 44.9718 27.078 44.9771 27.0834 44.9718Z" fill="#FF192C"/>
<path d="M29.2923 44.4024C29.2977 44.4024 29.303 44.3918 29.303 44.3866C29.303 44.3813 29.2923 44.376 29.287 44.376C29.2817 44.376 29.2764 44.3866 29.2764 44.3918C29.2764 44.3971 29.2817 44.4024 29.2923 44.4024Z" fill="#FF192C"/>
<path d="M44.7718 40.5009C44.844 40.4804 44.8853 40.4085 44.8647 40.3418C44.844 40.27 44.7718 40.2289 44.7047 40.2494C44.6324 40.27 44.5911 40.3418 44.6118 40.4085C44.6272 40.4753 44.6995 40.5163 44.7718 40.5009Z" fill="#FF192C"/>
<path d="M47.095 40.3775C47.415 40.2954 47.606 39.9669 47.5234 39.6487C47.4408 39.3305 47.1104 39.1406 46.7904 39.2227C46.4704 39.3049 46.2794 39.6333 46.362 39.9515C46.4446 40.2698 46.7749 40.4597 47.095 40.3775Z" fill="#FF192C"/>
<path d="M49.3089 39.8286C49.6444 39.7414 49.8457 39.4026 49.758 39.069C49.6702 38.7354 49.3295 38.5352 48.994 38.6225C48.6585 38.7097 48.4572 39.0485 48.545 39.3821C48.6327 39.7157 48.9734 39.9159 49.3089 39.8286Z" fill="#FF192C"/>
<path d="M51.5229 39.274C51.8688 39.1867 52.0752 38.8326 51.9823 38.4887C51.8946 38.1448 51.5384 37.9395 51.1926 38.0319C50.8468 38.1192 50.6403 38.4733 50.7332 38.8172C50.8209 39.1559 51.1771 39.3612 51.5229 39.274Z" fill="#FF192C"/>
<path d="M53.727 38.6993C54.0729 38.612 54.2793 38.2579 54.1864 37.914C54.0987 37.5701 53.7425 37.3648 53.3967 37.4572C53.0509 37.5444 52.8444 37.8986 52.9373 38.2425C53.0302 38.5812 53.3812 38.7865 53.727 38.6993Z" fill="#FF192C"/>
<path d="M55.9312 38.1142C56.2667 38.0269 56.4732 37.6831 56.3854 37.3443C56.2977 37.0107 55.9518 36.8054 55.6112 36.8927C55.2757 36.9799 55.0692 37.3238 55.1569 37.6625C55.2498 38.0013 55.5957 38.2014 55.9312 38.1142Z" fill="#FF192C"/>
<path d="M58.1356 37.524C58.4659 37.4368 58.6621 37.1032 58.5743 36.7798C58.4866 36.4513 58.1511 36.2563 57.8259 36.3436C57.4955 36.4308 57.2994 36.7644 57.3871 37.0878C57.4697 37.4111 57.8052 37.6062 58.1356 37.524Z" fill="#FF192C"/>
<path d="M60.2617 36.6463C60.4217 36.6053 60.5146 36.441 60.4734 36.2871C60.4321 36.128 60.2669 36.0356 60.112 36.0766C59.952 36.1177 59.8591 36.2819 59.9004 36.4359C59.9417 36.5899 60.1017 36.6874 60.2617 36.6463Z" fill="#FF192C"/>
<path d="M46.491 42.5589C46.6458 42.5179 46.7387 42.3588 46.6974 42.2048C46.6561 42.0508 46.4961 41.9584 46.3413 41.9995C46.1864 42.0406 46.0935 42.1997 46.1348 42.3536C46.1761 42.5076 46.3361 42.6 46.491 42.5589Z" fill="#FF192C"/>
<path d="M48.8028 42.3896C49.1796 42.2921 49.4067 41.9072 49.3086 41.5325C49.2106 41.1578 48.8234 40.932 48.4466 41.0295C48.0698 41.127 47.8427 41.512 47.9408 41.8918C48.0389 42.2613 48.426 42.4872 48.8028 42.3896Z" fill="#FF192C"/>
<path d="M51.0177 41.8351C51.4048 41.7325 51.6371 41.3373 51.539 40.9523C51.4358 40.5674 51.0383 40.3364 50.6512 40.4339C50.2641 40.5366 50.0318 40.9318 50.1299 41.3167C50.2279 41.7017 50.6254 41.9326 51.0177 41.8351Z" fill="#FF192C"/>
<path d="M53.2266 41.2708C53.624 41.1681 53.8563 40.7678 53.7531 40.3726C53.6499 39.9774 53.2472 39.7464 52.8498 39.8491C52.4524 39.9517 52.2201 40.352 52.3233 40.7472C52.4265 41.1373 52.8291 41.3734 53.2266 41.2708Z" fill="#FF192C"/>
<path d="M55.431 40.6906C55.8233 40.5879 56.0556 40.1876 55.9575 39.8027C55.8543 39.4126 55.4517 39.1816 55.0645 39.2791C54.6723 39.3818 54.44 39.7821 54.5381 40.1671C54.6361 40.5623 55.0387 40.7932 55.431 40.6906Z" fill="#FF192C"/>
<path d="M57.6346 40.1057C58.0218 40.003 58.2489 39.613 58.1508 39.2332C58.0476 38.8482 57.6553 38.6224 57.2733 38.7199C56.8862 38.8226 56.6591 39.2126 56.7572 39.5924C56.8552 39.9774 57.2475 40.2083 57.6346 40.1057Z" fill="#FF192C"/>
<path d="M59.8333 39.5001C60.1998 39.4026 60.4217 39.0279 60.3237 38.6635C60.2256 38.2991 59.8488 38.0784 59.4823 38.1759C59.1158 38.2734 58.8939 38.6481 58.992 39.0125C59.09 39.3769 59.4668 39.5976 59.8333 39.5001Z" fill="#FF192C"/>
<path d="M61.8724 38.2838C61.8828 38.2786 61.888 38.2683 61.888 38.2631C61.8828 38.2527 61.8724 38.2476 61.8672 38.2476C61.8568 38.2527 61.8516 38.2631 61.8516 38.2683C61.8516 38.2786 61.862 38.289 61.8724 38.2838Z" fill="#FF192C"/>
<path d="M45.9028 44.7975C45.9236 44.7924 45.9341 44.7716 45.9288 44.7509C45.9236 44.7301 45.9028 44.7198 45.8819 44.725C45.861 44.7301 45.8506 44.7509 45.8558 44.7716C45.861 44.7924 45.8819 44.8027 45.9028 44.7975Z" fill="#FF192C"/>
<path d="M48.2867 44.9198C48.6945 44.8121 48.9371 44.4015 48.8287 44.0011C48.7203 43.5957 48.3073 43.3544 47.9047 43.4622C47.497 43.57 47.2544 43.9806 47.3627 44.3809C47.466 44.7813 47.8841 45.0225 48.2867 44.9198Z" fill="#FF192C"/>
<path d="M50.5119 44.4015C50.9455 44.2886 51.2087 43.8472 51.0951 43.4109C50.9816 42.9798 50.5377 42.718 50.0989 42.831C49.6654 42.9439 49.4021 43.3853 49.5157 43.8215C49.6292 44.2527 50.0731 44.5144 50.5119 44.4015Z" fill="#FF192C"/>
<path d="M52.7206 43.8418C53.1645 43.7238 53.4329 43.2721 53.3194 42.8307C53.2007 42.3893 52.7464 42.1225 52.3025 42.2354C51.8586 42.3534 51.5902 42.8051 51.7038 43.2465C51.8173 43.693 52.2767 43.9599 52.7206 43.8418Z" fill="#FF192C"/>
<path d="M54.9296 43.2725C55.3735 43.1545 55.6419 42.7028 55.5284 42.2614C55.4096 41.82 54.9554 41.5531 54.5115 41.666C54.0676 41.7841 53.7992 42.2357 53.9128 42.6771C54.0263 43.1237 54.4805 43.3854 54.9296 43.2725Z" fill="#FF192C"/>
<path d="M57.1342 42.6871C57.5729 42.5742 57.8362 42.1277 57.7226 41.6914C57.6091 41.2552 57.16 40.9934 56.7213 41.1063C56.2825 41.2192 56.0193 41.6658 56.1328 42.102C56.2464 42.5383 56.6955 42.8001 57.1342 42.6871Z" fill="#FF192C"/>
<path d="M59.3325 42.0868C59.7609 41.9738 60.0138 41.5427 59.9003 41.1218C59.7867 40.6958 59.3531 40.4444 58.9299 40.5573C58.5015 40.6702 58.2486 41.1013 58.3621 41.5222C58.4705 41.943 58.9092 42.1997 59.3325 42.0868Z" fill="#FF192C"/>
<path d="M61.4185 41.0447C61.5836 41.0036 61.6817 40.8343 61.6404 40.67C61.5991 40.5058 61.4288 40.4083 61.2636 40.4493C61.0984 40.4904 61.0004 40.6597 61.0417 40.824C61.0829 40.9882 61.2533 41.0857 61.4185 41.0447Z" fill="#FF192C"/>
<path d="M45.3715 47.2814C45.3924 47.2762 45.4028 47.2555 45.3976 47.2348C45.3924 47.214 45.3715 47.2037 45.3507 47.2088C45.3298 47.214 45.3194 47.2348 45.3246 47.2555C45.335 47.2711 45.3559 47.2866 45.3715 47.2814Z" fill="#FF192C"/>
<path d="M47.7549 47.3835C48.1524 47.2809 48.3846 46.8806 48.2814 46.4854C48.1782 46.0902 47.7756 45.8592 47.3781 45.9618C46.9807 46.0645 46.7484 46.4648 46.8516 46.86C46.9549 47.2501 47.3626 47.4862 47.7549 47.3835Z" fill="#FF192C"/>
<path d="M50.0008 46.9524C50.4756 46.8292 50.7647 46.3416 50.6356 45.8694C50.5118 45.3972 50.0214 45.1098 49.5465 45.2381C49.0717 45.3613 48.7826 45.8489 48.9116 46.3211C49.0407 46.7933 49.5259 47.0756 50.0008 46.9524Z" fill="#FF192C"/>
<path d="M52.2149 46.4032C52.7052 46.2749 52.9995 45.777 52.8704 45.2894C52.7414 44.8019 52.2407 44.5093 51.7503 44.6376C51.26 44.7659 50.9658 45.2638 51.0948 45.7514C51.2239 46.239 51.7245 46.5315 52.2149 46.4032Z" fill="#FF192C"/>
<path d="M54.4295 45.8489C54.9302 45.7206 55.2295 45.2125 55.1005 44.7146C54.9715 44.2168 54.4605 43.9191 53.9598 44.0474C53.4591 44.1757 53.1597 44.6838 53.2888 45.1817C53.4178 45.6795 53.9288 45.9772 54.4295 45.8489Z" fill="#FF192C"/>
<path d="M56.6333 45.2688C57.1288 45.1405 57.4282 44.6324 57.2992 44.1397C57.1701 43.647 56.6591 43.3493 56.1636 43.4776C55.6681 43.6059 55.3687 44.114 55.4978 44.6067C55.6268 45.1046 56.1378 45.3971 56.6333 45.2688Z" fill="#FF192C"/>
<path d="M58.8326 44.6733C59.3178 44.5501 59.6068 44.0574 59.4778 43.575C59.3539 43.0925 58.8584 42.8051 58.3732 42.9334C57.888 43.0566 57.599 43.5493 57.728 44.0318C57.857 44.5091 58.3526 44.7965 58.8326 44.6733Z" fill="#FF192C"/>
<path d="M60.9488 43.7498C61.2379 43.6728 61.4134 43.3803 61.3359 43.0877C61.2585 42.8003 60.9643 42.6258 60.6701 42.7028C60.381 42.7798 60.2055 43.0723 60.283 43.3649C60.3604 43.6523 60.6598 43.8268 60.9488 43.7498Z" fill="#FF192C"/>
<path d="M44.8799 49.8882C44.9728 49.8625 45.0245 49.7701 45.0038 49.6829C44.978 49.5905 44.8851 49.5391 44.7973 49.5597C44.7044 49.5853 44.6528 49.6777 44.6735 49.765C44.6941 49.8574 44.787 49.9138 44.8799 49.8882Z" fill="#FF192C"/>
<path d="M47.2548 49.9546C47.6987 49.8366 47.9671 49.3849 47.8535 48.9435C47.7348 48.5021 47.2806 48.2352 46.8367 48.3482C46.3928 48.4662 46.1244 48.9179 46.238 49.3593C46.3515 49.8058 46.8109 50.0675 47.2548 49.9546Z" fill="#FF192C"/>
<path d="M49.4897 49.4878C49.9955 49.3544 50.3 48.8411 50.1658 48.3381C50.0316 47.8352 49.5155 47.5323 49.0096 47.6658C48.5038 47.7992 48.1992 48.3125 48.3335 48.8155C48.4677 49.3185 48.9838 49.6213 49.4897 49.4878Z" fill="#FF192C"/>
<path d="M51.7087 48.9593C52.2404 48.8207 52.5552 48.2818 52.421 47.7532C52.2817 47.2245 51.7397 46.9114 51.2081 47.0449C50.6764 47.1835 50.3615 47.7224 50.4957 48.251C50.6351 48.7797 51.1771 49.0979 51.7087 48.9593Z" fill="#FF192C"/>
<path d="M53.9237 48.4153C54.4708 48.2716 54.8012 47.7173 54.6567 47.1732C54.5121 46.6292 53.9547 46.3007 53.4075 46.4444C52.8604 46.5881 52.5301 47.1424 52.6746 47.6865C52.8191 48.2305 53.3766 48.559 53.9237 48.4153Z" fill="#FF192C"/>
<path d="M56.1322 47.8506C56.6845 47.7069 57.0149 47.1474 56.8704 46.5983C56.7258 46.0491 56.1632 45.7206 55.6109 45.8643C55.0586 46.008 54.7283 46.5675 54.8728 47.1166C55.0173 47.6658 55.58 47.9943 56.1322 47.8506Z" fill="#FF192C"/>
<path d="M58.3363 47.2552C58.8783 47.1167 59.2035 46.5624 59.059 46.0286C58.9196 45.4897 58.3621 45.1663 57.8253 45.31C57.2834 45.4486 56.9582 46.0029 57.1027 46.5367C57.2421 47.0756 57.7943 47.399 58.3363 47.2552Z" fill="#FF192C"/>
<path d="M60.4583 46.3722C60.8248 46.2747 61.0467 45.9 60.9487 45.5356C60.8506 45.1712 60.4738 44.9505 60.1073 45.048C59.7408 45.1455 59.5189 45.5202 59.617 45.8846C59.715 46.249 60.0918 46.4697 60.4583 46.3722Z" fill="#FF192C"/>
<path d="M62.4973 45.1417C62.503 45.1417 62.503 45.1361 62.503 45.1361C62.503 45.1304 62.4973 45.1304 62.4973 45.1304C62.4916 45.1304 62.4916 45.1361 62.4916 45.1361C62.4859 45.1417 62.4916 45.1417 62.4973 45.1417Z" fill="#FF192C"/>
<path d="M42.114 52.825C42.1401 52.8198 42.1505 52.7939 42.1453 52.7731C42.1401 52.7472 42.114 52.7368 42.0931 52.742C42.0671 52.7472 42.0566 52.7731 42.0619 52.7939C42.0671 52.8146 42.0931 52.8302 42.114 52.825Z" fill="#FF192C"/>
<path d="M44.4467 52.7211C44.7357 52.6441 44.906 52.3567 44.8286 52.0693C44.7512 51.7819 44.4621 51.6125 44.1731 51.6895C43.884 51.7665 43.7137 52.0539 43.7911 52.3413C43.8634 52.6236 44.1576 52.7981 44.4467 52.7211Z" fill="#FF192C"/>
<path d="M46.7485 52.5055C47.2337 52.3772 47.5279 51.8845 47.3989 51.402C47.2699 50.9196 46.7743 50.627 46.2891 50.7553C45.804 50.8836 45.5097 51.3763 45.6388 51.8588C45.7627 52.3464 46.2582 52.6338 46.7485 52.5055Z" fill="#FF192C"/>
<path d="M48.9738 52.0079C49.5003 51.8693 49.8152 51.3355 49.681 50.812C49.5416 50.2885 49.0048 49.9754 48.4783 50.1089C47.9518 50.2475 47.637 50.7812 47.7712 51.3047C47.9054 51.8334 48.4473 52.1465 48.9738 52.0079Z" fill="#FF192C"/>
<path d="M51.1978 51.4997C51.7604 51.3508 52.1011 50.7811 51.9514 50.2166C51.8017 49.6571 51.2287 49.3184 50.661 49.4672C50.0983 49.6161 49.7577 50.1858 49.9074 50.7503C50.057 51.3098 50.6352 51.6485 51.1978 51.4997Z" fill="#FF192C"/>
<path d="M53.4172 50.9764C54.0108 50.8224 54.3618 50.2219 54.207 49.6317C54.0521 49.0414 53.4482 48.6924 52.8546 48.8464C52.261 49.0004 51.91 49.6009 52.0649 50.1911C52.2197 50.7762 52.8236 51.1304 53.4172 50.9764Z" fill="#FF192C"/>
<path d="M55.6318 50.4221C56.2357 50.2681 56.5919 49.6522 56.437 49.0568C56.2822 48.4563 55.6628 48.1022 55.064 48.2562C54.4601 48.4102 54.104 49.0261 54.2588 49.6214C54.4137 50.2219 55.0279 50.5761 55.6318 50.4221Z" fill="#FF192C"/>
<path d="M57.8357 49.842C58.4344 49.688 58.7906 49.0773 58.6357 48.4819C58.4809 47.8865 57.8666 47.5324 57.2679 47.6864C56.6691 47.8403 56.313 48.4511 56.4678 49.0465C56.6227 49.6419 57.2369 49.996 57.8357 49.842Z" fill="#FF192C"/>
<path d="M59.9313 48.8411C60.2927 48.7488 60.5095 48.3792 60.4165 48.0199C60.3236 47.6607 59.952 47.4451 59.5907 47.5375C59.2294 47.6299 59.0126 47.9994 59.1055 48.3587C59.1984 48.7231 59.57 48.9335 59.9313 48.8411Z" fill="#FF192C"/>
<path d="M39.3734 55.8477C39.3787 55.8477 39.384 55.8372 39.384 55.8319C39.384 55.8266 39.3734 55.8213 39.3681 55.8213C39.3627 55.8213 39.3574 55.8319 39.3574 55.8372C39.3574 55.8425 39.3681 55.8477 39.3734 55.8477Z" fill="#FF192C"/>
<path d="M41.6749 55.6312C41.8814 55.5799 42.0053 55.3695 41.9485 55.1642C41.8969 54.9589 41.6852 54.8357 41.4788 54.8921C41.2723 54.9486 41.1484 55.1539 41.2052 55.3592C41.2568 55.5645 41.4684 55.6825 41.6749 55.6312Z" fill="#FF192C"/>
<path d="M43.9873 55.467C44.4208 55.3541 44.6789 54.9127 44.5654 54.4867C44.4518 54.0556 44.0079 53.799 43.5795 53.9119C43.1459 54.0248 42.8878 54.4662 43.0014 54.8922C43.1149 55.3182 43.5537 55.5799 43.9873 55.467Z" fill="#FF192C"/>
<path d="M46.2227 54.995C46.7131 54.8667 47.0073 54.3688 46.8782 53.8812C46.7492 53.3937 46.2485 53.1011 45.7582 53.2294C45.2678 53.3577 44.9736 53.8556 45.1026 54.3432C45.2317 54.8308 45.7324 55.1233 46.2227 54.995Z" fill="#FF192C"/>
<path d="M48.8035 54.3394C49.2478 54.0072 49.337 53.3797 49.0029 52.938C48.6688 52.4962 48.0377 52.4074 47.5935 52.7397C47.1492 53.072 47.0599 53.6994 47.3941 54.1412C47.7282 54.5829 48.3592 54.6717 48.8035 54.3394Z" fill="#FF192C"/>
<path d="M50.6768 54.0145C51.2601 53.8656 51.6059 53.2703 51.4562 52.6954C51.3066 52.1154 50.7078 51.7716 50.1297 51.9204C49.5464 52.0692 49.2006 52.6646 49.3503 53.2395C49.5051 53.8194 50.0987 54.1633 50.6768 54.0145Z" fill="#FF192C"/>
<path d="M52.9018 53.5063C53.5212 53.3472 53.8928 52.7159 53.7276 52.1C53.5676 51.4841 52.9327 51.1145 52.3133 51.2788C51.6939 51.4379 51.3223 52.0692 51.4875 52.6851C51.6527 53.301 52.2875 53.6654 52.9018 53.5063Z" fill="#FF192C"/>
<path d="M55.1258 52.9831C55.771 52.8138 56.1581 52.1568 55.9878 51.5152C55.8174 50.8737 55.1567 50.4887 54.5115 50.6581C53.8663 50.8275 53.4792 51.4844 53.6495 52.126C53.8199 52.7676 54.4754 53.1474 55.1258 52.9831Z" fill="#FF192C"/>
<path d="M57.3301 52.4133C57.9805 52.2439 58.3676 51.587 58.1973 50.9403C58.027 50.2936 57.3663 49.9086 56.7159 50.078C56.0655 50.2474 55.6784 50.9043 55.8487 51.551C56.0191 52.1977 56.6849 52.5827 57.3301 52.4133Z" fill="#FF192C"/>
<path d="M59.3532 51.1404C59.6113 51.0737 59.7713 50.8068 59.699 50.5501C59.6319 50.2935 59.3635 50.1344 59.1054 50.2063C58.8473 50.273 58.6873 50.5399 58.7596 50.7965C58.8267 51.0531 59.0951 51.2071 59.3532 51.1404Z" fill="#FF192C"/>
<path d="M38.893 58.5109C39.0014 58.4852 39.0634 58.3723 39.0376 58.2645C39.0117 58.1567 38.8982 58.09 38.7898 58.1208C38.6814 58.1465 38.6143 58.2594 38.6453 58.3672C38.6762 58.475 38.7846 58.5365 38.893 58.5109Z" fill="#FF192C"/>
<path d="M41.2201 58.3875C41.5763 58.2952 41.7931 57.9307 41.7002 57.5715C41.6073 57.2173 41.2408 57.0018 40.8795 57.0942C40.5233 57.1865 40.3065 57.5509 40.3994 57.9102C40.4924 58.2644 40.8588 58.4799 41.2201 58.3875Z" fill="#FF192C"/>
<path d="M43.4606 57.9411C43.889 57.8282 44.1471 57.392 44.0336 56.966C43.92 56.54 43.4813 56.2834 43.0529 56.3963C42.6244 56.5092 42.3664 56.9454 42.4799 57.3714C42.5935 57.7974 43.0322 58.0541 43.4606 57.9411Z" fill="#FF192C"/>
<path d="M45.6905 57.4587C46.1705 57.3355 46.4595 56.848 46.3305 56.3706C46.2066 55.8933 45.7163 55.6059 45.2362 55.7342C44.7562 55.8574 44.4672 56.345 44.5962 56.8223C44.7201 57.2996 45.2104 57.5819 45.6905 57.4587Z" fill="#FF192C"/>
<path d="M47.9206 56.9759C48.4523 56.8373 48.7672 56.2984 48.633 55.7698C48.4936 55.2411 47.9516 54.928 47.42 55.0615C46.8883 55.2001 46.5735 55.739 46.7077 56.2676C46.847 56.7963 47.389 57.1145 47.9206 56.9759Z" fill="#FF192C"/>
<path d="M50.1505 56.4935C50.7337 56.3446 51.0796 55.7493 50.9299 55.1744C50.7802 54.5944 50.1814 54.2506 49.6033 54.3994C49.0201 54.5483 48.6742 55.1436 48.8239 55.7185C48.9788 56.2984 49.5724 56.6474 50.1505 56.4935Z" fill="#FF192C"/>
<path d="M52.38 56.0062C53.0098 55.8419 53.3865 55.2055 53.2214 54.5793C53.0562 53.9532 52.4162 53.5785 51.7864 53.7427C51.1567 53.907 50.7799 54.5434 50.9451 55.1696C51.1103 55.7957 51.7555 56.1704 52.38 56.0062Z" fill="#FF192C"/>
<path d="M54.6096 55.5132C55.2806 55.3387 55.6832 54.6561 55.5077 53.9837C55.3322 53.3165 54.6457 52.9162 53.9695 53.0907C53.2985 53.2652 52.8959 53.9478 53.0714 54.6202C53.2469 55.2874 53.9385 55.6877 54.6096 55.5132Z" fill="#FF192C"/>
<path d="M56.7776 54.7899C57.3712 54.6359 57.7222 54.0354 57.5673 53.4452C57.4125 52.8549 56.8085 52.5059 56.215 52.6599C55.6214 52.8139 55.2704 53.4144 55.4252 54.0046C55.5801 54.5948 56.1891 54.9438 56.7776 54.7899Z" fill="#FF192C"/>
<path d="M58.7444 53.3013C58.827 53.2808 58.8735 53.1987 58.8528 53.1165C58.8322 53.0344 58.7496 52.9882 58.667 53.0088C58.5844 53.0293 58.5379 53.1114 58.5586 53.1935C58.5792 53.2705 58.6618 53.3218 58.7444 53.3013Z" fill="#FF192C"/>
<path d="M38.4077 61.1539C38.609 61.1026 38.7277 60.8973 38.6761 60.7022C38.6245 60.502 38.418 60.384 38.2219 60.4353C38.0206 60.4867 37.9018 60.692 37.9535 60.887C38.0051 61.0872 38.2115 61.2052 38.4077 61.1539Z" fill="#FF192C"/>
<path d="M40.6887 60.8613C41.0448 60.7689 41.2565 60.4096 41.1636 60.0555C41.0706 59.7013 40.7093 59.4909 40.3532 59.5833C39.997 59.6756 39.7854 60.0349 39.8783 60.3891C39.9712 60.7432 40.3377 60.9536 40.6887 60.8613Z" fill="#FF192C"/>
<path d="M42.924 60.3788C43.3318 60.271 43.5744 59.8604 43.466 59.4601C43.3576 59.0546 42.9447 58.8134 42.5421 58.9212C42.1395 59.029 41.8917 59.4396 42.0001 59.8399C42.1033 60.2454 42.5163 60.4866 42.924 60.3788Z" fill="#FF192C"/>
<path d="M45.1534 59.8965C45.6076 59.7785 45.8812 59.3166 45.7625 58.8598C45.6437 58.4081 45.1792 58.1361 44.7198 58.2541C44.2656 58.3722 43.992 58.8341 44.1107 59.2909C44.2295 59.7426 44.694 60.0146 45.1534 59.8965Z" fill="#FF192C"/>
<path d="M47.3838 59.4192C47.8948 59.2858 48.1993 58.7674 48.0651 58.2593C47.9309 57.7512 47.4096 57.4483 46.8986 57.5818C46.3876 57.7152 46.083 58.2336 46.2172 58.7417C46.3514 59.2498 46.8727 59.5527 47.3838 59.4192Z" fill="#FF192C"/>
<path d="M49.6185 58.9368C50.1811 58.7931 50.5166 58.2182 50.3669 57.6639C50.2224 57.1045 49.6443 56.7709 49.0868 56.9197C48.5242 57.0634 48.1887 57.6383 48.3384 58.1926C48.4829 58.752 49.0558 59.0856 49.6185 58.9368Z" fill="#FF192C"/>
<path d="M51.8487 58.4545C52.4629 58.2954 52.8242 57.6743 52.6694 57.0636C52.5093 56.4528 51.8848 56.0935 51.2705 56.2475C50.6563 56.4066 50.295 57.0276 50.4498 57.6384C50.6099 58.2492 51.2344 58.6136 51.8487 58.4545Z" fill="#FF192C"/>
<path d="M54.0676 57.936C54.7077 57.7666 55.0948 57.1148 54.9245 56.4784C54.7541 55.842 54.0986 55.457 53.4585 55.6264C52.8185 55.7958 52.4314 56.4476 52.6017 57.084C52.7669 57.7205 53.4276 58.1054 54.0676 57.936Z" fill="#FF192C"/>
<path d="M56.1116 56.7502C56.411 56.6732 56.5917 56.3653 56.5143 56.0676C56.4368 55.7699 56.1271 55.5902 55.8278 55.6672C55.5284 55.7442 55.3477 56.0522 55.4251 56.3499C55.5077 56.6475 55.8123 56.8272 56.1116 56.7502Z" fill="#FF192C"/>
<path d="M58.1828 55.6427C58.1885 55.6427 58.1885 55.637 58.1885 55.637C58.1885 55.6313 58.1828 55.6313 58.1828 55.6313C58.1772 55.6313 58.1772 55.637 58.1772 55.637C58.1715 55.6427 58.1772 55.6427 58.1828 55.6427Z" fill="#FF192C"/>
<path d="M37.8759 63.6023C38.0566 63.5561 38.1598 63.3713 38.1133 63.1968C38.0669 63.0172 37.8811 62.9146 37.7056 62.9607C37.5249 63.0069 37.4217 63.1917 37.4681 63.3662C37.5094 63.5407 37.6952 63.6485 37.8759 63.6023Z" fill="#FF192C"/>
<path d="M40.147 63.2892C40.4722 63.2071 40.6684 62.8735 40.5806 62.5501C40.498 62.2268 40.1625 62.0317 39.8373 62.119C39.5122 62.2011 39.316 62.5347 39.4038 62.8581C39.4915 63.1814 39.827 63.3713 40.147 63.2892Z" fill="#FF192C"/>
<path d="M42.382 62.8065C42.7588 62.709 42.9807 62.3292 42.8826 61.9545C42.7846 61.5798 42.4026 61.3591 42.0258 61.4566C41.649 61.5542 41.4271 61.934 41.5251 62.3086C41.6232 62.6782 42.0052 62.904 42.382 62.8065Z" fill="#FF192C"/>
<path d="M44.6118 62.3241C45.0402 62.2111 45.2931 61.78 45.1796 61.3591C45.066 60.9331 44.6324 60.6817 44.2092 60.7946C43.7808 60.9075 43.5278 61.3386 43.6414 61.7595C43.7498 62.1803 44.1834 62.437 44.6118 62.3241Z" fill="#FF192C"/>
<path d="M46.8416 61.8415C47.3164 61.7184 47.6055 61.2308 47.4765 60.7586C47.3526 60.2864 46.8622 59.999 46.3873 60.1273C45.9125 60.2505 45.6234 60.7381 45.7525 61.2102C45.8763 61.6824 46.3667 61.9647 46.8416 61.8415Z" fill="#FF192C"/>
<path d="M49.0715 61.3595C49.598 61.2209 49.9128 60.6871 49.7786 60.1636C49.6393 59.6401 49.1024 59.327 48.576 59.4604C48.0495 59.599 47.7346 60.1328 47.8688 60.6563C48.0082 61.185 48.545 61.498 49.0715 61.3595Z" fill="#FF192C"/>
<path d="M51.3065 60.8768C51.8846 60.7279 52.2304 60.1377 52.0807 59.5629C51.931 58.988 51.3374 58.6441 50.7593 58.793C50.1812 58.9418 49.8354 59.5321 49.9851 60.1069C50.1348 60.6817 50.7284 61.0256 51.3065 60.8768Z" fill="#FF192C"/>
<path d="M53.4229 59.9734C53.8203 59.8707 54.0526 59.4704 53.9494 59.0752C53.8461 58.68 53.4435 58.449 53.0461 58.5517C52.6486 58.6543 52.4164 59.0547 52.5196 59.4499C52.628 59.8399 53.0306 60.076 53.4229 59.9734Z" fill="#FF192C"/>
<path d="M55.4565 58.7367C55.4823 58.7316 55.4978 58.7008 55.4926 58.6751C55.4875 58.6494 55.4565 58.634 55.4307 58.6392C55.4049 58.6443 55.3894 58.6751 55.3945 58.7008C55.4049 58.7315 55.4307 58.747 55.4565 58.7367Z" fill="#FF192C"/>
<path d="M37.2924 65.8707C37.3543 65.8553 37.3904 65.7937 37.3749 65.7322C37.3595 65.6706 37.2975 65.6346 37.2356 65.65C37.1736 65.6654 37.1375 65.727 37.153 65.7886C37.1685 65.8502 37.2304 65.8861 37.2924 65.8707Z" fill="#FF192C"/>
<path d="M39.6051 65.7063C39.8941 65.6294 40.0696 65.3368 39.9922 65.0443C39.9148 64.7568 39.6205 64.5823 39.3263 64.6593C39.0373 64.7363 38.8618 65.0289 38.9392 65.3214C39.0166 65.6088 39.316 65.7833 39.6051 65.7063Z" fill="#FF192C"/>
<path d="M41.8398 65.2239C42.1804 65.1367 42.3869 64.7877 42.294 64.4489C42.2063 64.1102 41.8553 63.9049 41.5146 63.9973C41.1739 64.0845 40.9675 64.4335 41.0604 64.7723C41.1481 65.111 41.4939 65.3163 41.8398 65.2239Z" fill="#FF192C"/>
<path d="M44.0645 64.7365C44.4517 64.6338 44.6839 64.2386 44.5859 63.8537C44.4826 63.4688 44.0852 63.2378 43.6981 63.3353C43.3109 63.438 43.0787 63.8332 43.1767 64.2181C43.28 64.6082 43.6774 64.8391 44.0645 64.7365Z" fill="#FF192C"/>
<path d="M46.2992 64.254C46.738 64.1411 47.0012 63.6946 46.8877 63.2583C46.7741 62.8221 46.3251 62.5603 45.8863 62.6732C45.4476 62.7861 45.1843 63.2327 45.2979 63.6689C45.4114 64.1103 45.8605 64.3721 46.2992 64.254Z" fill="#FF192C"/>
<path d="M48.5298 63.7662C49.015 63.6379 49.3092 63.1452 49.1802 62.6627C49.0511 62.1803 48.5556 61.8877 48.0704 62.0161C47.5852 62.1444 47.291 62.6371 47.42 63.1195C47.5439 63.602 48.0394 63.8945 48.5298 63.7662Z" fill="#FF192C"/>
<path d="M50.7492 63.2429C51.2654 63.1095 51.5699 62.586 51.4357 62.0779C51.3015 61.5646 50.7751 61.2618 50.264 61.3952C49.7479 61.5287 49.4433 62.0522 49.5776 62.5603C49.7066 63.0684 50.2331 63.3764 50.7492 63.2429Z" fill="#FF192C"/>
<path d="M52.7723 61.97C52.8962 61.9392 52.9736 61.8109 52.9375 61.6878C52.9065 61.5646 52.7775 61.4876 52.6536 61.5235C52.5297 61.5543 52.4523 61.6826 52.4884 61.8058C52.5194 61.929 52.6433 62.0008 52.7723 61.97Z" fill="#FF192C"/>
<path d="M39.0215 67.9753C39.1918 67.9291 39.2951 67.7546 39.2538 67.5852C39.2125 67.4158 39.0318 67.3132 38.8615 67.3543C38.6911 67.4004 38.5879 67.5749 38.6292 67.7443C38.6757 67.9188 38.8512 68.0215 39.0215 67.9753Z" fill="#FF192C"/>
<path d="M41.2933 67.6364C41.5927 67.5594 41.7733 67.2515 41.6959 66.9538C41.6185 66.6561 41.3088 66.4765 41.0094 66.5535C40.71 66.6305 40.5294 66.9384 40.6068 67.2361C40.6842 67.5338 40.9888 67.7134 41.2933 67.6364Z" fill="#FF192C"/>
<path d="M43.5229 67.1486C43.8687 67.0562 44.0803 66.7021 43.9874 66.3582C43.8945 66.0143 43.5383 65.8039 43.1925 65.8963C42.8467 65.9887 42.6351 66.3428 42.728 66.6867C42.8157 67.0306 43.1719 67.2359 43.5229 67.1486Z" fill="#FF192C"/>
<path d="M45.753 66.656C46.1504 66.5534 46.3827 66.153 46.2795 65.7578C46.1762 65.3626 45.7736 65.1317 45.3762 65.2343C44.9787 65.337 44.7464 65.7373 44.8497 66.1325C44.9529 66.5277 45.3555 66.7587 45.753 66.656Z" fill="#FF192C"/>
<path d="M47.977 66.1632C48.4157 66.0503 48.679 65.6038 48.5654 65.1675C48.4519 64.7312 48.0028 64.4695 47.564 64.5824C47.1253 64.6953 46.8621 65.1418 46.9756 65.5781C47.0892 66.0144 47.5382 66.2761 47.977 66.1632Z" fill="#FF192C"/>
<path d="M50.2016 65.6499C50.6764 65.5267 50.9603 65.0442 50.8365 64.5772C50.7126 64.105 50.2274 63.8227 49.7577 63.9459C49.2828 64.069 48.9989 64.5515 49.1228 65.0186C49.2415 65.4907 49.7267 65.773 50.2016 65.6499Z" fill="#FF192C"/>
<path d="M52.2095 64.3207C52.2611 64.3053 52.2973 64.254 52.2818 64.1975C52.2663 64.1462 52.2147 64.1103 52.1579 64.1257C52.1063 64.1411 52.0702 64.1924 52.0856 64.2488C52.1011 64.3053 52.1579 64.3361 52.2095 64.3207Z" fill="#FF192C"/>
<path d="M38.4183 70.1671C38.4287 70.1619 38.4339 70.1516 38.4339 70.1464C38.4287 70.136 38.4183 70.1309 38.4131 70.1309C38.4027 70.136 38.3975 70.1464 38.3975 70.1516C38.4027 70.1619 38.4131 70.1671 38.4183 70.1671Z" fill="#FF192C"/>
<path d="M40.7403 70.0332C40.9932 69.9665 41.148 69.7098 41.0809 69.4583C41.0138 69.2068 40.7557 69.0529 40.5028 69.1196C40.2499 69.1863 40.0951 69.4429 40.1622 69.6944C40.2293 69.9459 40.4873 70.0948 40.7403 70.0332Z" fill="#FF192C"/>
<path d="M42.9755 69.5507C43.28 69.4737 43.4607 69.1607 43.3832 68.8578C43.3058 68.555 42.991 68.3754 42.6864 68.4524C42.3819 68.5294 42.2012 68.8424 42.2786 69.1453C42.3561 69.4481 42.6709 69.6277 42.9755 69.5507Z" fill="#FF192C"/>
<path d="M45.2006 69.0529C45.5464 68.9605 45.758 68.6064 45.6651 68.2625C45.5722 67.9186 45.2161 67.7082 44.8702 67.8006C44.5244 67.893 44.3128 68.2471 44.4057 68.591C44.4986 68.94 44.8548 69.1453 45.2006 69.0529Z" fill="#FF192C"/>
<path d="M47.4298 68.5548C47.8169 68.4522 48.0492 68.057 47.9511 67.672C47.8479 67.2871 47.4504 67.0562 47.0633 67.1537C46.6762 67.2512 46.4439 67.6515 46.542 68.0365C46.64 68.4214 47.0375 68.6524 47.4298 68.5548Z" fill="#FF192C"/>
<path d="M49.655 68.052C50.0834 67.9391 50.3415 67.5028 50.2279 67.0768C50.1143 66.6508 49.6756 66.3942 49.2472 66.5071C48.8188 66.62 48.5607 67.0563 48.6743 67.4823C48.7878 67.9083 49.2265 68.1649 49.655 68.052Z" fill="#FF192C"/>
<path d="M51.7349 67.0051C51.9 66.9641 51.9981 66.7947 51.9568 66.6305C51.9155 66.4662 51.7452 66.3687 51.58 66.4098C51.4148 66.4508 51.3168 66.6202 51.3581 66.7844C51.3994 66.9487 51.5697 67.0462 51.7349 67.0051Z" fill="#FF192C"/>
<path d="M40.1369 72.2092C40.2195 72.1887 40.2711 72.1014 40.2505 72.0193C40.2298 71.9372 40.1421 71.8859 40.0595 71.9064C39.9769 71.9269 39.9253 72.0142 39.946 72.0963C39.9666 72.1784 40.0492 72.2297 40.1369 72.2092Z" fill="#FF192C"/>
<path d="M42.4234 71.9426C42.6815 71.8759 42.8363 71.6141 42.7692 71.3575C42.7021 71.1009 42.4389 70.9469 42.1808 71.0136C41.9227 71.0803 41.7679 71.3421 41.835 71.5987C41.9073 71.8605 42.1653 72.0093 42.4234 71.9426Z" fill="#FF192C"/>
<path d="M44.6527 71.4444C44.9521 71.3674 45.1276 71.0646 45.0502 70.7669C44.9727 70.4692 44.6682 70.2947 44.3688 70.3717C44.0695 70.4487 43.894 70.7515 43.9714 71.0492C44.0488 71.3469 44.3534 71.5214 44.6527 71.4444Z" fill="#FF192C"/>
<path d="M46.8775 70.9418C47.213 70.8546 47.4194 70.5107 47.3317 70.172C47.2439 69.8383 46.8981 69.633 46.5574 69.7203C46.2219 69.8075 46.0155 70.1514 46.1032 70.4902C46.191 70.8289 46.5368 71.0342 46.8775 70.9418Z" fill="#FF192C"/>
<path d="M49.1029 70.4438C49.4797 70.3463 49.7068 69.9614 49.6087 69.5867C49.5106 69.212 49.1235 68.9862 48.7416 69.0837C48.3648 69.1812 48.1376 69.5662 48.2357 69.946C48.3389 70.3155 48.7261 70.5414 49.1029 70.4438Z" fill="#FF192C"/>
<path d="M51.2964 69.8072C51.6422 69.7199 51.8487 69.3658 51.7558 69.0219C51.668 68.678 51.3119 68.4727 50.966 68.5651C50.6202 68.6575 50.4137 69.0065 50.5066 69.3504C50.5995 69.6943 50.9505 69.8996 51.2964 69.8072Z" fill="#FF192C"/>
<path d="M53.3408 68.6231C53.3466 68.6231 53.3466 68.6172 53.3466 68.6172C53.3466 68.6113 53.3408 68.6113 53.3408 68.6113C53.335 68.6113 53.335 68.6172 53.335 68.6172C53.335 68.6231 53.335 68.6231 53.3408 68.6231Z" fill="#FF192C"/>
<path d="M41.8194 74.1289C41.9123 74.1032 41.9639 74.0108 41.9433 73.9236C41.9175 73.8312 41.8245 73.7799 41.7368 73.8004C41.6439 73.8261 41.5923 73.9184 41.6129 74.0057C41.6336 74.0981 41.7265 74.1494 41.8194 74.1289Z" fill="#FF192C"/>
<path d="M44.0443 73.6207C44.1734 73.5847 44.2508 73.4564 44.2146 73.3281C44.1785 73.1998 44.0495 73.1228 43.9204 73.1587C43.7914 73.1947 43.714 73.323 43.7501 73.4513C43.7862 73.5796 43.9153 73.6566 44.0443 73.6207Z" fill="#FF192C"/>
<path d="M46.2584 73.0715C46.403 73.0355 46.4856 72.8918 46.4494 72.7481C46.4133 72.6044 46.2688 72.5223 46.1242 72.5582C45.9797 72.5941 45.8971 72.7379 45.9333 72.8816C45.9694 73.0253 46.1139 73.1074 46.2584 73.0715Z" fill="#FF192C"/>
<path d="M48.4674 72.5072C48.6119 72.4713 48.6997 72.3224 48.6635 72.1787C48.6274 72.035 48.4777 71.9477 48.3332 71.9837C48.1887 72.0196 48.1009 72.1684 48.137 72.3121C48.1732 72.4559 48.3229 72.5431 48.4674 72.5072Z" fill="#FF192C"/>
<path d="M50.6564 71.8605C50.7596 71.8348 50.8215 71.727 50.7957 71.6244C50.7699 71.5217 50.6615 71.4601 50.5583 71.4858C50.4551 71.5115 50.3931 71.6192 50.4189 71.7219C50.4396 71.8245 50.548 71.8861 50.6564 71.8605Z" fill="#FF192C"/>
<path d="M52.8138 71.1163C52.8242 71.1111 52.8294 71.1008 52.8294 71.0956C52.8242 71.0853 52.8138 71.0801 52.8086 71.0801C52.7982 71.0853 52.793 71.0956 52.793 71.1008C52.793 71.1111 52.8034 71.1163 52.8138 71.1163Z" fill="#FF192C"/>
<path d="M45.1385 77.7843C45.1442 77.7843 45.1442 77.7786 45.1442 77.7786C45.1442 77.7729 45.1385 77.7729 45.1385 77.7729C45.1328 77.7729 45.1328 77.7786 45.1328 77.7786C45.1328 77.7843 45.1328 77.79 45.1385 77.7843Z" fill="#FF192C"/>
<path d="M47.348 77.2193C47.3533 77.2193 47.3587 77.2087 47.3587 77.2034C47.3587 77.1982 47.348 77.1929 47.3427 77.1929C47.3374 77.1929 47.332 77.2035 47.332 77.2087C47.332 77.214 47.3427 77.2193 47.348 77.2193Z" fill="#FF192C"/>
<path d="M42.4083 80.858C42.4239 80.8528 42.4291 80.8424 42.4239 80.8269C42.4187 80.8113 42.4083 80.8062 42.3926 80.8062C42.377 80.8113 42.3717 80.8217 42.377 80.8373C42.3822 80.8528 42.3978 80.8632 42.4083 80.858Z" fill="#FF192C"/>
<path d="M44.6477 80.4109C44.7303 80.3903 44.7819 80.3031 44.7612 80.221C44.7406 80.1388 44.6528 80.0875 44.5703 80.108C44.4877 80.1286 44.4361 80.2158 44.4567 80.2979C44.4773 80.3852 44.5651 80.4365 44.6477 80.4109Z" fill="#FF192C"/>
<path d="M46.8829 79.9389C47.0223 79.903 47.1049 79.7644 47.0687 79.6258C47.0326 79.4872 46.8932 79.4051 46.7539 79.441C46.6145 79.477 46.5319 79.6156 46.5681 79.7541C46.6042 79.8927 46.7435 79.9748 46.8829 79.9389Z" fill="#FF192C"/>
<path d="M49.1028 79.405C49.2628 79.364 49.3608 79.1997 49.3196 79.0355C49.2783 78.8764 49.1131 78.7789 48.9479 78.8199C48.7879 78.861 48.6898 79.0252 48.7311 79.1895C48.7724 79.3537 48.9376 79.4461 49.1028 79.405Z" fill="#FF192C"/>
<path d="M51.2914 78.774C51.4204 78.7381 51.4978 78.6097 51.4617 78.4814C51.4256 78.3531 51.2965 78.2761 51.1675 78.3121C51.0385 78.348 50.961 78.4763 50.9972 78.6046C51.0333 78.7278 51.1623 78.8048 51.2914 78.774Z" fill="#FF192C"/>
<path d="M53.4487 78.0046C53.4695 77.9994 53.48 77.9786 53.4747 77.9579C53.4695 77.9372 53.4487 77.9268 53.4278 77.932C53.4069 77.9372 53.3965 77.9579 53.4017 77.9787C53.4069 77.9994 53.4278 78.0098 53.4487 78.0046Z" fill="#FF192C"/>
<path d="M41.8865 83.3474C41.9021 83.3423 41.9126 83.3267 41.9074 83.3111C41.9022 83.2956 41.8865 83.2852 41.8709 83.2904C41.8552 83.2956 41.8448 83.3111 41.85 83.3267C41.85 83.3423 41.8656 83.3526 41.8865 83.3474Z" fill="#FF192C"/>
<path d="M44.1161 82.8643C44.1832 82.8489 44.2245 82.7771 44.209 82.7104C44.1935 82.6436 44.1213 82.6026 44.0542 82.618C43.9871 82.6334 43.9458 82.7052 43.9613 82.772C43.9767 82.8387 44.049 82.8797 44.1161 82.8643Z" fill="#FF192C"/>
<path d="M46.3361 82.351C46.4394 82.3254 46.4961 82.2227 46.4703 82.1201C46.4445 82.0174 46.3413 81.961 46.2381 81.9866C46.1348 82.0123 46.078 82.1149 46.1039 82.2176C46.1297 82.3202 46.2381 82.3767 46.3361 82.351Z" fill="#FF192C"/>
<path d="M48.5602 81.8327C48.6944 81.7968 48.7718 81.6633 48.7357 81.535C48.6996 81.4067 48.5654 81.3246 48.4363 81.3605C48.3021 81.3965 48.2247 81.5299 48.2608 81.6582C48.2918 81.7865 48.426 81.8686 48.5602 81.8327Z" fill="#FF192C"/>
<path d="M50.7803 81.3094C50.9403 81.2684 51.0332 81.1041 50.9919 80.9501C50.9506 80.791 50.7854 80.6987 50.6306 80.7397C50.4706 80.7808 50.3777 80.945 50.419 81.099C50.4603 81.253 50.6203 81.3505 50.7803 81.3094Z" fill="#FF192C"/>
<path d="M52.9941 80.7703C53.1747 80.7241 53.278 80.5393 53.2315 80.3648C53.185 80.1852 52.9992 80.0825 52.8237 80.1287C52.6431 80.1749 52.5398 80.3597 52.5863 80.5342C52.6327 80.7087 52.8186 80.8165 52.9941 80.7703Z" fill="#FF192C"/>
<path d="M55.1469 79.985C55.2088 79.9696 55.2449 79.908 55.2294 79.8464C55.214 79.7848 55.152 79.7489 55.0901 79.7643C55.0281 79.7797 54.992 79.8413 55.0075 79.9029C55.023 79.9645 55.0849 80.0004 55.1469 79.985Z" fill="#FF192C"/>
<path d="M43.5645 85.2467C43.5801 85.2415 43.5854 85.2311 43.5801 85.2156C43.5749 85.2 43.5645 85.1948 43.5489 85.1948C43.5332 85.2 43.528 85.2104 43.5332 85.2259C43.5332 85.2415 43.5489 85.2519 43.5645 85.2467Z" fill="#FF192C"/>
<path d="M45.7832 84.7273C45.8297 84.717 45.8555 84.6708 45.84 84.6298C45.8297 84.5836 45.7832 84.5579 45.7419 84.5733C45.6955 84.5836 45.6697 84.6298 45.6852 84.6708C45.6955 84.7119 45.7419 84.7427 45.7832 84.7273Z" fill="#FF192C"/>
<path d="M48.0034 84.2093C48.0756 84.1888 48.1221 84.1169 48.1015 84.0399C48.0808 83.9681 48.0085 83.9219 47.9311 83.9424C47.8589 83.9629 47.8124 84.0348 47.8331 84.1118C47.8537 84.1836 47.9311 84.2298 48.0034 84.2093Z" fill="#FF192C"/>
<path d="M50.2277 83.6855C50.331 83.6598 50.3877 83.5572 50.3619 83.4545C50.3361 83.3519 50.2329 83.2954 50.1297 83.3211C50.0264 83.3468 49.9696 83.4494 49.9955 83.5521C50.0213 83.6496 50.1245 83.7112 50.2277 83.6855Z" fill="#FF192C"/>
<path d="M52.4422 83.157C52.5661 83.1263 52.6435 82.9979 52.6074 82.8748C52.5764 82.7516 52.4474 82.6746 52.3235 82.7105C52.1996 82.7413 52.1222 82.8696 52.1583 82.9928C52.1893 83.1109 52.3183 83.1878 52.4422 83.157Z" fill="#FF192C"/>
<path d="M54.6617 82.618C54.8062 82.5821 54.894 82.4333 54.8579 82.2895C54.8217 82.1458 54.672 82.0586 54.5275 82.0945C54.383 82.1304 54.2952 82.2793 54.3314 82.423C54.3675 82.5667 54.5172 82.6539 54.6617 82.618Z" fill="#FF192C"/>
<path d="M56.8144 81.8481C56.8505 81.8379 56.8763 81.8019 56.866 81.766C56.8557 81.7301 56.8195 81.7044 56.7834 81.7147C56.7473 81.7249 56.7215 81.7609 56.7318 81.7968C56.7421 81.8379 56.7782 81.8584 56.8144 81.8481Z" fill="#FF192C"/>
<path d="M45.2371 87.1415C45.2428 87.1415 45.2428 87.1359 45.2428 87.1302C45.2428 87.1245 45.2371 87.1245 45.2371 87.1245C45.2314 87.1245 45.2314 87.1302 45.2314 87.1302C45.2314 87.1359 45.2371 87.1415 45.2371 87.1415Z" fill="#FF192C"/>
<path d="M47.451 86.5911C47.4666 86.5859 47.477 86.5704 47.4718 86.5548C47.4666 86.5392 47.451 86.5289 47.4353 86.5341C47.4197 86.5392 47.4092 86.5548 47.4144 86.5704C47.4197 86.5807 47.4353 86.5911 47.451 86.5911Z" fill="#FF192C"/>
<path d="M49.67 86.0618C49.7164 86.0515 49.7422 86.0053 49.7267 85.9643C49.7164 85.9181 49.67 85.8924 49.6287 85.9078C49.5822 85.9181 49.5564 85.9642 49.5719 86.0053C49.5822 86.0464 49.6287 86.072 49.67 86.0618Z" fill="#FF192C"/>
<path d="M51.89 85.5282C51.9519 85.5128 51.9932 85.446 51.9777 85.3844C51.9622 85.3229 51.8951 85.2818 51.8332 85.2972C51.7713 85.3126 51.73 85.3793 51.7455 85.4409C51.7609 85.5025 51.8229 85.5436 51.89 85.5282Z" fill="#FF192C"/>
<path d="M54.1043 84.9946C54.192 84.9741 54.2436 84.8817 54.223 84.7944C54.2023 84.7072 54.1094 84.6559 54.0217 84.6764C53.9339 84.6969 53.8823 84.7893 53.903 84.8765C53.9288 84.9638 54.0165 85.0203 54.1043 84.9946Z" fill="#FF192C"/>
<path d="M56.3137 84.4143C56.3963 84.3937 56.4479 84.3065 56.4272 84.2244C56.4066 84.1423 56.3189 84.0909 56.2363 84.1115C56.1537 84.132 56.1021 84.2192 56.1227 84.3014C56.1434 84.3886 56.2259 84.4399 56.3137 84.4143Z" fill="#FF192C"/>
<path d="M51.3372 87.9098C51.3476 87.9046 51.3529 87.8942 51.3529 87.8891C51.3477 87.8787 51.3372 87.8735 51.332 87.8735C51.3216 87.8787 51.3164 87.8891 51.3164 87.8942C51.3164 87.9046 51.3268 87.9149 51.3372 87.9098Z" fill="#FF192C"/>
<path d="M53.5515 87.371C53.5825 87.3607 53.5979 87.3299 53.5928 87.3042C53.5825 87.2734 53.5515 87.258 53.5257 87.2632C53.4947 87.2734 53.4792 87.3042 53.4844 87.3299C53.4895 87.3607 53.5205 87.3812 53.5515 87.371Z" fill="#FF192C"/>
<path d="M55.7657 86.8321C55.8122 86.8218 55.8432 86.7705 55.8277 86.7243C55.8174 86.6781 55.7657 86.6473 55.7193 86.6627C55.6728 86.673 55.6419 86.7243 55.6573 86.7705C55.6728 86.8167 55.7193 86.8423 55.7657 86.8321Z" fill="#FF192C"/>
<path d="M57.9544 86.1905C57.9648 86.1854 57.97 86.175 57.97 86.1698C57.9648 86.1595 57.9544 86.1543 57.9492 86.1543C57.9388 86.1595 57.9336 86.1698 57.9336 86.175C57.9336 86.1854 57.944 86.1905 57.9544 86.1905Z" fill="#FF192C"/>
<path d="M55.2197 89.2354C55.2255 89.2354 55.2255 89.2295 55.2255 89.2295C55.2255 89.2236 55.2197 89.2236 55.2197 89.2236C55.2139 89.2236 55.2139 89.2295 55.2139 89.2295C55.2139 89.2295 55.2139 89.2354 55.2197 89.2354Z" fill="#FF192C"/>
<path d="M57.4289 88.6603C57.4346 88.6603 57.4346 88.6546 57.4346 88.6546C57.4346 88.6489 57.4289 88.6489 57.4289 88.6489C57.4233 88.6489 57.4233 88.6546 57.4233 88.6546C57.4176 88.6603 57.4233 88.6603 57.4289 88.6603Z" fill="#FF192C"/>
<path d="M25.0957 27.8541C31.8007 40.6853 28.776 36.4664 39.027 34.3672C48.6896 32.3912 52.9531 39.8077 48.7618 45.6536C45.0403 50.8374 39.1663 51.3763 35.45 56.0931C33.4059 58.6902 34.015 61.0973 34.3196 69.0989C55.2913 71.1416 38.614 66.625 52.055 58.4643C82.8235 39.7871 52.6743 9.10505 25.0957 27.8541Z" fill="#FF192C"/>
<path d="M31.6615 80.3799C30.6911 90.2395 45.985 91.6458 46.9502 81.8684C47.9103 72.1217 32.6318 70.5512 31.6615 80.3799Z" fill="#FF192C"/>
<path d="M22.4785 29.8299C30.412 41.9477 26.9846 38.047 36.9827 34.9624C46.4079 32.0625 51.3785 39.0273 47.7809 45.2479C44.5858 50.7705 38.7945 51.874 35.5581 56.9295C33.7773 59.7113 34.6187 62.0517 35.7078 69.9814C56.7776 69.9814 39.739 67.1073 52.3128 57.6788C81.1044 36.1018 48.0854 8.49407 22.4785 29.8299Z" fill="white"/>
<path d="M34.1641 81.4682C34.1641 91.3739 49.5251 91.2918 49.5251 81.4682C49.5251 71.6754 34.1641 71.5933 34.1641 81.4682Z" fill="white"/>
<path d="M67.2099 53.9475C66.3944 53.9475 65.7285 53.2854 65.7285 52.4745C65.7285 51.6636 66.3944 51.0015 67.2099 51.0015C68.0254 51.0015 68.6913 51.6636 68.6913 52.4745C68.6965 53.2854 68.0306 53.9475 67.2099 53.9475ZM67.2099 51.371C66.6008 51.371 66.1053 51.8637 66.1053 52.4694C66.1053 53.075 66.6008 53.5677 67.2099 53.5677C67.819 53.5677 68.3145 53.075 68.3145 52.4694C68.3145 51.8637 67.819 51.371 67.2099 51.371Z" fill="#FFB900"/>
<path d="M18.0709 38.2269C16.6205 38.2269 15.4385 37.0515 15.4385 35.6093C15.4385 34.167 16.6205 32.9917 18.0709 32.9917C19.5213 32.9917 20.7034 34.167 20.7034 35.6093C20.7034 37.0515 19.5213 38.2269 18.0709 38.2269ZM18.0709 33.3715C16.827 33.3715 15.8204 34.3775 15.8204 35.6093C15.8204 36.8462 16.8321 37.847 18.0709 37.847C19.3149 37.847 20.3214 36.8411 20.3214 35.6093C20.3214 34.3775 19.3097 33.3715 18.0709 33.3715Z" fill="#FFB900"/>
<path d="M23.6712 56.0878C23.3305 56.0878 23.0518 55.8106 23.0518 55.4719C23.0518 55.1331 23.3305 54.856 23.6712 54.856C24.0118 54.856 24.2906 55.1331 24.2906 55.4719C24.2957 55.8106 24.017 56.0878 23.6712 56.0878ZM23.6712 55.2306C23.537 55.2306 23.4286 55.3384 23.4286 55.4719C23.4286 55.6053 23.537 55.7131 23.6712 55.7131C23.8054 55.7131 23.9138 55.6053 23.9138 55.4719C23.9138 55.3384 23.8054 55.2306 23.6712 55.2306Z" fill="#FFB900"/>
<path d="M67.1425 73.6618C65.9656 73.6618 65.0107 72.7123 65.0107 71.5421C65.0107 70.3719 65.9656 69.4224 67.1425 69.4224C68.3194 69.4224 69.2743 70.3719 69.2743 71.5421C69.2691 72.7123 68.3142 73.6618 67.1425 73.6618ZM67.1425 69.8073C66.1773 69.8073 65.3927 70.5874 65.3927 71.5472C65.3927 72.507 66.1773 73.2871 67.1425 73.2871C68.1077 73.2871 68.8923 72.507 68.8923 71.5472C68.8923 70.5874 68.1026 69.8073 67.1425 69.8073Z" fill="#FFB900"/>
<path d="M56.7209 80.0927C55.9828 80.0927 55.3789 79.4974 55.3789 78.7583C55.3789 78.0243 55.9777 77.4238 56.7209 77.4238C57.459 77.4238 58.063 78.0192 58.063 78.7583C58.063 79.4974 57.459 80.0927 56.7209 80.0927ZM56.7209 77.8088C56.1893 77.8088 55.7609 78.2348 55.7609 78.7634C55.7609 79.2921 56.1893 79.7181 56.7209 79.7181C57.2526 79.7181 57.681 79.2921 57.681 78.7634C57.681 78.2348 57.2526 77.8088 56.7209 77.8088Z" fill="#FFB900"/>
<path d="M20.7294 82.8798C19.8726 82.8798 19.1758 82.1869 19.1758 81.3349C19.1758 80.4829 19.8726 79.79 20.7294 79.79C21.5863 79.79 22.2831 80.4829 22.2831 81.3349C22.2831 82.1869 21.5863 82.8798 20.7294 82.8798ZM20.7294 80.1647C20.0791 80.1647 19.5526 80.6882 19.5526 81.3349C19.5526 81.9816 20.0791 82.5051 20.7294 82.5051C21.3798 82.5051 21.9063 81.9816 21.9063 81.3349C21.9011 80.6882 21.3746 80.1647 20.7294 80.1647Z" fill="#FFB900"/>
<path d="M50.1868 15.0794C49.7274 15.0794 49.3506 14.7048 49.3506 14.248C49.3506 13.7912 49.7274 13.4165 50.1868 13.4165C50.6462 13.4165 51.023 13.7912 51.023 14.248C51.023 14.7099 50.6462 15.0794 50.1868 15.0794ZM50.1868 13.7963C49.9339 13.7963 49.7325 14.0016 49.7325 14.248C49.7325 14.4995 49.939 14.6996 50.1868 14.6996C50.4397 14.6996 50.641 14.4943 50.641 14.248C50.641 14.0016 50.4345 13.7963 50.1868 13.7963Z" fill="#FFB900"/>
<path d="M40.4824 19.2263C39.6668 19.2263 39.001 18.5642 39.001 17.7533C39.001 16.9424 39.6668 16.2803 40.4824 16.2803C41.2979 16.2803 41.9638 16.9424 41.9638 17.7533C41.9689 18.5642 41.3031 19.2263 40.4824 19.2263ZM40.4824 16.6549C39.8733 16.6549 39.3778 17.1477 39.3778 17.7533C39.3778 18.3589 39.8733 18.8517 40.4824 18.8517C41.0914 18.8517 41.587 18.3589 41.587 17.7533C41.587 17.1425 41.0914 16.6549 40.4824 16.6549Z" fill="#FFB900"/>
<path d="M78.0954 17.9122C78.6373 17.9122 79.1122 17.6145 79.3651 17.1783C79.6181 17.6197 80.0878 17.9122 80.6349 17.9122C81.1769 17.9122 81.6517 17.6145 81.8995 17.1783C82.1524 17.6197 82.6221 17.9122 83.1641 17.9122C83.9693 17.9122 84.6197 17.2604 84.6197 16.4648H84.2377C84.2377 17.0551 83.7525 17.5375 83.1589 17.5375C82.5653 17.5375 82.0802 17.0551 82.0802 16.4648H81.6982C81.6982 17.0551 81.213 17.5375 80.6194 17.5375C80.0258 17.5375 79.5406 17.0551 79.5406 16.4648H79.1587C79.1587 17.0551 78.6735 17.5375 78.0799 17.5375C77.4863 17.5375 77.0011 17.0551 77.0011 16.4648H76.6191C76.6346 17.2655 77.2902 17.9122 78.0954 17.9122Z" fill="#FF192C"/>
<path d="M17.5858 67.7388C17.0439 67.7388 16.569 68.0365 16.3161 68.4727C16.0632 68.0313 15.5934 67.7388 15.0463 67.7388C14.5043 67.7388 14.0295 68.0365 13.7817 68.4727C13.5288 68.0313 13.0591 67.7388 12.5171 67.7388C11.7119 67.7388 11.0615 68.3906 11.0615 69.1861H11.4435C11.4435 68.5959 11.9287 68.1134 12.5223 68.1134C13.1159 68.1134 13.6011 68.5959 13.6011 69.1861H13.983C13.983 68.5959 14.4682 68.1134 15.0618 68.1134C15.6554 68.1134 16.1406 68.5959 16.1406 69.1861H16.5225C16.5225 68.5959 17.0077 68.1134 17.6013 68.1134C18.1949 68.1134 18.6801 68.5959 18.6801 69.1861H19.0621C19.0414 68.3906 18.3911 67.7388 17.5858 67.7388Z" fill="#FF192C"/>
<path d="M65.4855 38.2936C65.2945 38.2936 65.1242 38.1551 65.0932 37.9549C62.6775 21.8953 45.7009 20.8329 45.5306 20.8226C45.3138 20.8123 45.1434 20.6276 45.1538 20.4069C45.1641 20.1913 45.3551 20.0168 45.5719 20.0322C45.7474 20.0425 63.3692 21.1306 65.8829 37.8368C65.9139 38.0524 65.7642 38.2526 65.5474 38.2834C65.5268 38.2885 65.5061 38.2936 65.4855 38.2936Z" fill="white"/>
<path d="M47.2758 39.9003C47.1416 39.9003 47.0074 39.8336 46.9351 39.7104C42.9297 33.1048 31.5896 39.7258 31.476 39.7925C31.285 39.9054 31.0424 39.8438 30.9289 39.6539C30.8153 39.464 30.8772 39.2228 31.0682 39.1099C31.5637 38.8173 43.2084 32.027 47.6164 39.2998C47.73 39.4845 47.6681 39.7309 47.4822 39.8438C47.4151 39.8797 47.3429 39.9003 47.2758 39.9003Z" fill="white"/>
<path d="M25.0388 40.8959C25.3951 40.8959 25.684 40.6087 25.684 40.2544C25.684 39.9 25.3951 39.6128 25.0388 39.6128C24.6824 39.6128 24.3936 39.9 24.3936 40.2544C24.3936 40.6087 24.6824 40.8959 25.0388 40.8959Z" fill="white"/>
<path d="M59.741 64.7566C59.741 65.624 59.0338 66.3271 58.1615 66.3271C57.2892 66.3271 56.582 65.624 56.582 64.7566C56.582 63.8892 57.2892 63.186 58.1615 63.186C59.0338 63.186 59.741 63.8892 59.741 64.7566Z" fill="white"/>
<path d="M23.92 21.948C24.5457 21.6946 24.8463 20.9848 24.5915 20.3627C24.3367 19.7405 23.6229 19.4416 22.9972 19.695C22.3715 19.9484 22.0708 20.6582 22.3257 21.2803C22.5805 21.9025 23.2943 22.2014 23.92 21.948Z" fill="white"/>
<path d="M37.4682 11.5325C37.4682 11.8097 37.241 12.0304 36.9675 12.0304C36.6887 12.0304 36.4668 11.8045 36.4668 11.5325C36.4668 11.2554 36.6939 11.0347 36.9675 11.0347C37.241 11.0347 37.4682 11.2605 37.4682 11.5325Z" fill="white"/>
<path d="M35.7439 49.8262C35.7439 50.5755 35.1348 51.1812 34.3812 51.1812C33.6276 51.1812 33.0186 50.5755 33.0186 49.8262C33.0186 49.0768 33.6276 48.4712 34.3812 48.4712C35.1297 48.4712 35.7439 49.0768 35.7439 49.8262Z" fill="white"/>
<path d="M32.5798 70.1869C32.5798 71.1364 31.8056 71.9012 30.8558 71.9012C29.9061 71.9012 29.1318 71.1313 29.1318 70.1869C29.1318 69.2425 29.9061 68.4727 30.8558 68.4727C31.8107 68.4727 32.5798 69.2425 32.5798 70.1869Z" fill="#FF192C"/>
<path d="M52.7721 18.6055C53.2881 18.6055 53.7064 18.1896 53.7064 17.6765C53.7064 17.1635 53.2881 16.7476 52.7721 16.7476C52.2562 16.7476 51.8379 17.1635 51.8379 17.6765C51.8379 18.1896 52.2562 18.6055 52.7721 18.6055Z" fill="#FF192C"/>
</g>
<defs>
<clipPath id="clip0_1496_2137">
<rect width="95" height="98" fill="white"/>
</clipPath>
</defs>
</svg>
