<svg width="40" height="38" viewBox="0 0 40 38" fill="none" xmlns="http://www.w3.org/2000/svg">
<path d="M23.44 25.9666L21.5195 25.6021C21.5087 25.3834 21.4871 25.1646 21.4655 24.9563L23.2782 24.2585C23.2134 23.8732 23.1271 23.4878 23.0084 23.1233L21.0555 23.2482C20.98 23.0399 20.9045 22.842 20.8182 22.6442L22.3826 21.5193C22.21 21.1652 22.0266 20.8215 21.8216 20.4882L19.9766 21.0923C19.8579 20.9152 19.7284 20.7382 19.5882 20.5611L20.7966 19.0821C20.5376 18.7801 20.2679 18.4989 19.9766 18.2177L18.3474 19.2592C18.1855 19.1134 18.0129 18.978 17.8295 18.8426L18.6063 17.1137C18.2826 16.8845 17.9374 16.6866 17.5813 16.4887L16.3082 17.8948C16.114 17.8011 15.909 17.7073 15.6932 17.624L15.9737 15.7597C15.5961 15.6243 15.2184 15.5097 14.8192 15.416L13.9561 17.1137C13.8482 17.0928 13.7403 17.072 13.6216 17.0512C13.5137 17.0303 13.395 17.0199 13.2871 16.9991L13.0605 15.1243C12.6505 15.0827 12.2513 15.0723 11.8521 15.0723L11.4637 16.9262C11.2371 16.9366 11.0105 16.9574 10.7948 16.9783L10.0719 15.2285C9.67266 15.291 9.27345 15.3743 8.89582 15.4889L9.02529 17.374C8.8095 17.4365 8.6045 17.5198 8.3995 17.6032L7.24503 16.0825C6.87819 16.2492 6.52214 16.4262 6.17687 16.6241L6.80266 18.4051C6.61924 18.5197 6.43582 18.6447 6.2524 18.7801L4.7203 17.6136C4.4074 17.8636 4.11609 18.1239 3.82477 18.4051L4.90372 19.9674C4.75267 20.1237 4.6124 20.2903 4.47214 20.4674L2.68109 19.7175C2.44372 20.0299 2.23872 20.3632 2.03372 20.7069L3.50109 21.9463C3.40398 22.1338 3.30688 22.3317 3.22056 22.54L1.28925 22.2692C1.14899 22.6337 1.03031 22.9983 0.9332 23.3836L2.69188 24.2169C2.6703 24.321 2.64872 24.4252 2.62714 24.5293C2.60557 24.6335 2.59478 24.748 2.5732 24.8522L0.631096 25.0709C0.587938 25.4667 0.577148 25.852 0.577148 26.2374L2.49767 26.6124C2.50846 26.8311 2.53004 27.0498 2.55162 27.2581L0.73899 27.9559C0.803727 28.3413 0.890042 28.7267 1.00873 29.0912L2.96162 28.9662C3.03714 29.1745 3.11267 29.3724 3.19898 29.5703L1.63451 30.6951C1.80715 31.0493 1.99057 31.393 2.19557 31.7263L4.04056 31.1222C4.15925 31.2992 4.28872 31.4763 4.42898 31.6533L3.22056 33.1323C3.47951 33.4344 3.74925 33.7156 4.04056 33.9968L5.65898 32.9552C5.82082 33.1011 5.99345 33.2365 6.17687 33.3719L5.40003 35.1008C5.72372 35.3299 6.06898 35.5278 6.42503 35.7257L7.70898 34.3092C7.90319 34.403 8.10819 34.4967 8.32397 34.58L8.04345 36.4444C8.42108 36.5798 8.79871 36.6943 9.19792 36.7881L10.0611 35.0904C10.169 35.1112 10.2769 35.132 10.3955 35.1529C10.5034 35.1737 10.6221 35.1841 10.73 35.2049L10.9566 37.0797C11.3666 37.1214 11.7658 37.1318 12.165 37.1318L12.5427 35.2779C12.7692 35.2674 12.9958 35.2466 13.2116 35.2258L13.9345 36.9755C14.3337 36.913 14.7329 36.8297 15.1105 36.7152L14.9811 34.83C15.1969 34.7571 15.4019 34.6842 15.6069 34.6009L16.7721 36.1111C17.139 35.9444 17.495 35.7674 17.8403 35.5695L17.2145 33.7885C17.3979 33.6739 17.5813 33.5489 17.7647 33.4135L19.2968 34.58C19.6097 34.3301 19.9011 34.0697 20.1924 33.7885L19.1134 32.2262C19.2645 32.07 19.4047 31.9033 19.545 31.7263L21.3361 32.4761C21.5734 32.1637 21.7892 31.8304 21.9834 31.4867L20.5053 30.2577C20.6024 30.0702 20.6995 29.8723 20.7858 29.664L22.7171 29.9348C22.8574 29.5703 22.976 29.2058 23.0732 28.8204L21.3145 27.9872C21.3361 27.883 21.3576 27.7789 21.3792 27.6747C21.4008 27.5706 21.4116 27.456 21.4224 27.3518L23.3645 27.1331C23.4184 26.7478 23.44 26.352 23.44 25.9666ZM10.6437 33.7156C6.29556 32.9865 3.37162 28.987 4.12688 24.7897C4.88214 20.5923 9.02529 17.7698 13.3734 18.4989C17.7216 19.228 20.6455 23.2274 19.8903 27.4248C19.135 31.6221 14.9919 34.4446 10.6437 33.7156Z" fill="#424242"/>
<path d="M13.309 18.8529C9.16581 18.1655 5.21687 20.8526 4.49398 24.8521C3.78187 28.8516 6.56555 32.6635 10.7087 33.3614C14.8518 34.0488 18.8008 31.3616 19.5129 27.3622C20.2358 23.3627 17.4521 19.5507 13.309 18.8529ZM10.9029 32.2678C7.38555 31.6845 5.01187 28.4349 5.62687 25.0396C6.23108 21.6442 9.59739 19.3528 13.1147 19.9465C16.6321 20.5298 19.0058 23.7793 18.3908 27.1747C17.7758 30.5701 14.4203 32.851 10.9029 32.2678Z" fill="#424242"/>
<path d="M23.3111 25.8415L21.3906 25.4769C21.3798 25.2582 21.3582 25.0395 21.3366 24.8312L23.1492 24.1334C23.0845 23.748 22.9982 23.3626 22.8795 22.9981L20.9266 23.1231C20.8511 22.9148 20.7756 22.7169 20.6893 22.519L22.2537 21.3941C22.0811 21.04 21.8977 20.6963 21.6927 20.363L19.8477 20.9671C19.729 20.7901 19.5995 20.613 19.4593 20.4359L20.6677 18.957C20.4087 18.6549 20.139 18.3737 19.8477 18.0925L18.2185 19.134C18.0566 18.9882 17.884 18.8528 17.7006 18.7174L18.4774 16.9885C18.1537 16.7594 17.8085 16.5615 17.4524 16.3636L16.1685 17.7801C15.9743 17.6863 15.7693 17.5926 15.5535 17.5093L15.834 15.6449C15.4564 15.5095 15.0787 15.395 14.6795 15.3012L13.8164 16.9989C13.7085 16.9781 13.6006 16.9572 13.4819 16.9364C13.374 16.9156 13.2553 16.9052 13.1474 16.8843L12.9208 15.0096C12.5108 14.9679 12.1116 14.9575 11.7124 14.9575L11.324 16.8114C11.0974 16.8218 10.8709 16.8427 10.6551 16.8635L9.93217 15.1137C9.53296 15.1762 9.13375 15.2596 8.75612 15.3741L8.88559 17.2593C8.6698 17.3218 8.4648 17.4051 8.2598 17.4884L7.11612 15.9574C6.74928 16.124 6.39323 16.3011 6.04797 16.499L6.67376 18.28C6.49033 18.3946 6.30691 18.5195 6.12349 18.6549L4.59139 17.4884C4.2785 17.7384 3.98718 17.9988 3.69587 18.28L4.77481 19.8423C4.62376 19.9985 4.4835 20.1651 4.34323 20.3422L2.55219 19.5923C2.31482 19.9048 2.10982 20.2381 1.90482 20.5818L3.37218 21.8212C3.27508 22.0086 3.17797 22.2065 3.09166 22.4148L1.16035 22.144C1.02008 22.5086 0.901399 22.8731 0.804294 23.2585L2.56297 24.0917C2.5414 24.1958 2.51982 24.3 2.49824 24.4042C2.47666 24.5083 2.46587 24.6229 2.44429 24.727L0.502189 24.9457C0.459032 25.3415 0.448242 25.7269 0.448242 26.1123L2.36876 26.4768C2.37955 26.6955 2.40113 26.9142 2.42271 27.1225L0.610084 27.8204C0.674821 28.2057 0.761136 28.5911 0.87982 28.9556L2.83271 28.8306C2.90824 29.0389 2.98376 29.2368 3.07008 29.4347L1.49482 30.5804C1.66745 30.9345 1.85087 31.2782 2.05587 31.6115L3.90087 31.0074C4.01955 31.1845 4.14902 31.3615 4.28929 31.5386L3.08087 33.0176C3.33981 33.3196 3.60955 33.6008 3.90087 33.882L5.51928 32.8405C5.68113 32.9863 5.85376 33.1217 6.03718 33.2571L5.26034 34.986C5.58402 35.2152 5.92928 35.4131 6.28533 35.611L7.56928 34.1945C7.76349 34.2882 7.96849 34.382 8.18428 34.4653L7.90375 36.3296C8.28138 36.465 8.65901 36.5796 9.05822 36.6733L9.92138 34.9756C10.0293 34.9965 10.1372 35.0173 10.2559 35.0381C10.3637 35.059 10.4824 35.0694 10.5903 35.0902L10.8169 36.9649C11.2269 37.0066 11.6261 37.017 12.0253 37.017L12.403 35.1631C12.6295 35.1527 12.8561 35.1319 13.0719 35.111L13.7948 36.8608C14.194 36.7983 14.5932 36.715 14.9708 36.6004L14.8414 34.7152C15.0572 34.6423 15.2622 34.5694 15.4672 34.4861L16.6324 35.9963C16.9993 35.8297 17.3553 35.6526 17.7006 35.4547L17.0748 33.6737C17.2582 33.5592 17.4416 33.4342 17.625 33.2988L19.1571 34.4653C19.47 34.2153 19.7614 33.9549 20.0527 33.6737L18.9737 32.1114C19.1248 31.9552 19.265 31.7886 19.4053 31.6115L21.1964 32.3614C21.4337 32.0489 21.6495 31.7157 21.8437 31.372L20.3764 30.1325C20.4735 29.9451 20.5706 29.7472 20.6569 29.5389L22.5882 29.8097C22.7285 29.4451 22.8471 29.0806 22.9442 28.6952L21.1856 27.862C21.2071 27.7579 21.2287 27.6537 21.2503 27.5496C21.2719 27.4454 21.2827 27.3308 21.2935 27.2267L23.2356 27.008C23.3003 26.6226 23.3111 26.2268 23.3111 25.8415ZM10.5148 33.5904C6.16665 32.8613 3.24271 28.8619 3.99797 24.6645C4.75323 20.4672 8.89638 17.6447 13.2445 18.3737C17.5927 19.1028 20.5166 23.1022 19.7614 27.2996C19.0061 31.4969 14.8629 34.3195 10.5148 33.5904Z" fill="#E3E3E3"/>
<path d="M13.1801 18.7279C9.0369 18.0405 5.08796 20.7276 4.36507 24.7271C3.65297 28.7266 6.43664 32.5385 10.5798 33.2364C14.7229 33.9238 18.6719 31.2366 19.384 27.2372C20.1069 23.2377 17.3232 19.4257 13.1801 18.7279ZM10.7632 32.174C7.22427 31.5803 4.83981 28.3204 5.4548 24.9042C6.0698 21.488 9.4469 19.1862 12.9858 19.7799C16.5248 20.3735 18.9093 23.6335 18.2943 27.0497C17.6793 30.4659 14.3022 32.7677 10.7632 32.174Z" fill="#E3E3E3"/>
<path d="M23.3755 25.925L21.455 25.5604C21.4442 25.3417 21.4227 25.123 21.4011 24.9147L23.2137 24.2169C23.149 23.8315 23.0626 23.4565 22.944 23.0816L20.9911 23.2066C20.9155 22.9983 20.84 22.8004 20.7537 22.6025L22.3182 21.4776C22.1455 21.1235 21.9621 20.7798 21.7571 20.4465L19.9121 21.0506C19.7934 20.8736 19.664 20.6965 19.5237 20.5194L20.7321 19.0405C20.4732 18.7384 20.2034 18.4572 19.9121 18.176L18.2829 19.2175C18.1211 19.0717 17.9484 18.9363 17.765 18.8009L18.5419 17.072C18.2182 16.8429 17.8729 16.645 17.5169 16.4471L16.2329 17.8635C16.0387 17.7698 15.8337 17.6761 15.6179 17.5928L15.8985 15.7284C15.5208 15.593 15.1432 15.4785 14.744 15.3847L13.8808 17.0824C13.7729 17.0616 13.665 17.0407 13.5464 17.0199C13.4385 16.9991 13.3198 16.9887 13.2119 16.9678L12.9853 15.0931C12.5753 15.0514 12.1761 15.041 11.7769 15.041L11.3885 16.8949C11.1619 16.9053 10.9353 16.9262 10.7195 16.947L9.99662 15.1972C9.59741 15.2597 9.1982 15.3431 8.82057 15.4576L8.95005 17.3428C8.73426 17.4157 8.52926 17.4886 8.32426 17.5719L7.18058 16.0305C6.81374 16.1971 6.45768 16.3742 6.11242 16.5721L6.73821 18.3531C6.55479 18.4676 6.37137 18.5926 6.18795 18.728L4.65585 17.5615C4.34295 17.8115 4.05164 18.0719 3.76032 18.3531L4.83927 19.9154C4.68821 20.0716 4.54795 20.2382 4.40769 20.4153L2.61664 19.6654C2.37927 19.9778 2.17427 20.3111 1.96927 20.6548L3.43664 21.8943C3.33953 22.0817 3.24243 22.2796 3.15611 22.4879L1.2248 22.2171C1.08454 22.5817 0.965852 22.9462 0.868747 23.3316L2.62743 24.1648C2.60585 24.2689 2.58427 24.3731 2.56269 24.4772C2.54111 24.5814 2.53032 24.696 2.50874 24.8001L0.566643 25.0188C0.523485 25.4146 0.512695 25.8 0.512695 26.1853L2.43322 26.5499C2.44401 26.7686 2.46559 26.9873 2.48716 27.1956L0.674537 27.8934C0.739274 28.2788 0.825589 28.6642 0.944273 29.0287L2.89716 28.9037C2.97269 29.112 3.04822 29.3099 3.13453 29.5078L1.57006 30.6326C1.74269 30.9868 1.92611 31.3305 2.13111 31.6638L3.97611 31.0597C4.09479 31.2367 4.22427 31.4138 4.36453 31.5908L3.15611 33.0698C3.41506 33.3719 3.68479 33.6531 3.97611 33.9343L5.59453 32.8928C5.75637 33.0386 5.929 33.174 6.11242 33.3094L5.33558 35.0383C5.65926 35.2674 6.00453 35.4653 6.36058 35.6632L7.64452 34.2467C7.83873 34.3405 8.04373 34.4342 8.25952 34.5175L7.979 36.4027C8.35663 36.5381 8.73426 36.6527 9.13347 36.7464L9.99662 35.0487C10.1045 35.0695 10.2124 35.0904 10.3311 35.1112C10.439 35.132 10.5577 35.1425 10.6656 35.1633L10.8921 37.038C11.3021 37.0797 11.7014 37.0901 12.1006 37.0901L12.4782 35.2362C12.7048 35.2258 12.9314 35.2049 13.1471 35.1841L13.87 36.9339C14.2692 36.8714 14.6685 36.7881 15.0461 36.6735L14.9166 34.7883C15.1324 34.7154 15.3374 34.6425 15.5424 34.5592L16.7077 36.0694C17.0745 35.9028 17.4306 35.7257 17.7758 35.5278L17.15 33.7468C17.3335 33.6322 17.5169 33.5073 17.7003 33.3719L19.2324 34.5384C19.5453 34.2884 19.8366 34.028 20.1279 33.7468L19.049 32.1845C19.2 32.0283 19.3403 31.8616 19.4806 31.6846L21.2716 32.4449C21.509 32.1324 21.7248 31.7992 21.919 31.4555L20.4516 30.216C20.5487 30.0286 20.6458 29.8307 20.7321 29.6224L22.6634 29.8932C22.8037 29.5286 22.9224 29.1641 23.0195 28.7787L21.2608 27.9455C21.2824 27.8414 21.304 27.7372 21.3255 27.6331C21.3471 27.5289 21.3579 27.4143 21.3687 27.3102L23.3108 27.0915C23.3648 26.6957 23.3863 26.3103 23.3755 25.925ZM10.849 32.2366C7.32084 31.6429 4.94716 28.4038 5.56216 24.998C6.17716 21.5922 9.54347 19.3009 13.0608 19.8945C16.589 20.4882 18.9627 23.7273 18.3477 27.1331C17.7327 30.5285 14.3664 32.8198 10.849 32.2366Z" fill="url(#paint0_radial_1496_2020)"/>
<path d="M23.3755 25.925L21.455 25.5604C21.4442 25.3417 21.4227 25.123 21.4011 24.9147L23.2137 24.2169C23.149 23.8315 23.0626 23.4565 22.944 23.0816L20.9911 23.2066C20.9155 22.9983 20.84 22.8004 20.7537 22.6025L22.3182 21.4776C22.1455 21.1235 21.9621 20.7798 21.7571 20.4465L19.9121 21.0506C19.7934 20.8736 19.664 20.6965 19.5237 20.5194L20.7321 19.0405C20.4732 18.7384 20.2034 18.4572 19.9121 18.176L18.2829 19.2175C18.1211 19.0717 17.9484 18.9363 17.765 18.8009L18.5419 17.072C18.2182 16.8429 17.8729 16.645 17.5169 16.4471L16.2329 17.8635C16.0387 17.7698 15.8337 17.6761 15.6179 17.5928L15.8985 15.7284C15.5208 15.593 15.1432 15.4785 14.744 15.3847L13.8808 17.0824C13.7729 17.0616 13.665 17.0407 13.5464 17.0199C13.4385 16.9991 13.3198 16.9887 13.2119 16.9678L12.9853 15.0931C12.5753 15.0514 12.1761 15.041 11.7769 15.041L11.3885 16.8949C11.1619 16.9053 10.9353 16.9262 10.7195 16.947L9.99662 15.1972C9.59741 15.2597 9.1982 15.3431 8.82057 15.4576L8.95005 17.3428C8.73426 17.4157 8.52926 17.4886 8.32426 17.5719L7.18058 16.0305C6.81374 16.1971 6.45768 16.3742 6.11242 16.5721L6.73821 18.3531C6.55479 18.4676 6.37137 18.5926 6.18795 18.728L4.65585 17.5615C4.34295 17.8115 4.05164 18.0719 3.76032 18.3531L4.83927 19.9154C4.68821 20.0716 4.54795 20.2382 4.40769 20.4153L2.61664 19.6654C2.37927 19.9778 2.17427 20.3111 1.96927 20.6548L3.43664 21.8943C3.33953 22.0817 3.24243 22.2796 3.15611 22.4879L1.2248 22.2171C1.08454 22.5817 0.965852 22.9462 0.868747 23.3316L2.62743 24.1648C2.60585 24.2689 2.58427 24.3731 2.56269 24.4772C2.54111 24.5814 2.53032 24.696 2.50874 24.8001L0.566643 25.0188C0.523485 25.4146 0.512695 25.8 0.512695 26.1853L2.43322 26.5499C2.44401 26.7686 2.46559 26.9873 2.48716 27.1956L0.674537 27.8934C0.739274 28.2788 0.825589 28.6642 0.944273 29.0287L2.89716 28.9037C2.97269 29.112 3.04822 29.3099 3.13453 29.5078L1.57006 30.6326C1.74269 30.9868 1.92611 31.3305 2.13111 31.6638L3.97611 31.0597C4.09479 31.2367 4.22427 31.4138 4.36453 31.5908L3.15611 33.0698C3.41506 33.3719 3.68479 33.6531 3.97611 33.9343L5.59453 32.8928C5.75637 33.0386 5.929 33.174 6.11242 33.3094L5.33558 35.0383C5.65926 35.2674 6.00453 35.4653 6.36058 35.6632L7.64452 34.2467C7.83873 34.3405 8.04373 34.4342 8.25952 34.5175L7.979 36.4027C8.35663 36.5381 8.73426 36.6527 9.13347 36.7464L9.99662 35.0487C10.1045 35.0695 10.2124 35.0904 10.3311 35.1112C10.439 35.132 10.5577 35.1425 10.6656 35.1633L10.8921 37.038C11.3021 37.0797 11.7014 37.0901 12.1006 37.0901L12.4782 35.2362C12.7048 35.2258 12.9314 35.2049 13.1471 35.1841L13.87 36.9339C14.2692 36.8714 14.6685 36.7881 15.0461 36.6735L14.9166 34.7883C15.1324 34.7154 15.3374 34.6425 15.5424 34.5592L16.7077 36.0694C17.0745 35.9028 17.4306 35.7257 17.7758 35.5278L17.15 33.7468C17.3335 33.6322 17.5169 33.5073 17.7003 33.3719L19.2324 34.5384C19.5453 34.2884 19.8366 34.028 20.1279 33.7468L19.049 32.1845C19.2 32.0283 19.3403 31.8616 19.4806 31.6846L21.2716 32.4449C21.509 32.1324 21.7248 31.7992 21.919 31.4555L20.4516 30.216C20.5487 30.0286 20.6458 29.8307 20.7321 29.6224L22.6634 29.8932C22.8037 29.5286 22.9224 29.1641 23.0195 28.7787L21.2608 27.9455C21.2824 27.8414 21.304 27.7372 21.3255 27.6331C21.3471 27.5289 21.3579 27.4143 21.3687 27.3102L23.3108 27.0915C23.3648 26.6957 23.3863 26.3103 23.3755 25.925ZM10.59 33.6739C6.24189 32.9448 3.31795 28.9454 4.07321 24.748C4.82848 20.5507 8.97163 17.7281 13.3198 18.4572C17.6679 19.1863 20.5919 23.1857 19.8366 27.3831C19.0813 31.57 14.9382 34.3926 10.59 33.6739Z" fill="url(#paint1_radial_1496_2020)"/>
<path d="M13.2552 18.8114C9.1121 18.124 5.16316 20.8111 4.44026 24.8106C3.72816 28.81 6.51184 32.622 10.655 33.3198C14.7981 34.0073 18.7471 31.3201 19.4592 27.3207C20.1821 23.3212 17.3876 19.4988 13.2552 18.8114ZM10.8384 32.2679C7.28868 31.6742 4.90421 28.4039 5.51921 24.9877C6.13421 21.561 9.5221 19.2593 13.061 19.8529C16.6108 20.4466 18.9952 23.717 18.3802 27.1332C17.7652 30.5598 14.3881 32.8616 10.8384 32.2679Z" fill="url(#paint2_radial_1496_2020)"/>
<path d="M23.5686 22.6353L25.0179 20.0423C25.2112 20.0796 25.4044 20.1355 25.5977 20.1729C25.7909 20.2102 25.9842 20.2288 26.1774 20.2475L26.6412 23.1576C27.163 23.1762 27.6654 23.1576 28.1872 23.1203L28.4964 20.1915C28.8829 20.1355 29.2694 20.0423 29.6559 19.9304L31.2405 22.4487C31.7236 22.2808 32.1874 22.0756 32.6512 21.8331L31.7816 19.0163C32.1101 18.8111 32.4386 18.6059 32.7478 18.3634L35.2021 20.0982C35.5886 19.7625 35.9364 19.408 36.2649 19.0163L34.3518 16.7404C34.5837 16.4419 34.7963 16.1062 34.9895 15.7704L37.9462 16.4606C38.1588 16.0129 38.352 15.5465 38.5066 15.0802L35.8205 13.6811C35.8591 13.4945 35.9171 13.308 35.9557 13.1214C35.9944 12.9349 36.0137 12.7484 36.033 12.5618L39.0477 12.1141C39.067 11.6104 39.0477 11.1254 39.0091 10.6217L35.9751 10.3233C35.9171 9.95017 35.8205 9.57708 35.7045 9.20399L38.3134 7.67431C38.1394 7.20795 37.9269 6.76024 37.695 6.31253L34.7769 7.15199C34.5644 6.83486 34.3518 6.51773 34.1006 6.21926L35.8978 3.85013C35.5499 3.47704 35.1828 3.14126 34.7769 2.82413L32.4193 4.67093C32.1101 4.44708 31.7623 4.24188 31.4144 4.05533L32.1294 1.20119C31.6656 0.995987 31.1825 0.809442 30.6994 0.660205L29.25 3.25319C29.0568 3.21588 28.8636 3.15991 28.6703 3.12261C28.4771 3.0853 28.2838 3.06664 28.0906 3.04799L27.5881 0.193842C27.0663 0.175187 26.5639 0.193842 26.0421 0.231151L25.7329 3.15991C25.3464 3.21588 24.9599 3.30915 24.5735 3.42108L23.0081 0.902714C22.525 1.07061 22.0612 1.27581 21.5974 1.49966L22.4671 4.3165C22.1385 4.5217 21.81 4.7269 21.5008 4.96941L19.0466 3.23453C18.6601 3.57031 18.3122 3.92475 17.9837 4.3165L19.8969 6.59235C19.665 6.89082 19.4524 7.2266 19.2591 7.56239L16.3025 6.87217C16.0899 7.31988 15.8966 7.78624 15.742 8.25261L18.4282 9.6517C18.3895 9.83824 18.3316 10.0248 18.2929 10.2113C18.2543 10.3979 18.2349 10.5844 18.2156 10.771L15.2009 11.2187C15.1816 11.7224 15.2009 12.2074 15.2396 12.711L18.2736 13.0095C18.3316 13.3826 18.4282 13.7557 18.5441 14.1288L15.9353 15.6585C16.1092 16.1248 16.3218 16.5725 16.573 17.0202L19.491 16.1808C19.7036 16.4979 19.9162 16.815 20.1674 17.1135L18.3702 19.4826C18.718 19.8557 19.0852 20.1915 19.491 20.5086L21.8487 18.6618C22.1579 18.8857 22.5057 19.0909 22.8535 19.2774L22.1385 22.1316C22.6023 22.2995 23.0854 22.486 23.5686 22.6353ZM20.0901 10.4912C20.7665 6.74159 24.4575 4.22322 28.3418 4.87613C32.2261 5.52904 34.8349 9.09206 34.1585 12.8416C33.4822 16.5912 29.7911 19.1096 25.9069 18.4566C22.0226 17.8224 19.4137 14.2407 20.0901 10.4912Z" fill="#FF4800"/>
<path d="M23.3752 22.4487L24.8246 19.8558C25.0178 19.8931 25.2111 19.949 25.4043 19.9863C25.5976 20.0236 25.7908 20.0423 25.984 20.061L26.4478 22.9711C26.9696 22.9897 27.4721 22.9711 27.9938 22.9338L28.303 20.005C28.6895 19.949 29.076 19.8558 29.4625 19.7438L31.0471 22.2622C31.5303 22.0943 31.9941 21.8891 32.4578 21.6466L31.5882 18.8298C31.9168 18.6246 32.2453 18.4194 32.5545 18.1768L35.0087 19.9117C35.3952 19.5759 35.7431 19.2215 36.0716 18.8298L34.1584 16.5539C34.3903 16.2554 34.6029 15.9196 34.7961 15.5839L37.7528 16.2741C37.9654 15.8264 38.1587 15.36 38.3133 14.8936L35.6271 13.4946C35.6658 13.308 35.7237 13.1215 35.7624 12.9349C35.801 12.7484 35.8204 12.5618 35.8397 12.3753L38.8543 11.9276C38.8737 11.4239 38.8543 10.9389 38.8157 10.4352L35.7817 10.1367C35.7237 9.76365 35.6271 9.39055 35.5112 9.01746L38.12 7.48779C37.9461 7.02143 37.7335 6.57372 37.5016 6.12601L34.5836 6.96546C34.371 6.64834 34.1584 6.33121 33.9072 6.03274L35.7044 3.66361C35.3566 3.29052 34.9894 2.95474 34.5836 2.63761L32.226 4.48441C31.9168 4.26055 31.5689 4.05535 31.2211 3.86881L31.9361 1.01466C31.4723 0.809464 30.9892 0.622918 30.506 0.473682L29.0567 3.06666C28.8634 3.02935 28.6702 2.97339 28.4769 2.93608C28.2837 2.89877 28.0905 2.88012 27.8972 2.86146L27.3948 0.00731827C26.873 -0.0113363 26.3705 0.00731827 25.8488 0.0446274L25.5396 2.97339C25.1531 3.02935 24.7666 3.12263 24.3801 3.23455L22.8148 0.716191C22.3317 0.884082 21.8679 1.08928 21.4041 1.31314L22.2737 4.12997C21.9452 4.33517 21.6167 4.54037 21.3075 4.78288L18.8532 3.04801C18.4667 3.38379 18.1189 3.73823 17.7903 4.12997L19.7035 6.40583C19.4716 6.7043 19.259 7.04008 19.0658 7.37586L16.1091 6.68565C15.8965 7.13335 15.7033 7.59972 15.5487 8.06608L18.2348 9.46517C18.1962 9.65172 18.1382 9.83826 18.0995 10.0248C18.0609 10.2114 18.0416 10.3979 18.0222 10.5844L15.0076 11.0322C14.9883 11.5358 15.0076 12.0208 15.0462 12.5245L18.0802 12.823C18.1382 13.1961 18.2348 13.5692 18.3508 13.9423L15.7419 15.4719C15.9158 15.9383 16.1284 16.386 16.3796 16.8337L19.2977 15.9943C19.5103 16.3114 19.7228 16.6285 19.974 16.927L18.1768 19.2961C18.5247 19.6692 18.8919 20.005 19.2977 20.3221L21.6553 18.4753C21.9645 18.6992 22.3123 18.9044 22.6602 19.0909L21.9452 21.9451C22.409 22.113 22.8921 22.2995 23.3752 22.4487ZM19.8967 10.3046C20.5731 6.55506 24.2641 4.0367 28.1484 4.68961C32.0327 5.34252 34.6415 8.90554 33.9652 12.6551C33.2888 16.4047 29.5978 18.923 25.7135 18.2701C21.8292 17.6359 19.2204 14.0542 19.8967 10.3046Z" fill="#FCFFAD"/>
<path d="M23.4906 22.5603L24.94 19.9673C25.1333 20.0046 25.3265 20.0606 25.5197 20.0979C25.713 20.1352 25.9062 20.1538 26.0995 20.1725L26.5633 23.0826C27.0851 23.1012 27.5875 23.0826 28.1093 23.0453L28.4185 20.1165C28.805 20.0606 29.1915 19.9673 29.578 19.8554L31.1626 22.3737C31.6457 22.2058 32.1095 22.0006 32.5733 21.7581L31.7037 18.9413C32.0322 18.7361 32.3607 18.5309 32.6699 18.2884L35.1242 20.0232C35.5107 19.6875 35.8585 19.333 36.187 18.9413L34.2739 16.6654C34.5058 16.367 34.7183 16.0312 34.9116 15.6954L37.8683 16.3856C38.0808 15.9379 38.2741 15.4715 38.4287 15.0052L35.7039 13.6247C35.7426 13.4382 35.8005 13.2516 35.8392 13.0651C35.8778 12.8786 35.8971 12.692 35.9165 12.5055L38.9311 12.0578C38.9505 11.5541 38.9311 11.0691 38.8925 10.5654L35.8585 10.2669C35.8005 9.89383 35.7039 9.52074 35.588 9.14764L38.1968 7.61797C38.0229 7.15161 37.8103 6.7039 37.5784 6.25619L34.6604 7.09564C34.4478 6.77852 34.2352 6.46139 33.984 6.16292L35.7812 3.79379C35.4334 3.4207 35.0662 3.08492 34.6604 2.76779L32.3027 4.61459C31.9935 4.39074 31.6457 4.18554 31.2979 3.99899L32.0129 1.14485C31.5491 0.939646 31.066 0.753101 30.5828 0.603864L29.1335 3.19685C28.9402 3.15954 28.747 3.10357 28.5537 3.06626C28.3605 3.02895 28.1672 3.0103 27.974 2.99165L27.5102 0.081537C26.9884 0.0628825 26.486 0.081537 25.9642 0.118846L25.655 3.04761C25.2685 3.10357 24.882 3.19685 24.4955 3.30877L22.9109 0.79041C22.4278 0.958301 21.964 1.1635 21.5002 1.38735L22.3698 4.20419C22.0413 4.40939 21.7128 4.61459 21.4036 4.8571L18.9687 3.17819C18.5822 3.51397 18.2343 3.86841 17.9058 4.26015L19.8189 6.53601C19.587 6.83448 19.3745 7.17026 19.1812 7.50604L16.2439 6.79717C16.0313 7.24488 15.838 7.71124 15.6834 8.17761L18.3696 9.5767C18.3309 9.76324 18.273 9.94979 18.2343 10.1363C18.1957 10.3229 18.1763 10.5094 18.157 10.696L15.1423 11.1437C15.123 11.6474 15.1423 12.1324 15.181 12.636L18.215 12.9345C18.273 13.3076 18.3696 13.6807 18.4855 14.0538L15.8767 15.5835C16.0506 16.0498 16.2632 16.4975 16.5144 16.9452L19.4324 16.1058C19.645 16.4229 19.8576 16.74 20.1088 17.0385L18.3116 19.4076C18.6595 19.7807 19.0266 20.1165 19.4324 20.4336L21.7901 18.5868C22.0993 18.8107 22.4471 19.0159 22.795 19.2024L22.0799 22.0566C22.5051 22.2245 22.9882 22.411 23.4906 22.5603ZM19.9929 10.4348C20.6692 6.68525 24.3603 4.16688 28.2445 4.81979C32.1288 5.4727 34.7377 9.03572 34.0613 12.7853C33.3849 16.5348 29.6939 19.0532 25.8096 18.4003C21.9447 17.7474 19.3358 14.1657 19.9929 10.4348Z" fill="url(#paint3_radial_1496_2020)"/>
<path d="M13.2085 14.9979C13.3512 14.6307 13.4304 14.2328 13.478 13.835L11.5759 13.1312C11.5759 12.9935 11.56 12.8558 11.5283 12.7027C11.4966 12.565 11.4649 12.4273 11.4174 12.2896L12.9707 11.0196C12.7964 10.6524 12.5745 10.3158 12.305 10.0098L10.4505 10.8054C10.2286 10.6065 9.99082 10.4535 9.73721 10.3158L9.89571 8.35728C9.5153 8.21958 9.10318 8.14307 8.69107 8.09717L7.96194 9.93328C7.81928 9.93328 7.67662 9.94858 7.51812 9.97918C7.37546 10.0098 7.23281 10.0404 7.09015 10.0863L5.77455 8.5868C5.39413 8.75511 5.04542 8.96932 4.7284 9.22944L5.55264 11.0196C5.34658 11.2339 5.18807 11.4634 5.04542 11.7082L3.01653 11.5552C2.87388 11.9224 2.79462 12.3202 2.74707 12.718L4.64915 13.4219C4.64915 13.5596 4.665 13.6973 4.6967 13.8503C4.7284 13.988 4.7601 14.1257 4.80766 14.2634L3.25429 15.5334C3.42865 15.9006 3.65056 16.2373 3.92002 16.5433L5.77455 15.7476C5.99646 15.9465 6.23422 16.0995 6.48783 16.2373L6.32932 18.1958C6.70973 18.3335 7.12185 18.41 7.53397 18.4559L8.2631 16.6198C8.40575 16.6198 8.54841 16.6045 8.70692 16.5739C8.84957 16.5433 8.99223 16.5127 9.13488 16.4668L10.4505 17.9663C10.8309 17.798 11.1796 17.5837 11.4966 17.3236L10.6724 15.5334C10.8785 15.3192 11.037 15.0897 11.1796 14.8449L13.2085 14.9979ZM8.50086 15.4722C7.24866 15.6864 6.04401 14.8602 5.83795 13.6514C5.61604 12.4426 6.47198 11.2798 7.72418 11.0808C8.97638 10.8666 10.181 11.6929 10.3871 12.9017C10.609 14.1104 9.76891 15.258 8.50086 15.4722Z" fill="#FFD1D1"/>
<path d="M31.9611 29.9005C32.0752 29.5241 32.1237 29.1217 32.1406 28.7216L30.1898 28.1556C30.1792 28.0183 30.1529 27.8821 30.1095 27.7318C30.0673 27.5967 30.0251 27.4617 29.9672 27.3277L31.4188 25.9502C31.2168 25.5964 30.9696 25.2766 30.6775 24.9907L28.8891 25.9167C28.6525 25.7342 28.4037 25.5986 28.1402 25.4794L28.148 23.515C27.7581 23.4048 27.3412 23.358 26.9267 23.3417L26.3404 25.2249C26.1982 25.2351 26.0571 25.2605 25.9014 25.3024C25.7614 25.3431 25.6215 25.3838 25.4828 25.4398L24.0557 24.0385C23.6893 24.2335 23.358 24.4721 23.0618 24.7541L24.0211 26.4805C23.832 26.7088 23.6916 26.9491 23.5681 27.2034L21.533 27.1959C21.4189 27.5723 21.3704 27.9747 21.3535 28.3748L23.3044 28.9407C23.3149 29.0781 23.3413 29.2143 23.3847 29.3646C23.4268 29.4996 23.469 29.6347 23.527 29.7686L22.0753 31.1462C22.2774 31.4999 22.5245 31.8198 22.8167 32.1057L24.6051 31.1796C24.8417 31.3621 25.0905 31.4977 25.354 31.6169L25.3462 33.5814C25.7361 33.6915 26.153 33.7384 26.5675 33.7547L27.1537 31.8715C27.296 31.8613 27.4371 31.8358 27.5928 31.794C27.7327 31.7533 27.8726 31.7125 28.0114 31.6566L29.4384 33.0579C29.8049 32.8629 30.1362 32.6243 30.4324 32.3422L29.4731 30.6159C29.6621 30.3875 29.8026 30.1473 29.9261 29.893L31.9611 29.9005ZM27.3186 30.7089C26.0863 31.0121 24.8215 30.2742 24.5233 29.0835C24.2093 27.8939 24.9737 26.673 26.2072 26.3852C27.4395 26.082 28.7042 26.8199 29.0025 28.0106C29.3165 29.2002 28.5509 30.4058 27.3186 30.7089Z" fill="url(#paint4_radial_1496_2020)"/>
<defs>
<radialGradient id="paint0_radial_1496_2020" cx="0" cy="0" r="1" gradientUnits="userSpaceOnUse" gradientTransform="translate(12.4004 9.93646) scale(33.3862 32.2283)">
<stop stop-color="#595959"/>
<stop offset="0.617" stop-color="#A6A6A6"/>
<stop offset="1" stop-color="#D2D2D2"/>
</radialGradient>
<radialGradient id="paint1_radial_1496_2020" cx="0" cy="0" r="1" gradientUnits="userSpaceOnUse" gradientTransform="translate(12.2508 15.3073) scale(22.2644 21.4922)">
<stop stop-color="#D2D2D2"/>
<stop offset="0.383" stop-color="#A6A6A6"/>
<stop offset="1" stop-color="#595959"/>
</radialGradient>
<radialGradient id="paint2_radial_1496_2020" cx="0" cy="0" r="1" gradientUnits="userSpaceOnUse" gradientTransform="translate(12.251 15.3074) scale(22.2642 21.492)">
<stop stop-color="#D2D2D2"/>
<stop offset="0.383" stop-color="#A6A6A6"/>
<stop offset="1" stop-color="#595959"/>
</radialGradient>
<radialGradient id="paint3_radial_1496_2020" cx="0" cy="0" r="1" gradientUnits="userSpaceOnUse" gradientTransform="translate(26.9965 -5.60679) scale(35.0822 33.8655)">
<stop stop-color="#F8FF30"/>
<stop offset="0.4188" stop-color="#FBD31D"/>
<stop offset="1" stop-color="#FF9100"/>
</radialGradient>
<radialGradient id="paint4_radial_1496_2020" cx="0" cy="0" r="1" gradientUnits="userSpaceOnUse" gradientTransform="translate(26.3787 23.5525) rotate(-4.10019) scale(10.2775 9.92478)">
<stop stop-color="#F42F00"/>
<stop offset="0.7475" stop-color="#C91500"/>
<stop offset="1" stop-color="#B90C00"/>
</radialGradient>
</defs>
</svg>
