<svg width="47" height="47" viewBox="0 0 47 47" fill="none" xmlns="http://www.w3.org/2000/svg">
<path fill-rule="evenodd" clip-rule="evenodd" d="M5.63531 7.06982C5.63531 7.06982 0.413359 15.1979 0.146836 17.576C-0.799201 26.0171 3.03615 26.907 5.63531 32.4272C9.27396 40.155 12.0258 45.3996 20.6493 46.9993C54.4739 47.1334 10.9261 20.1625 10.9261 20.1625L5.63531 7.06982Z" fill="url(#paint0_linear_1494_1912)"/>
<path fill-rule="evenodd" clip-rule="evenodd" d="M11.0352 25.4795C12.8543 31.5911 11.555 46.6099 24.501 46.6099C37.4469 46.6099 50.9189 37.4183 45.94 16.7219C40.9612 -3.97451 9.94737 -4.42908 4.30862 9.69982C0.608754 16.9172 9.21607 19.368 11.0352 25.4795Z" fill="url(#paint1_linear_1494_1912)"/>
<path d="M34.0371 16.4551L27.7324 10.1504C27.5566 9.97461 27.3193 9.875 27.0703 9.875H14.625C14.1064 9.875 13.6875 10.2939 13.6875 10.8125V35.1875C13.6875 35.7061 14.1064 36.125 14.625 36.125H33.375C33.8936 36.125 34.3125 35.7061 34.3125 35.1875V17.1201C34.3125 16.8711 34.2129 16.6309 34.0371 16.4551ZM32.1504 17.5508H26.6367V12.0371L32.1504 17.5508ZM32.2031 34.0156H15.7969V11.9844H24.6445V18.3125C24.6445 18.6388 24.7742 18.9518 25.0049 19.1826C25.2357 19.4133 25.5487 19.543 25.875 19.543H32.2031V34.0156ZM24.4717 21.8281H23.5283C23.3672 21.8281 23.2266 21.9365 23.1885 22.0947L21.7324 27.9219L20.3818 22.1006C20.3438 21.9424 20.2031 21.8281 20.0391 21.8281H19.002C18.9481 21.8282 18.8949 21.8407 18.8466 21.8645C18.7983 21.8884 18.7561 21.923 18.7232 21.9657C18.6904 22.0085 18.6678 22.0582 18.6572 22.111C18.6466 22.1639 18.6483 22.2184 18.6621 22.2705L20.8359 30.3564C20.877 30.5088 21.0176 30.6172 21.1758 30.6172H22.1133C22.2715 30.6172 22.4121 30.5117 22.4531 30.3564L24 24.585L25.5469 30.3564C25.5879 30.5088 25.7285 30.6172 25.8867 30.6172H26.8184C26.9766 30.6172 27.1172 30.5117 27.1582 30.3564L29.3379 22.2705C29.3516 22.2184 29.3532 22.1639 29.3425 22.1111C29.3319 22.0583 29.3093 22.0087 29.2765 21.966C29.2437 21.9233 29.2015 21.8886 29.1532 21.8647C29.105 21.8409 29.0519 21.8283 28.998 21.8281H27.9551C27.791 21.8281 27.6504 21.9424 27.6123 22.1006L26.2705 27.9336L24.8115 22.0947C24.7734 21.9365 24.6328 21.8281 24.4717 21.8281Z" fill="white"/>
<defs>
<linearGradient id="paint0_linear_1494_1912" x1="12.2879" y1="3.34966" x2="-5.09779" y2="37.3649" gradientUnits="userSpaceOnUse">
<stop stop-color="#FF8C00"/>
<stop offset="1" stop-color="#FFEC00"/>
</linearGradient>
<linearGradient id="paint1_linear_1494_1912" x1="18.5152" y1="-4.34249" x2="-1.14369" y2="36.2041" gradientUnits="userSpaceOnUse">
<stop stop-color="#FFEC00"/>
<stop offset="1" stop-color="#FF8C00"/>
</linearGradient>
</defs>
</svg>
