<svg width="47" height="47" viewBox="0 0 47 47" fill="none" xmlns="http://www.w3.org/2000/svg">
<path fill-rule="evenodd" clip-rule="evenodd" d="M5.63531 7.06982C5.63531 7.06982 0.413359 15.1979 0.146836 17.576C-0.799201 26.0171 3.03615 26.907 5.63531 32.4272C9.27396 40.155 12.0258 45.3996 20.6493 46.9993C54.4739 47.1334 10.9261 20.1625 10.9261 20.1625L5.63531 7.06982Z" fill="url(#paint0_linear_1494_1905)"/>
<path fill-rule="evenodd" clip-rule="evenodd" d="M11.0352 25.4795C12.8543 31.5911 11.555 46.6099 24.501 46.6099C37.4469 46.6099 50.9189 37.4183 45.94 16.7219C40.9612 -3.97451 9.94737 -4.42908 4.30862 9.69982C0.608754 16.9172 9.21607 19.368 11.0352 25.4795Z" fill="url(#paint1_linear_1494_1905)"/>
<path d="M34.0371 17.4551L27.7324 11.1504C27.5566 10.9746 27.3193 10.875 27.0703 10.875H14.625C14.1064 10.875 13.6875 11.2939 13.6875 11.8125V36.1875C13.6875 36.7061 14.1064 37.125 14.625 37.125H33.375C33.8936 37.125 34.3125 36.7061 34.3125 36.1875V18.1201C34.3125 17.8711 34.2129 17.6309 34.0371 17.4551ZM32.1504 18.5508H26.6367V13.0371L32.1504 18.5508ZM32.2031 35.0156H15.7969V12.9844H24.6445V19.3125C24.6445 19.6388 24.7742 19.9518 25.0049 20.1826C25.2357 20.4133 25.5487 20.543 25.875 20.543H32.2031V35.0156ZM24.9375 22.8281C24.9375 22.6992 24.832 22.5938 24.7031 22.5938H23.2969C23.168 22.5938 23.0625 22.6992 23.0625 22.8281V25.9922H19.8984C19.7695 25.9922 19.6641 26.0977 19.6641 26.2266V27.6328C19.6641 27.7617 19.7695 27.8672 19.8984 27.8672H23.0625V31.0312C23.0625 31.1602 23.168 31.2656 23.2969 31.2656H24.7031C24.832 31.2656 24.9375 31.1602 24.9375 31.0312V27.8672H28.1016C28.2305 27.8672 28.3359 27.7617 28.3359 27.6328V26.2266C28.3359 26.0977 28.2305 25.9922 28.1016 25.9922H24.9375V22.8281Z" fill="white"/>
<defs>
<linearGradient id="paint0_linear_1494_1905" x1="12.2879" y1="3.34966" x2="-5.09779" y2="37.3649" gradientUnits="userSpaceOnUse">
<stop stop-color="#FF8C00"/>
<stop offset="1" stop-color="#FFEC00"/>
</linearGradient>
<linearGradient id="paint1_linear_1494_1905" x1="18.5152" y1="-4.34249" x2="-1.14369" y2="36.2041" gradientUnits="userSpaceOnUse">
<stop stop-color="#FFEC00"/>
<stop offset="1" stop-color="#FF8C00"/>
</linearGradient>
</defs>
</svg>
