<svg width="47" height="47" viewBox="0 0 47 47" fill="none" xmlns="http://www.w3.org/2000/svg">
<path fill-rule="evenodd" clip-rule="evenodd" d="M5.63531 7.06982C5.63531 7.06982 0.413359 15.1979 0.146836 17.576C-0.799201 26.0171 3.03615 26.907 5.63531 32.4272C9.27396 40.155 12.0258 45.3996 20.6493 46.9993C54.4739 47.1334 10.9261 20.1625 10.9261 20.1625L5.63531 7.06982Z" fill="url(#paint0_linear_1494_1928)"/>
<path fill-rule="evenodd" clip-rule="evenodd" d="M11.0352 25.4795C12.8543 31.5911 11.555 46.6099 24.501 46.6099C37.4469 46.6099 50.9189 37.4183 45.94 16.7219C40.9612 -3.97451 9.94737 -4.42908 4.30862 9.69982C0.608754 16.9172 9.21607 19.368 11.0352 25.4795Z" fill="url(#paint1_linear_1494_1928)"/>
<path d="M34.0371 16.4551L27.7324 10.1504C27.5566 9.97461 27.3193 9.875 27.0703 9.875H14.625C14.1064 9.875 13.6875 10.2939 13.6875 10.8125V35.1875C13.6875 35.7061 14.1064 36.125 14.625 36.125H33.375C33.8936 36.125 34.3125 35.7061 34.3125 35.1875V17.1201C34.3125 16.8711 34.2129 16.6309 34.0371 16.4551ZM32.1504 17.5508H26.6367V12.0371L32.1504 17.5508ZM32.2031 34.0156H15.7969V11.9844H24.6445V18.3125C24.6445 18.6388 24.7742 18.9518 25.0049 19.1826C25.2357 19.4133 25.5487 19.543 25.875 19.543H32.2031V34.0156ZM23.7656 26.1055H18.375C18.2461 26.1055 18.1406 26.2109 18.1406 26.3398V27.7461C18.1406 27.875 18.2461 27.9805 18.375 27.9805H23.7656C23.8945 27.9805 24 27.875 24 27.7461V26.3398C24 26.2109 23.8945 26.1055 23.7656 26.1055ZM18.1406 22.3555V23.7617C18.1406 23.8906 18.2461 23.9961 18.375 23.9961H29.625C29.7539 23.9961 29.8594 23.8906 29.8594 23.7617V22.3555C29.8594 22.2266 29.7539 22.1211 29.625 22.1211H18.375C18.2461 22.1211 18.1406 22.2266 18.1406 22.3555Z" fill="white"/>
<defs>
<linearGradient id="paint0_linear_1494_1928" x1="12.2879" y1="3.34966" x2="-5.09779" y2="37.3649" gradientUnits="userSpaceOnUse">
<stop stop-color="#FF8C00"/>
<stop offset="1" stop-color="#FFEC00"/>
</linearGradient>
<linearGradient id="paint1_linear_1494_1928" x1="18.5152" y1="-4.34249" x2="-1.14369" y2="36.2041" gradientUnits="userSpaceOnUse">
<stop stop-color="#FFEC00"/>
<stop offset="1" stop-color="#FF8C00"/>
</linearGradient>
</defs>
</svg>
