<svg width="47" height="47" viewBox="0 0 47 47" fill="none" xmlns="http://www.w3.org/2000/svg">
<path fill-rule="evenodd" clip-rule="evenodd" d="M5.63531 7.06982C5.63531 7.06982 0.413359 15.1979 0.146836 17.576C-0.799201 26.0171 3.03615 26.907 5.63531 32.4272C9.27396 40.155 12.0258 45.3996 20.6493 46.9993C54.4739 47.1334 10.9261 20.1625 10.9261 20.1625L5.63531 7.06982Z" fill="url(#paint0_linear_1494_1920)"/>
<path fill-rule="evenodd" clip-rule="evenodd" d="M11.0352 25.4795C12.8543 31.5911 11.555 46.6099 24.501 46.6099C37.4469 46.6099 50.9189 37.4183 45.94 16.7219C40.9612 -3.97451 9.94737 -4.42908 4.30862 9.69982C0.608754 16.9172 9.21607 19.368 11.0352 25.4795Z" fill="url(#paint1_linear_1494_1920)"/>
<path d="M39.1875 21.0078H36.0234V17.6797C36.0234 17.1611 35.6045 16.7422 35.0859 16.7422H25.8574L22.4209 13.4551C22.3772 13.4141 22.3197 13.3911 22.2598 13.3906H14.8125C14.2939 13.3906 13.875 13.8096 13.875 14.3281V31.6719C13.875 32.1904 14.2939 32.6094 14.8125 32.6094H35.2617C35.6426 32.6094 35.9883 32.3779 36.1318 32.0234L40.0576 22.2969C40.1016 22.1855 40.125 22.0654 40.125 21.9453C40.125 21.4268 39.7061 21.0078 39.1875 21.0078ZM15.9844 15.5H21.5068L25.0107 18.8516H33.9141V21.0078H18.9727C18.5918 21.0078 18.2461 21.2393 18.1025 21.5938L15.9844 26.8438V15.5ZM34.5967 30.5H16.6582L19.6846 23H37.626L34.5967 30.5Z" fill="white"/>
<defs>
<linearGradient id="paint0_linear_1494_1920" x1="12.2879" y1="3.34966" x2="-5.09779" y2="37.3649" gradientUnits="userSpaceOnUse">
<stop stop-color="#FF8C00"/>
<stop offset="1" stop-color="#FFEC00"/>
</linearGradient>
<linearGradient id="paint1_linear_1494_1920" x1="18.5152" y1="-4.34249" x2="-1.14369" y2="36.2041" gradientUnits="userSpaceOnUse">
<stop stop-color="#FFEC00"/>
<stop offset="1" stop-color="#FF8C00"/>
</linearGradient>
</defs>
</svg>
