<svg width="251" height="69" viewBox="0 0 251 69" fill="none" xmlns="http://www.w3.org/2000/svg">
<path d="M74.8621 4.46826L203.362 4.46826L250.25 4.46826C182.86 4.46826 175.86 67 135.36 68.5676C94.8596 70.1353 73.3596 4.46826 20.3596 4.46826C-32.6404 4.46826 36.3997 4.47052 20.8997 4.47052L74.8621 4.46826Z" fill="#185D98"/>
<path d="M134.462 28.2137L152.619 14.7043C152.837 14.5455 152.959 14.2968 152.959 14.0375V9.94713C152.959 9.5926 152.53 9.39681 152.241 9.61376L133.365 23.6576L114.49 9.61376C114.424 9.5649 114.345 9.53459 114.262 9.52628C114.179 9.51797 114.096 9.53201 114.021 9.56679C113.946 9.60156 113.883 9.65567 113.839 9.72293C113.795 9.79019 113.771 9.86789 113.771 9.94713V14.0375C113.771 14.2968 113.9 14.5455 114.111 14.7043L132.263 28.2137C132.914 28.6952 133.816 28.6952 134.462 28.2137V28.2137ZM134.462 44.3001L152.619 30.7907C152.837 30.632 152.959 30.3832 152.959 30.124V26.0336C152.959 25.679 152.53 25.4832 152.241 25.7002L133.365 39.7441L114.49 25.7002C114.424 25.6513 114.345 25.621 114.262 25.6127C114.179 25.6044 114.096 25.6184 114.021 25.6532C113.946 25.688 113.883 25.7421 113.839 25.8094C113.795 25.8766 113.771 25.9543 113.771 26.0336V30.124C113.771 30.3832 113.9 30.632 114.111 30.7907L132.263 44.3001C132.914 44.7817 133.816 44.7817 134.462 44.3001V44.3001Z" fill="#FAAD14"/>
</svg>
