<svg width="62" height="63" viewBox="0 0 62 63" fill="none" xmlns="http://www.w3.org/2000/svg">
<path fill-rule="evenodd" clip-rule="evenodd" d="M7.31522 10C7.31522 10 0.536584 20.7886 0.190608 23.945C-1.03745 35.149 3.94123 36.3302 7.31522 43.6573C12.0386 53.9146 15.6108 60.8757 26.8049 62.9991C70.7129 63.1771 14.1832 27.3781 14.1832 27.3781L7.31522 10Z" fill="url(#paint0_linear_1074_2329)"/>
<path fill-rule="evenodd" clip-rule="evenodd" d="M14.1629 33.8926C16.5826 42.0222 14.8544 62 32.0739 62C49.2934 62 67.2126 49.7735 60.5902 22.2433C53.9678 -5.28685 12.716 -5.89151 5.21584 12.9026C0.294608 22.5031 11.7433 25.7631 14.1629 33.8926Z" fill="url(#paint1_linear_1074_2329)"/>
<defs>
<linearGradient id="paint0_linear_1074_2329" x1="15.951" y1="5.06217" x2="-7.42431" y2="49.7895" gradientUnits="userSpaceOnUse">
<stop stop-color="#FF8C00"/>
<stop offset="1" stop-color="#FFEC00"/>
</linearGradient>
<linearGradient id="paint1_linear_1074_2329" x1="24.1122" y1="-5.77633" x2="-2.03885" y2="48.1571" gradientUnits="userSpaceOnUse">
<stop stop-color="#FFEC00"/>
<stop offset="1" stop-color="#FF8C00"/>
</linearGradient>
</defs>
</svg>
