<svg width="417" height="225" viewBox="0 0 417 225" fill="none" xmlns="http://www.w3.org/2000/svg">
<path d="M204 18.4219H205.5V19.8301L204.095 19.9189L204 18.4219ZM204 8.15538L204.117 6.65996L205.5 6.76818V8.15538H204ZM135.228 34.6113L136.31 35.6497L135.337 36.6647L134.261 35.7584L135.228 34.6113ZM103.832 8.15538V6.65538H104.379L104.798 7.00833L103.832 8.15538ZM16 8.15538C16 12.5737 12.4183 16.1554 8 16.1554C3.58173 16.1554 0 12.5737 0 8.15538C0 3.73711 3.58173 0.155385 8 0.155385C12.4183 0.155385 16 3.73711 16 8.15538ZM113.304 96.8381C116.012 71.8965 137.955 21.0925 203.905 16.9249L204.095 19.9189C140.076 23.9644 118.895 73.1403 116.287 97.1619L113.304 96.8381ZM202.5 18.4219V8.15538H205.5V18.4219H202.5ZM203.883 9.65081C190.7 8.61918 158.62 12.3908 136.31 35.6497L134.145 33.573C157.285 9.44808 190.389 5.58564 204.117 6.65996L203.883 9.65081ZM134.261 35.7584L102.865 9.30244L104.798 7.00833L136.194 33.4643L134.261 35.7584ZM103.832 9.65538H8V6.65538H103.832V9.65538Z" fill="#15417E"/>
<path d="M215 206.578H213.5V205.17L214.905 205.081L215 206.578ZM215 216.845L214.883 218.34L213.5 218.232V216.845H215ZM283.772 190.389L282.69 189.35L283.663 188.335L284.739 189.242L283.772 190.389ZM315.168 216.845V218.345H314.621L314.202 217.992L315.168 216.845ZM397.5 216.845C397.5 212.426 401.082 208.845 405.5 208.845C409.918 208.845 413.5 212.426 413.5 216.845C413.5 221.263 409.918 224.845 405.5 224.845C401.082 224.845 397.5 221.263 397.5 216.845ZM305.696 128.162C302.988 153.104 281.045 203.908 215.095 208.075L214.905 205.081C278.924 201.036 300.105 151.86 302.713 127.838L305.696 128.162ZM216.5 206.578V216.845H213.5V206.578H216.5ZM215.117 215.349C228.3 216.381 260.38 212.609 282.69 189.35L284.855 191.427C261.715 215.552 228.611 219.414 214.883 218.34L215.117 215.349ZM284.739 189.242L316.135 215.698L314.202 217.992L282.806 191.536L284.739 189.242ZM315.168 215.345H405.5V218.345H315.168V215.345Z" fill="#13C2C2"/>
<path d="M204 206.578H205.5V205.17L204.095 205.081L204 206.578ZM204 216.845L204.117 218.34L205.5 218.232V216.845H204ZM135.228 190.389L136.31 189.35L135.337 188.335L134.261 189.242L135.228 190.389ZM103.832 216.845V218.345H104.379L104.798 217.992L103.832 216.845ZM17.5 216.845C17.5 212.426 13.9183 208.845 9.5 208.845C5.08173 208.845 1.5 212.426 1.5 216.845C1.5 221.263 5.08173 224.845 9.5 224.845C13.9183 224.845 17.5 221.263 17.5 216.845ZM113.304 128.162C116.012 153.104 137.955 203.908 203.905 208.075L204.095 205.081C140.076 201.036 118.895 151.86 116.287 127.838L113.304 128.162ZM202.5 206.578V216.845H205.5V206.578H202.5ZM203.883 215.349C190.7 216.381 158.62 212.609 136.31 189.35L134.145 191.427C157.285 215.552 190.389 219.414 204.117 218.34L203.883 215.349ZM134.261 189.242L102.865 215.698L104.798 217.992L136.194 191.536L134.261 189.242ZM103.832 215.345H9.5V218.345H103.832V215.345Z" fill="#A0D911"/>
<path d="M215 18.4219H213.5V19.8301L214.905 19.9189L215 18.4219ZM215 8.15538L214.883 6.65996L213.5 6.76818V8.15538H215ZM283.772 34.6113L282.69 35.6497L283.663 36.6647L284.739 35.7584L283.772 34.6113ZM315.168 8.15538V6.65538H314.621L314.202 7.00833L315.168 8.15538ZM401 8.15538C401 12.5737 404.582 16.1554 409 16.1554C413.418 16.1554 417 12.5737 417 8.15538C417 3.73711 413.418 0.155385 409 0.155385C404.582 0.155385 401 3.73711 401 8.15538ZM305.696 96.8381C302.988 71.8965 281.045 21.0925 215.095 16.9249L214.905 19.9189C278.924 23.9644 300.105 73.1403 302.713 97.1619L305.696 96.8381ZM216.5 18.4219V8.15538H213.5V18.4219H216.5ZM215.117 9.65081C228.3 8.61918 260.38 12.3908 282.69 35.6497L284.855 33.573C261.715 9.44808 228.611 5.58564 214.883 6.65996L215.117 9.65081ZM284.739 35.7584L316.135 9.30244L314.202 7.00833L282.806 33.4643L284.739 35.7584ZM315.168 9.65538H409V6.65538H315.168V9.65538Z" fill="#FAAD14"/>
<path d="M127 44C109.167 67.8333 84.2003 128.9 127 182.5" stroke="#15417E" stroke-width="3"/>
<path d="M296 182.5C313.833 158.667 338.8 97.6 296 44" stroke="#15417E" stroke-width="3"/>
<ellipse cx="209" cy="112" rx="87" ry="85" fill="#15417E"/>
<g filter="url(#filter0_d_1196_1518)">
<ellipse cx="209" cy="112" rx="72" ry="70.4286" fill="white"/>
</g>
<defs>
<filter id="filter0_d_1196_1518" x="128.9" y="38.4715" width="160.2" height="157.057" filterUnits="userSpaceOnUse" color-interpolation-filters="sRGB">
<feFlood flood-opacity="0" result="BackgroundImageFix"/>
<feColorMatrix in="SourceAlpha" type="matrix" values="0 0 0 0 0 0 0 0 0 0 0 0 0 0 0 0 0 0 127 0" result="hardAlpha"/>
<feOffset dy="5"/>
<feGaussianBlur stdDeviation="4.05"/>
<feComposite in2="hardAlpha" operator="out"/>
<feColorMatrix type="matrix" values="0 0 0 0 0 0 0 0 0 0 0 0 0 0 0 0 0 0 0.2 0"/>
<feBlend mode="normal" in2="BackgroundImageFix" result="effect1_dropShadow_1196_1518"/>
<feBlend mode="normal" in="SourceGraphic" in2="effect1_dropShadow_1196_1518" result="shape"/>
</filter>
</defs>
</svg>
