<svg width="186" height="328" viewBox="0 0 186 328" fill="none" xmlns="http://www.w3.org/2000/svg">
<path d="M88.8802 116.277L88.8966 116.302C89.7563 115.909 90.8944 115.925 92.1962 116.506C95.2666 117.865 98.0341 121.664 98.378 124.988C98.5254 126.429 98.1815 127.518 97.5101 128.205L97.5265 128.23L34.579 186.061L7.44482 144.358L88.8802 116.277Z" fill="url(#paint0_linear_1251_1952)"/>
<path d="M88.8802 116.277L88.8966 116.302C89.7563 115.909 90.8944 115.925 92.1962 116.506C95.2666 117.865 98.0341 121.664 98.378 124.988C98.5254 126.429 98.1815 127.518 97.5101 128.205L97.5265 128.23L34.579 186.061L7.44482 144.358L88.8802 116.277Z" fill="url(#paint1_linear_1251_1952)"/>
<path d="M17.1062 145.692C27.5292 150.309 36.9205 163.195 38.0996 174.46C39.2704 185.741 31.7786 191.136 21.3556 186.527C10.9326 181.91 1.54126 169.024 0.36222 157.743C-0.808628 146.478 6.68316 141.075 17.1062 145.692Z" fill="url(#paint2_linear_1251_1952)"/>
<path d="M17.3026 147.632C26.7349 151.807 35.2338 163.474 36.2982 173.666C37.3626 183.875 30.575 188.762 21.1509 184.579C11.7186 180.404 3.21972 168.738 2.15531 158.537C1.0909 148.336 7.87854 143.449 17.3026 147.632Z" fill="url(#paint3_linear_1251_1952)"/>
<path d="M25.6461 180.944C16.2138 176.769 7.71494 165.103 6.65053 154.902C6.29027 151.472 6.83884 148.656 8.05882 146.576C10.5806 145.782 13.7575 146.069 17.3028 147.64C26.7351 151.816 35.234 163.482 36.2984 173.674C36.6586 177.113 36.1101 179.921 34.8819 182.008C32.3601 182.802 29.1914 182.516 25.6379 180.944H25.6461Z" fill="url(#paint4_linear_1251_1952)"/>
<path d="M17.1061 187.583C17.45 187.583 17.802 187.526 18.1459 187.395C27.6273 183.916 31.3036 178.046 31.451 177.8C32.3189 176.384 31.8768 174.534 30.4521 173.666C29.0438 172.806 27.2016 173.24 26.3255 174.64C26.1781 174.869 23.4025 179.053 16.0662 181.746C14.5024 182.319 13.7082 184.047 14.2813 185.61C14.7316 186.83 15.8779 187.583 17.1061 187.583Z" fill="url(#paint5_linear_1251_1952)"/>
<path d="M3.79275 180.862C4.84078 180.862 5.85606 180.314 6.41282 179.348C9.36041 174.19 16.1972 172.462 16.2627 172.446C17.8839 172.07 18.8828 170.449 18.5061 168.828C18.1295 167.207 16.5083 166.208 14.8872 166.584C14.5023 166.675 5.46305 168.869 1.18085 176.368C0.353891 177.808 0.861527 179.65 2.30257 180.469C2.76927 180.739 3.28511 180.862 3.79275 180.862Z" fill="url(#paint6_linear_1251_1952)"/>
<path d="M13.5118 175.377C13.8557 175.377 14.2078 175.32 14.5517 175.189C24.0331 171.709 27.7094 165.839 27.8568 165.594C28.7247 164.178 28.2825 162.327 26.8579 161.46C25.4414 160.6 23.6073 161.034 22.7313 162.434C22.5839 162.663 19.8082 166.846 12.472 169.54C10.9082 170.113 10.1139 171.84 10.6871 173.404C11.1374 174.624 12.2837 175.377 13.5118 175.377Z" fill="url(#paint7_linear_1251_1952)"/>
<path d="M3.449 167.403C4.49703 167.403 5.51231 166.855 6.06907 165.889C9.01666 160.731 15.8534 159.004 15.9189 158.987C17.5401 158.611 18.539 156.99 18.1624 155.369C17.7857 153.748 16.1564 152.741 14.5434 153.126C14.1586 153.216 5.1193 155.41 0.837103 162.909C0.0101405 164.35 0.517777 166.192 1.95882 167.01C2.42552 167.28 2.94136 167.403 3.449 167.403Z" fill="url(#paint8_linear_1251_1952)"/>
<g style="mix-blend-mode:hard-light" opacity="0.3">
<path d="M81.7974 293.937C81.7974 283.638 96.0604 275.255 113.59 275.255C131.12 275.255 145.383 283.638 145.383 293.937C145.383 304.236 131.12 312.619 113.59 312.619C96.0604 312.619 81.7974 304.236 81.7974 293.937ZM84.5403 293.937C84.5403 303.073 97.5752 310.507 113.59 310.507C129.606 310.507 142.641 303.073 142.641 293.937C142.641 284.8 129.606 277.367 113.59 277.367C97.5752 277.367 84.5403 284.8 84.5403 293.937Z" fill="url(#paint9_linear_1251_1952)"/>
</g>
<g style="mix-blend-mode:hard-light" opacity="0.1">
<path d="M90.1572 313.356C90.1572 305.767 100.67 299.586 113.591 299.586C126.511 299.586 137.024 305.758 137.024 313.356C137.024 320.945 126.511 327.126 113.591 327.126C100.67 327.126 90.1572 320.953 90.1572 313.356ZM92.1632 313.356C92.1632 320.093 101.776 325.578 113.591 325.578C125.405 325.578 135.018 320.093 135.018 313.356C135.018 306.618 125.405 301.133 113.591 301.133C101.776 301.133 92.1632 306.618 92.1632 313.356Z" fill="url(#paint10_linear_1251_1952)"/>
</g>
<g style="mix-blend-mode:hard-light" opacity="0.5">
<path d="M63.4326 262.189C63.4326 245.938 85.9326 232.717 113.591 232.717C141.249 232.717 163.749 245.938 163.749 262.189C163.749 278.439 141.249 291.661 113.591 291.661C85.9326 291.661 63.4326 278.439 63.4326 262.189ZM66.5931 262.189C66.5931 276.974 87.6766 289 113.591 289C139.505 289 160.588 276.974 160.588 262.189C160.588 247.404 139.505 235.377 113.591 235.377C87.6766 235.377 66.5931 247.404 66.5931 262.189Z" fill="url(#paint11_linear_1251_1952)"/>
</g>
<path d="M43.9048 139.855H182.368L154.382 254.649C153.498 259.487 149.486 264.203 142.346 267.903C126.11 276.327 99.8844 276.327 83.7546 267.903C76.6558 264.203 72.7093 259.487 71.8905 254.649L43.9048 139.855Z" fill="url(#paint12_linear_1251_1952)"/>
<path d="M43.9048 139.855H182.368L154.382 254.649C153.498 259.487 149.486 264.203 142.346 267.903C126.11 276.327 99.8844 276.327 83.7546 267.903C76.6558 264.203 72.7093 259.487 71.8905 254.649L43.9048 139.855Z" fill="url(#paint13_linear_1251_1952)"/>
<path style="mix-blend-mode:multiply" opacity="0.7" d="M43.9048 139.855H182.368L154.382 254.649C153.498 259.487 149.486 264.203 142.346 267.903C126.11 276.327 99.8844 276.327 83.7546 267.903C76.6558 264.203 72.7093 259.487 71.8905 254.649L43.9048 139.855Z" fill="url(#paint14_linear_1251_1952)"/>
<path d="M64.0794 106.969C91.3528 91.2259 135.452 91.2177 162.562 106.969C189.68 122.728 189.516 148.263 162.242 164.006C134.953 179.757 90.8534 179.773 63.7437 164.006C36.6259 148.246 36.7897 122.712 64.0794 106.961" fill="url(#paint15_linear_1251_1952)"/>
<g style="mix-blend-mode:multiply" opacity="0.7">
<path d="M64.0794 106.969C91.3528 91.2259 135.452 91.2177 162.562 106.969C189.68 122.728 189.516 148.263 162.242 164.006C134.953 179.757 90.8534 179.773 63.7437 164.006C36.6259 148.246 36.7897 122.712 64.0794 106.961" fill="url(#paint16_linear_1251_1952)"/>
</g>
<path d="M64.0794 106.969C91.3528 91.2259 135.452 91.2177 162.562 106.969C189.68 122.728 189.516 148.263 162.242 164.006C134.953 179.757 90.8534 179.773 63.7437 164.006C36.6259 148.246 36.7897 122.712 64.0794 106.961" fill="url(#paint17_linear_1251_1952)"/>
<path d="M78.8499 105.528C97.9192 94.5169 128.746 94.5169 147.701 105.528C166.655 116.539 166.549 134.394 147.48 145.405C128.402 156.417 97.5753 156.425 78.6125 145.405C59.6579 134.394 59.7643 116.539 78.8499 105.52" fill="url(#paint18_linear_1251_1952)"/>
<path d="M79.4477 108.696C98.1813 97.9963 128.476 97.9881 147.095 108.696C158.157 115.057 162.57 123.752 160.433 132.012C158.394 136.916 154.104 141.582 147.48 145.414C138.195 150.776 126.126 153.51 113.992 153.649C113.656 153.649 113.329 153.674 112.993 153.674C100.531 153.674 88.0858 150.923 78.6126 145.414C72.0951 141.623 67.8866 137.022 65.8724 132.168C63.7354 123.858 68.2469 115.098 79.4477 108.696Z" fill="url(#paint19_linear_1251_1952)"/>
<path style="mix-blend-mode:hard-light" opacity="0.1" d="M113.591 155.573C121.395 155.573 127.723 151.908 127.723 147.387C127.723 142.865 121.395 139.2 113.591 139.2C105.786 139.2 99.4585 142.865 99.4585 147.387C99.4585 151.908 105.786 155.573 113.591 155.573Z" fill="url(#paint20_radial_1251_1952)"/>
<path style="mix-blend-mode:hard-light" opacity="0.1" d="M113.591 151.578C125.235 151.578 134.674 146.11 134.674 139.364C134.674 132.618 125.235 127.149 113.591 127.149C101.947 127.149 92.5073 132.618 92.5073 139.364C92.5073 146.11 101.947 151.578 113.591 151.578Z" fill="url(#paint21_radial_1251_1952)"/>
<path style="mix-blend-mode:hard-light" d="M113.591 152.11C139.135 152.11 159.843 140.117 159.843 125.323C159.843 110.529 139.135 98.5366 113.591 98.5366C88.0459 98.5366 67.3379 110.529 67.3379 125.323C67.3379 140.117 88.0459 152.11 113.591 152.11Z" fill="url(#paint22_radial_1251_1952)"/>
<path d="M175.213 83.0509C180.885 48.5272 157.493 15.9421 122.965 10.2701C88.4373 4.59807 55.848 27.987 50.1752 62.5106C44.5025 97.0343 67.8944 129.619 102.422 135.291C136.951 140.963 169.54 117.575 175.213 83.0509Z" fill="url(#paint23_linear_1251_1952)"/>
<path d="M175.213 83.0509C180.885 48.5272 157.493 15.9421 122.965 10.2701C88.4373 4.59807 55.848 27.987 50.1752 62.5106C44.5025 97.0343 67.8944 129.619 102.422 135.291C136.951 140.963 169.54 117.575 175.213 83.0509Z" fill="url(#paint24_linear_1251_1952)"/>
<path style="mix-blend-mode:multiply" opacity="0.7" d="M175.213 83.0509C180.885 48.5272 157.493 15.9421 122.965 10.2701C88.4373 4.59807 55.848 27.987 50.1752 62.5106C44.5025 97.0343 67.8944 129.619 102.422 135.291C136.951 140.963 169.54 117.575 175.213 83.0509Z" fill="url(#paint25_linear_1251_1952)"/>
<path d="M44.8218 52.1589L53.0341 46.4364C55.2939 44.971 58.438 45.1348 61.9833 47.1814L100.073 69.1709C106.869 73.0923 112.346 82.6217 112.346 90.4318C112.346 104.464 103.831 109.703 94.6033 106.289L61.9014 75.4829C55.3103 71.676 49.9801 62.6216 49.6853 54.9342L44.8218 52.1589Z" fill="url(#paint26_linear_1251_1952)"/>
<path d="M54.0412 52.3063L92.8266 74.6969C99.7452 78.692 105.354 89.4084 105.329 97.3577C105.305 105.323 99.6715 109.392 92.7447 105.397L53.9593 83.0064C47.0407 79.0113 41.4321 68.4505 41.4566 60.4848C41.4812 52.5355 47.1144 48.303 54.0412 52.3063Z" fill="url(#paint27_linear_1251_1952)"/>
<path d="M54.4422 54.2629L91.7947 75.8267C98.4595 79.6744 103.855 89.0155 103.831 96.6782C103.806 104.349 98.3776 107.427 91.7128 103.58L54.3603 82.0158C47.6955 78.1681 42.2997 68.8434 42.3243 61.1643C42.3489 53.5097 47.7773 50.4152 54.4422 54.2629Z" fill="url(#paint28_linear_1251_1952)"/>
<path d="M95.1601 101.582L57.8076 80.0183C51.1427 76.1705 45.747 66.8459 45.7716 59.1668C45.7716 56.3669 46.5167 54.1892 47.7612 52.7238C49.6771 52.3636 51.9779 52.8303 54.4424 54.2547L91.7949 75.8185C98.4598 79.6663 103.855 89.0073 103.831 96.67C103.831 99.4699 103.086 101.656 101.841 103.113C99.9254 103.473 97.6246 102.998 95.1519 101.574L95.1601 101.582Z" fill="url(#paint29_linear_1251_1952)"/>
<path style="mix-blend-mode:hard-light" d="M79.6607 88.9991C76.0991 82.8345 76.1072 76.1623 79.6853 74.0993C83.2552 72.0362 89.0357 75.36 92.5974 81.5246C96.159 87.6892 96.1509 94.3614 92.5728 96.4244C89.0029 98.4875 83.2224 95.1637 79.6607 88.9991Z" fill="url(#paint30_radial_1251_1952)"/>
<path style="mix-blend-mode:hard-light" d="M53.1485 72.6257C49.5869 66.4611 49.595 59.7889 53.1731 57.7259C56.7429 55.6628 62.5235 58.9866 66.0852 65.1512C69.6468 71.3158 69.6386 77.988 66.0606 80.051C62.4907 82.1141 56.7102 78.7903 53.1485 72.6257Z" fill="url(#paint31_radial_1251_1952)"/>
<g style="mix-blend-mode:hard-light" opacity="0.04">
<path d="M91.7949 75.8267C93.1623 76.6126 94.4723 77.6441 95.6922 78.8312L103.765 95.1227C103.815 95.6467 103.839 96.1625 103.839 96.67C103.839 99.4699 103.094 101.656 101.849 103.113C99.9335 103.473 97.6327 102.998 95.16 101.574L86.4565 96.5472L69.9336 63.1946L91.7949 75.8185V75.8267Z" fill="white"/>
</g>
<g style="mix-blend-mode:hard-light" opacity="0.04">
<path d="M84.303 95.311L73.8227 89.2611L57.2998 55.9084L67.7883 61.9666L84.303 95.311Z" fill="white"/>
</g>
<g style="mix-blend-mode:hard-light" opacity="0.04">
<path d="M47.3679 53.3051L61.721 82.2778L57.8073 80.0183C57.8073 80.0183 57.75 79.9774 57.7172 79.961L46.0742 56.4488C46.3362 55.2126 46.7784 54.1647 47.3679 53.3051Z" fill="white"/>
</g>
<path d="M148.642 83.0555C144.442 85.4788 141.044 91.3569 141.061 96.187C141.077 101.017 144.491 102.957 148.692 100.534C152.892 98.1109 156.29 92.2328 156.273 87.4027C156.257 82.5807 152.843 80.6323 148.642 83.0555Z" fill="url(#paint32_linear_1251_1952)"/>
<path d="M148.642 83.0555C150.346 82.0731 151.918 81.8193 153.195 82.1714C154.136 83.0801 154.701 84.5537 154.71 86.494C154.726 91.3241 151.328 97.2022 147.128 99.6254C145.425 100.608 143.853 100.862 142.575 100.51C141.634 99.6009 141.069 98.1273 141.061 96.187C141.044 91.365 144.442 85.487 148.642 83.0555Z" fill="url(#paint33_linear_1251_1952)"/>
<path d="M154.284 81.9749C147.946 85.6343 142.821 94.5005 142.845 101.779C142.87 109.056 148.02 111.996 154.357 108.336C160.695 104.677 165.82 95.8104 165.796 88.5242C165.771 81.2463 160.621 78.3154 154.284 81.9667" stroke="url(#paint34_linear_1251_1952)" stroke-miterlimit="10"/>
<g opacity="0.5">
<path d="M163.724 93.3299C159.761 95.614 156.56 101.165 156.568 105.716C156.584 110.268 159.802 112.11 163.765 109.818C167.728 107.534 170.929 101.983 170.921 97.4314C170.905 92.8796 167.687 91.0458 163.724 93.3299Z" fill="url(#paint35_radial_1251_1952)"/>
</g>
<path d="M161.825 170.228C157.665 172.626 154.308 178.439 154.325 183.212C154.341 187.984 157.714 189.908 161.874 187.51C166.033 185.111 169.39 179.298 169.374 174.517C169.357 169.745 165.984 167.821 161.825 170.219" fill="url(#paint36_linear_1251_1952)"/>
<path d="M161.825 170.228C163.511 169.253 165.067 169 166.328 169.36C167.261 170.26 167.818 171.709 167.826 173.633C167.843 178.406 164.486 184.227 160.326 186.626C158.64 187.6 157.084 187.854 155.823 187.493C154.89 186.593 154.333 185.136 154.325 183.212C154.308 178.439 157.665 172.626 161.825 170.228Z" fill="url(#paint37_linear_1251_1952)"/>
<path d="M160.482 173.494L160.499 173.519C161.358 173.126 162.488 173.142 163.798 173.723C166.869 175.082 169.636 178.881 169.98 182.205C170.127 183.646 169.784 184.734 169.112 185.422L169.128 185.447L106.181 243.277L79.0469 201.574L160.482 173.494Z" fill="url(#paint38_linear_1251_1952)"/>
<path d="M160.482 173.494L160.499 173.519C161.358 173.126 162.488 173.142 163.798 173.723C166.869 175.082 169.636 178.881 169.98 182.205C170.127 183.646 169.784 184.734 169.112 185.422L169.128 185.447L106.181 243.277L79.0469 201.574L160.482 173.494Z" fill="url(#paint39_linear_1251_1952)"/>
<path d="M88.7082 202.909C99.1312 207.526 108.523 220.412 109.702 231.677C110.872 242.958 103.381 248.353 92.9576 243.744C82.5346 239.127 73.1433 226.241 71.9643 214.96C70.7934 203.695 78.2852 198.292 88.7082 202.909Z" fill="url(#paint40_linear_1251_1952)"/>
<path d="M88.913 204.849C98.3453 209.024 106.844 220.69 107.909 230.883C108.973 241.092 102.185 245.979 92.7612 241.796C83.329 237.62 74.8301 225.954 73.7657 215.754C72.7013 205.553 79.4889 200.666 88.913 204.849Z" fill="url(#paint41_linear_1251_1952)"/>
<path d="M97.2481 238.161C87.8159 233.986 79.317 222.319 78.2526 212.119C77.8923 208.689 78.4409 205.872 79.6609 203.793C82.1827 202.999 85.3596 203.285 88.9049 204.857C98.3371 209.032 106.836 220.699 107.9 230.891C108.261 234.329 107.712 237.137 106.484 239.225C103.962 240.019 100.793 239.733 97.24 238.161H97.2481Z" fill="url(#paint42_linear_1251_1952)"/>
<path d="M88.7164 244.792C89.0603 244.792 89.4124 244.735 89.7563 244.612C99.2377 241.133 102.914 235.263 103.061 235.017C103.929 233.601 103.487 231.751 102.062 230.883C100.654 230.023 98.812 230.457 97.9359 231.857C97.7885 232.086 95.0128 236.27 87.6766 238.963C86.1128 239.536 85.3185 241.264 85.8917 242.827C86.342 244.047 87.4883 244.8 88.7164 244.8V244.792Z" fill="url(#paint43_linear_1251_1952)"/>
<path d="M75.4031 238.079C76.4511 238.079 77.4664 237.53 78.0232 236.564C80.9708 231.407 87.8075 229.679 87.8731 229.663C89.4942 229.286 90.4931 227.665 90.1165 226.044C89.7398 224.423 88.1187 223.425 86.4975 223.801C86.1127 223.891 77.0734 226.085 72.7912 233.584C71.9642 235.025 72.4719 236.867 73.9129 237.686C74.3796 237.956 74.8955 238.079 75.4031 238.079Z" fill="url(#paint44_linear_1251_1952)"/>
<path d="M85.1222 232.594C85.4661 232.594 85.8182 232.536 86.162 232.406C95.6435 228.926 99.3198 223.056 99.4671 222.811C100.335 221.394 99.8929 219.544 98.4682 218.676C97.0518 217.817 95.2177 218.251 94.3416 219.651C94.1942 219.88 91.4186 224.063 84.0824 226.757C82.5185 227.33 81.7243 229.057 82.2974 230.621C82.7478 231.841 83.894 232.594 85.1222 232.594Z" fill="url(#paint45_linear_1251_1952)"/>
<path d="M75.0593 224.62C76.1074 224.62 77.1226 224.071 77.6794 223.105C80.627 217.948 87.4638 216.22 87.5293 216.204C89.1505 215.827 90.1494 214.206 89.7727 212.585C89.3961 210.965 87.7667 209.958 86.1537 210.342C85.7689 210.432 76.7296 212.626 72.4475 220.125C71.6205 221.566 72.1281 223.408 73.5692 224.227C74.0359 224.497 74.5517 224.62 75.0593 224.62Z" fill="url(#paint46_linear_1251_1952)"/>
<defs>
<linearGradient id="paint0_linear_1251_1952" x1="66.6504" y1="154.673" x2="53.937" y2="137.414" gradientUnits="userSpaceOnUse">
<stop stop-color="#86A4E1"/>
<stop offset="0.32" stop-color="#A9BEE9"/>
<stop offset="1" stop-color="white"/>
</linearGradient>
<linearGradient id="paint1_linear_1251_1952" x1="59.6417" y1="144.742" x2="70.7588" y2="160.634" gradientUnits="userSpaceOnUse">
<stop stop-color="#95B0EA" stop-opacity="0"/>
<stop offset="0.16" stop-color="#A3B3C9" stop-opacity="0.14"/>
<stop offset="0.52" stop-color="#C9BD75" stop-opacity="0.5"/>
<stop offset="1" stop-color="#FFCB00"/>
</linearGradient>
<linearGradient id="paint2_linear_1251_1952" x1="37.1743" y1="166.65" x2="14.8218" y2="165.978" gradientUnits="userSpaceOnUse">
<stop stop-color="#86A4E1"/>
<stop offset="0.32" stop-color="#A9BEE9"/>
<stop offset="1" stop-color="white"/>
</linearGradient>
<linearGradient id="paint3_linear_1251_1952" x1="13.3561" y1="157.522" x2="27.9032" y2="178.817" gradientUnits="userSpaceOnUse">
<stop stop-color="#86A4E1"/>
<stop offset="0.32" stop-color="#A9BEE9"/>
<stop offset="1" stop-color="white"/>
</linearGradient>
<linearGradient id="paint4_linear_1251_1952" x1="14.4207" y1="169.564" x2="26.2755" y2="160.697" gradientUnits="userSpaceOnUse">
<stop stop-color="#6754CC"/>
<stop offset="1" stop-color="#321C5F"/>
</linearGradient>
<linearGradient id="paint5_linear_1251_1952" x1="31.3335" y1="181.326" x2="14.636" y2="179.461" gradientUnits="userSpaceOnUse">
<stop stop-color="#86A4E1"/>
<stop offset="0.32" stop-color="#A9BEE9"/>
<stop offset="1" stop-color="white"/>
</linearGradient>
<linearGradient id="paint6_linear_1251_1952" x1="18.0201" y1="174.609" x2="1.32258" y2="172.744" gradientUnits="userSpaceOnUse">
<stop stop-color="#86A4E1"/>
<stop offset="0.32" stop-color="#A9BEE9"/>
<stop offset="1" stop-color="white"/>
</linearGradient>
<linearGradient id="paint7_linear_1251_1952" x1="27.7368" y1="169.12" x2="11.0394" y2="167.256" gradientUnits="userSpaceOnUse">
<stop stop-color="#86A4E1"/>
<stop offset="0.32" stop-color="#A9BEE9"/>
<stop offset="1" stop-color="white"/>
</linearGradient>
<linearGradient id="paint8_linear_1251_1952" x1="17.6773" y1="161.152" x2="0.979799" y2="159.287" gradientUnits="userSpaceOnUse">
<stop stop-color="#86A4E1"/>
<stop offset="0.32" stop-color="#A9BEE9"/>
<stop offset="1" stop-color="white"/>
</linearGradient>
<linearGradient id="paint9_linear_1251_1952" x1="113.59" y1="311.898" x2="113.59" y2="278.374" gradientUnits="userSpaceOnUse">
<stop stop-color="#FFCB00"/>
<stop offset="0.28" stop-color="#D6AB36" stop-opacity="0.73"/>
<stop offset="0.93" stop-color="#725CBC" stop-opacity="0.08"/>
<stop offset="1" stop-color="#6754CC" stop-opacity="0"/>
</linearGradient>
<linearGradient id="paint10_linear_1251_1952" x1="113.591" y1="326.594" x2="113.591" y2="301.886" gradientUnits="userSpaceOnUse">
<stop stop-color="#FFCB00"/>
<stop offset="0.28" stop-color="#D6AB36" stop-opacity="0.73"/>
<stop offset="0.93" stop-color="#725CBC" stop-opacity="0.08"/>
<stop offset="1" stop-color="#6754CC" stop-opacity="0"/>
</linearGradient>
<linearGradient id="paint11_linear_1251_1952" x1="113.591" y1="290.515" x2="113.591" y2="237.629" gradientUnits="userSpaceOnUse">
<stop stop-color="#FFCB00"/>
<stop offset="0.28" stop-color="#D6AB36" stop-opacity="0.73"/>
<stop offset="0.93" stop-color="#725CBC" stop-opacity="0.08"/>
<stop offset="1" stop-color="#6754CC" stop-opacity="0"/>
</linearGradient>
<linearGradient id="paint12_linear_1251_1952" x1="182.376" y1="207.035" x2="43.9048" y2="207.035" gradientUnits="userSpaceOnUse">
<stop stop-color="#86A4E1"/>
<stop offset="0.32" stop-color="#A9BEE9"/>
<stop offset="1" stop-color="white"/>
</linearGradient>
<linearGradient id="paint13_linear_1251_1952" x1="113.14" y1="231.014" x2="113.14" y2="271.988" gradientUnits="userSpaceOnUse">
<stop stop-color="#95B0EA" stop-opacity="0"/>
<stop offset="0.16" stop-color="#A3B3C9" stop-opacity="0.14"/>
<stop offset="0.52" stop-color="#C9BD75" stop-opacity="0.5"/>
<stop offset="1" stop-color="#FFCB00"/>
</linearGradient>
<linearGradient id="paint14_linear_1251_1952" x1="165.247" y1="212.512" x2="138.269" y2="205.863" gradientUnits="userSpaceOnUse">
<stop stop-color="#341E63" stop-opacity="0.97"/>
<stop offset="0.2" stop-color="#382568" stop-opacity="0.93"/>
<stop offset="0.41" stop-color="#463A77" stop-opacity="0.81"/>
<stop offset="0.61" stop-color="#5E5E90" stop-opacity="0.61"/>
<stop offset="0.82" stop-color="#7F90B3" stop-opacity="0.32"/>
<stop offset="1" stop-color="#A5C9DB" stop-opacity="0"/>
</linearGradient>
<linearGradient id="paint15_linear_1251_1952" x1="113.157" y1="114.722" x2="113.157" y2="157.473" gradientUnits="userSpaceOnUse">
<stop stop-color="#86A4E1"/>
<stop offset="0.32" stop-color="#A9BEE9"/>
<stop offset="1" stop-color="white"/>
</linearGradient>
<linearGradient id="paint16_linear_1251_1952" x1="127.862" y1="96.097" x2="116.672" y2="126.086" gradientUnits="userSpaceOnUse">
<stop stop-color="#341E63" stop-opacity="0.97"/>
<stop offset="1" stop-color="#A5C9DB" stop-opacity="0"/>
</linearGradient>
<linearGradient id="paint17_linear_1251_1952" x1="115.31" y1="152.266" x2="118.961" y2="180.682" gradientUnits="userSpaceOnUse">
<stop stop-color="#95B0EA" stop-opacity="0"/>
<stop offset="0.16" stop-color="#A3B3C9" stop-opacity="0.14"/>
<stop offset="0.52" stop-color="#C9BD75" stop-opacity="0.5"/>
<stop offset="1" stop-color="#FFCB00"/>
</linearGradient>
<linearGradient id="paint18_linear_1251_1952" x1="112.764" y1="148.746" x2="113.361" y2="113.42" gradientUnits="userSpaceOnUse">
<stop stop-color="#86A4E1"/>
<stop offset="0.32" stop-color="#A9BEE9"/>
<stop offset="1" stop-color="white"/>
</linearGradient>
<linearGradient id="paint19_linear_1251_1952" x1="113.157" y1="151.693" x2="113.157" y2="135.508" gradientUnits="userSpaceOnUse">
<stop stop-color="#6754CC"/>
<stop offset="1" stop-color="#321C5F"/>
</linearGradient>
<radialGradient id="paint20_radial_1251_1952" cx="0" cy="0" r="1" gradientUnits="userSpaceOnUse" gradientTransform="translate(113.913 147.775) rotate(180) scale(14.101 8.20463)">
<stop stop-color="#6754CC" stop-opacity="0"/>
<stop offset="0.13" stop-color="#876DA0" stop-opacity="0.21"/>
<stop offset="0.31" stop-color="#B18E68" stop-opacity="0.49"/>
<stop offset="0.47" stop-color="#D2A83B" stop-opacity="0.71"/>
<stop offset="0.61" stop-color="#EABB1B" stop-opacity="0.87"/>
<stop offset="0.72" stop-color="#F9C607" stop-opacity="0.96"/>
<stop offset="0.79" stop-color="#FFCB00"/>
</radialGradient>
<radialGradient id="paint21_radial_1251_1952" cx="0" cy="0" r="1" gradientUnits="userSpaceOnUse" gradientTransform="translate(113.913 139.73) rotate(180) scale(21.0428 12.2437)">
<stop stop-color="#6754CC" stop-opacity="0"/>
<stop offset="0.13" stop-color="#876DA0" stop-opacity="0.21"/>
<stop offset="0.31" stop-color="#B18E68" stop-opacity="0.49"/>
<stop offset="0.47" stop-color="#D2A83B" stop-opacity="0.71"/>
<stop offset="0.61" stop-color="#EABB1B" stop-opacity="0.87"/>
<stop offset="0.72" stop-color="#F9C607" stop-opacity="0.96"/>
<stop offset="0.79" stop-color="#FFCB00"/>
</radialGradient>
<radialGradient id="paint22_radial_1251_1952" cx="0" cy="0" r="1" gradientUnits="userSpaceOnUse" gradientTransform="translate(113.913 125.648) rotate(180) scale(46.1435 26.8484)">
<stop offset="0.21" stop-color="#FFCB00"/>
<stop offset="0.32" stop-color="#FCC902" stop-opacity="0.99"/>
<stop offset="0.42" stop-color="#F6C40B" stop-opacity="0.94"/>
<stop offset="0.52" stop-color="#EABB1A" stop-opacity="0.87"/>
<stop offset="0.61" stop-color="#DBAF2F" stop-opacity="0.76"/>
<stop offset="0.7" stop-color="#C79F4B" stop-opacity="0.63"/>
<stop offset="0.8" stop-color="#AE8B6C" stop-opacity="0.47"/>
<stop offset="0.89" stop-color="#907493" stop-opacity="0.27"/>
<stop offset="0.98" stop-color="#6F5AC0" stop-opacity="0.06"/>
<stop offset="1" stop-color="#6754CC" stop-opacity="0"/>
</radialGradient>
<linearGradient id="paint23_linear_1251_1952" x1="112.695" y1="136.458" x2="112.695" y2="50.9319" gradientUnits="userSpaceOnUse">
<stop stop-color="#86A4E1"/>
<stop offset="0.32" stop-color="#A9BEE9"/>
<stop offset="1" stop-color="white"/>
</linearGradient>
<linearGradient id="paint24_linear_1251_1952" x1="112.294" y1="95.5986" x2="111.607" y2="134.469" gradientUnits="userSpaceOnUse">
<stop stop-color="#95B0EA" stop-opacity="0"/>
<stop offset="0.16" stop-color="#A3B3C9" stop-opacity="0.14"/>
<stop offset="0.52" stop-color="#C9BD75" stop-opacity="0.5"/>
<stop offset="1" stop-color="#FFCB00"/>
</linearGradient>
<linearGradient id="paint25_linear_1251_1952" x1="179.401" y1="70.5636" x2="157.237" y2="71.3088" gradientUnits="userSpaceOnUse">
<stop offset="0.21" stop-color="#341E63" stop-opacity="0.97"/>
<stop offset="1" stop-color="#A5C9DB" stop-opacity="0"/>
</linearGradient>
<linearGradient id="paint26_linear_1251_1952" x1="105.174" y1="94.0094" x2="53.8336" y2="51.7595" gradientUnits="userSpaceOnUse">
<stop stop-color="#86A4E1"/>
<stop offset="0.32" stop-color="#A9BEE9"/>
<stop offset="1" stop-color="white"/>
</linearGradient>
<linearGradient id="paint27_linear_1251_1952" x1="66.5848" y1="74.4104" x2="88.4526" y2="88.6578" gradientUnits="userSpaceOnUse">
<stop stop-color="white"/>
<stop offset="0.68" stop-color="#A9BEE9"/>
<stop offset="1" stop-color="#86A4E1"/>
</linearGradient>
<linearGradient id="paint28_linear_1251_1952" x1="66.5191" y1="74.6478" x2="87.5109" y2="88.3221" gradientUnits="userSpaceOnUse">
<stop stop-color="#86A4E1"/>
<stop offset="0.32" stop-color="#A9BEE9"/>
<stop offset="1" stop-color="white"/>
</linearGradient>
<linearGradient id="paint29_linear_1251_1952" x1="69.9254" y1="84.8239" x2="80.1338" y2="70.3813" gradientUnits="userSpaceOnUse">
<stop stop-color="#6754CC"/>
<stop offset="1" stop-color="#321C5F"/>
</linearGradient>
<radialGradient id="paint30_radial_1251_1952" cx="0" cy="0" r="1" gradientUnits="userSpaceOnUse" gradientTransform="translate(85.8961 85.4412) rotate(150.003) scale(6.39655 14.0421)">
<stop offset="0.21" stop-color="#FFCB00"/>
<stop offset="0.28" stop-color="#F9C607" stop-opacity="0.96"/>
<stop offset="0.39" stop-color="#EABB1B" stop-opacity="0.87"/>
<stop offset="0.53" stop-color="#D2A83B" stop-opacity="0.71"/>
<stop offset="0.69" stop-color="#B18E68" stop-opacity="0.49"/>
<stop offset="0.87" stop-color="#876DA0" stop-opacity="0.21"/>
<stop offset="1" stop-color="#6754CC" stop-opacity="0"/>
</radialGradient>
<radialGradient id="paint31_radial_1251_1952" cx="0" cy="0" r="1" gradientUnits="userSpaceOnUse" gradientTransform="translate(59.4335 69.0222) rotate(150.003) scale(6.39655 14.0421)">
<stop offset="0.21" stop-color="#FFCB00"/>
<stop offset="0.28" stop-color="#F9C607" stop-opacity="0.96"/>
<stop offset="0.39" stop-color="#EABB1B" stop-opacity="0.87"/>
<stop offset="0.53" stop-color="#D2A83B" stop-opacity="0.71"/>
<stop offset="0.69" stop-color="#B18E68" stop-opacity="0.49"/>
<stop offset="0.87" stop-color="#876DA0" stop-opacity="0.21"/>
<stop offset="1" stop-color="#6754CC" stop-opacity="0"/>
</radialGradient>
<linearGradient id="paint32_linear_1251_1952" x1="150.247" y1="83.9643" x2="148.283" y2="93.7229" gradientUnits="userSpaceOnUse">
<stop stop-color="#86A4E1"/>
<stop offset="0.32" stop-color="#A9BEE9"/>
<stop offset="1" stop-color="white"/>
</linearGradient>
<linearGradient id="paint33_linear_1251_1952" x1="150.755" y1="95.8759" x2="145.982" y2="88.3436" gradientUnits="userSpaceOnUse">
<stop stop-color="#6754CC"/>
<stop offset="1" stop-color="#321C5F"/>
</linearGradient>
<linearGradient id="paint34_linear_1251_1952" x1="166.213" y1="95.1555" x2="142.444" y2="95.1555" gradientUnits="userSpaceOnUse">
<stop stop-color="#FFCB00"/>
<stop offset="0.14" stop-color="#E8C737" stop-opacity="0.73"/>
<stop offset="0.46" stop-color="#AFBFC2" stop-opacity="0.08"/>
<stop offset="0.5" stop-color="#A9BFD2" stop-opacity="0"/>
<stop offset="1" stop-color="#FFC507"/>
</linearGradient>
<radialGradient id="paint35_radial_1251_1952" cx="0" cy="0" r="1" gradientUnits="userSpaceOnUse" gradientTransform="translate(163.749 101.574) rotate(180) scale(8.26963 8.26857)">
<stop stop-color="#A9BFD2" stop-opacity="0"/>
<stop offset="0.09" stop-color="#ADBFC7" stop-opacity="0.05"/>
<stop offset="0.26" stop-color="#B9C1AA" stop-opacity="0.19"/>
<stop offset="0.48" stop-color="#CCC37B" stop-opacity="0.41"/>
<stop offset="0.76" stop-color="#E6C73C" stop-opacity="0.71"/>
<stop offset="1" stop-color="#FFCB00"/>
</radialGradient>
<linearGradient id="paint36_linear_1251_1952" x1="163.413" y1="171.12" x2="161.465" y2="180.78" gradientUnits="userSpaceOnUse">
<stop stop-color="#86A4E1"/>
<stop offset="0.32" stop-color="#A9BEE9"/>
<stop offset="1" stop-color="white"/>
</linearGradient>
<linearGradient id="paint37_linear_1251_1952" x1="163.913" y1="182.909" x2="159.197" y2="175.458" gradientUnits="userSpaceOnUse">
<stop stop-color="#6754CC"/>
<stop offset="1" stop-color="#321C5F"/>
</linearGradient>
<linearGradient id="paint38_linear_1251_1952" x1="138.252" y1="211.881" x2="125.539" y2="194.631" gradientUnits="userSpaceOnUse">
<stop stop-color="#86A4E1"/>
<stop offset="0.32" stop-color="#A9BEE9"/>
<stop offset="1" stop-color="white"/>
</linearGradient>
<linearGradient id="paint39_linear_1251_1952" x1="131.244" y1="201.951" x2="142.369" y2="217.843" gradientUnits="userSpaceOnUse">
<stop stop-color="#95B0EA" stop-opacity="0"/>
<stop offset="0.16" stop-color="#A3B3C9" stop-opacity="0.14"/>
<stop offset="0.52" stop-color="#C9BD75" stop-opacity="0.5"/>
<stop offset="1" stop-color="#FFCB00"/>
</linearGradient>
<linearGradient id="paint40_linear_1251_1952" x1="108.776" y1="223.867" x2="86.4238" y2="223.187" gradientUnits="userSpaceOnUse">
<stop stop-color="#86A4E1"/>
<stop offset="0.32" stop-color="#A9BEE9"/>
<stop offset="1" stop-color="white"/>
</linearGradient>
<linearGradient id="paint41_linear_1251_1952" x1="84.9665" y1="214.73" x2="99.5136" y2="236.026" gradientUnits="userSpaceOnUse">
<stop stop-color="#86A4E1"/>
<stop offset="0.32" stop-color="#A9BEE9"/>
<stop offset="1" stop-color="white"/>
</linearGradient>
<linearGradient id="paint42_linear_1251_1952" x1="86.0309" y1="226.781" x2="97.8775" y2="217.914" gradientUnits="userSpaceOnUse">
<stop stop-color="#6754CC"/>
<stop offset="1" stop-color="#321C5F"/>
</linearGradient>
<linearGradient id="paint43_linear_1251_1952" x1="102.94" y1="238.546" x2="86.2424" y2="236.682" gradientUnits="userSpaceOnUse">
<stop stop-color="#86A4E1"/>
<stop offset="0.32" stop-color="#A9BEE9"/>
<stop offset="1" stop-color="white"/>
</linearGradient>
<linearGradient id="paint44_linear_1251_1952" x1="89.6265" y1="231.829" x2="72.929" y2="229.965" gradientUnits="userSpaceOnUse">
<stop stop-color="#86A4E1"/>
<stop offset="0.32" stop-color="#A9BEE9"/>
<stop offset="1" stop-color="white"/>
</linearGradient>
<linearGradient id="paint45_linear_1251_1952" x1="99.3433" y1="226.34" x2="82.6458" y2="224.476" gradientUnits="userSpaceOnUse">
<stop stop-color="#86A4E1"/>
<stop offset="0.32" stop-color="#A9BEE9"/>
<stop offset="1" stop-color="white"/>
</linearGradient>
<linearGradient id="paint46_linear_1251_1952" x1="89.2846" y1="218.364" x2="72.5872" y2="216.5" gradientUnits="userSpaceOnUse">
<stop stop-color="#86A4E1"/>
<stop offset="0.32" stop-color="#A9BEE9"/>
<stop offset="1" stop-color="white"/>
</linearGradient>
</defs>
</svg>
